<?xml version="1.0" encoding="utf-8"?>
<!-- Generator: Adobe Illustrator 27.3.1, SVG Export Plug-In . SVG Version: 6.00 Build 0)  -->
<svg version="1.1" id="Layer_1" xmlns="http://www.w3.org/2000/svg" xmlns:xlink="http://www.w3.org/1999/xlink" x="0px" y="0px"
	 viewBox="0 0 792 792" style="enable-background:new 0 0 792 792;" xml:space="preserve">
<style type="text/css">
	.st0{fill:none;stroke:#A6A7AA;stroke-width:4;stroke-linecap:round;stroke-linejoin:round;}
	.st1{fill:none;stroke:#A6A8AB;stroke-width:4;stroke-linecap:round;stroke-linejoin:round;}
	.st2{fill:none;stroke:#000000;stroke-width:4;stroke-linecap:round;stroke-linejoin:round;}
	.st3{fill:none;stroke:#EA1F27;stroke-width:2;stroke-miterlimit:10;}
	.st4{fill:#EA1F27;}
	.st5{fill:#FFFFFF;stroke:#EA1F27;stroke-miterlimit:10;}
	.st6{font-family:'SetupGrotesk-Medium';}
	.st7{font-size:20px;}
	.st8{fill:none;stroke:#EA1F27;stroke-miterlimit:10;}
	.st9{fill:#40DD8B;}
	.st10{fill:none;stroke:#40DD8B;stroke-width:2;stroke-miterlimit:10;}
	.st11{fill:none;stroke:#40DD8B;stroke-miterlimit:10;}
</style>
<polyline class="st0" points="188,522.2 108.8,561.1 587.3,561.1 "/>
<g>
	<polyline class="st1" points="241.1,645.3 248.9,720.4 321.2,720.4 329.5,645.3 	"/>
	<polyline class="st1" points="321.2,720.4 342,704.5 350.2,645.3 	"/>
</g>
<path class="st2" d="M204.5,638.6"/>
<path class="st2" d="M316.7,162.4c-12.3,1.4-24.7,4.4-37,7.5l-119.9,42.8c-8.4,2.4-14,10.6-12.8,19.3l41,290.2"/>
<path class="st1" d="M587.3,78H353.4h-35.5v97.9"/>
<path class="st1" d="M652.1,638.7"/>
<path class="st2" d="M332.4,522.2c-13-44.3-27.4-112.9-43.6-155.8c-20-52.5-62.8-166.6-137-148.1"/>
<path class="st1" d="M411.6,445.8h175.5"/>
<path class="st2" d="M317.9,175.9c27.7,34.2,38.6,83.1,50.1,114.2c16.6,43.3,30.6,111.7,43.6,155.8"/>
<polyline class="st2" points="412.1,445.8 332.4,522.2 188,522.2 "/>
<path class="st2" d="M317.6,175.4"/>
<path class="st2" d="M316.2,162.4"/>
<g>
	<line class="st3" x1="325.5" y1="530.2" x2="192.9" y2="530.2"/>
	<polygon class="st4" points="195.4,525.2 186.7,530.3 195.4,535.2 	"/>
	<polygon class="st4" points="323.5,525.2 332.2,530.3 323.5,535.2 	"/>
</g>
<g>
	<rect x="234.5" y="550.5" class="st5" width="42.5" height="27.6"/>
	<text transform="matrix(1 0 0 1 246.09 571.2269)" class="st6 st7">L</text>
	<text transform="matrix(1 0 0 1 256.25 571.2269)" class="st6 st7">1</text>
	<line class="st8" x1="255.8" y1="530.7" x2="255.8" y2="550.5"/>
</g>
<g>
	<polygon class="st9" points="327.9,509.8 318.2,512.5 325.3,519.5 	"/>
	<polygon class="st9" points="151.9,221.8 160.6,216.8 160.5,226.8 	"/>
</g>
<path class="st10" d="M158.3,222.2C243.8,213,287.7,377.5,324,513.4"/>
<path class="st10" d="M325.5,176.6c28.8,27.6,52.8,110.6,92.4,261.7"/>
<polygon class="st9" points="333.7,177.1 324,174.6 326.8,184.2 "/>
<polygon class="st9" points="422.2,434 412.5,436.7 419.6,443.7 "/>
<g>
	<line class="st3" x1="414.2" y1="452.5" x2="345.4" y2="518.7"/>
	<polygon class="st4" points="343.6,513.5 340.9,523.1 350.6,520.7 	"/>
	<polygon class="st4" points="408.7,450.9 418.5,448.5 415.7,458.1 	"/>
</g>
<g>
	<line class="st3" x1="313.5" y1="182.8" x2="218.6" y2="226.8"/>
	<polygon class="st4" points="217.7,221.8 212.5,230.4 222.5,230.6 	"/>
	<polygon class="st4" points="307.8,179.9 317.8,179.9 312.8,188.6 	"/>
</g>
<g>
	<rect x="258.6" y="217.9" class="st5" width="42.5" height="27.6"/>
	<text transform="matrix(1 0 0 1 267.62 238.63)" class="st6 st7">B</text>
	<text transform="matrix(1 0 0 1 280.42 238.63)" class="st6 st7">2</text>
	<line class="st8" x1="279.8" y1="198.1" x2="279.8" y2="217.9"/>
</g>
<rect x="345.4" y="436.8" class="st5" width="42.5" height="27.6"/>
<g>
	<rect x="234.5" y="550.5" class="st5" width="42.5" height="27.6"/>
	<text transform="matrix(1 0 0 1 242.16 571.4269)" class="st6 st7">C</text>
	<text transform="matrix(1 0 0 1 257.94 571.4269)" class="st6 st7">2</text>
	<line class="st8" x1="255.8" y1="530.7" x2="255.8" y2="550.5"/>
</g>
<text transform="matrix(1 0 0 1 355.84 458.14)" class="st6 st7">B1</text>
<line class="st8" x1="366.6" y1="464.5" x2="366.6" y2="498.3"/>
<g>
	<rect x="211.1" y="363.7" class="st11" width="42.5" height="27.6"/>
	<text transform="matrix(1 0 0 1 222.5 384.62)" class="st6 st7">E1</text>
	<line class="st11" x1="284.6" y1="377.5" x2="253.6" y2="377.5"/>
</g>
<g>
	<rect x="412.3" y="291.2" class="st11" width="42.5" height="27.6"/>
	<text transform="matrix(1 0 0 1 421.64 312.05)" class="st6 st7">E2</text>
	<line class="st11" x1="412.3" y1="306.4" x2="381.3" y2="306.4"/>
</g>
<g>
	<line class="st3" x1="328.9" y1="164.7" x2="328.9" y2="87.6"/>
	<polygon class="st4" points="333.9,90 328.8,81.3 323.9,90 	"/>
	<polygon class="st4" points="333.9,163.8 328.8,172.5 323.9,163.8 	"/>
</g>
<rect x="350.5" y="114.1" class="st5" width="42.5" height="27.6"/>
<text transform="matrix(1 0 0 1 361.52 134.7691)" class="st6 st7">F4</text>
<path class="st8" d="M350.5,127.9"/>
<line class="st8" x1="350.5" y1="127.9" x2="328.9" y2="127.9"/>
<polyline class="st0" points="108.8,561.1 108.8,645.3 587.3,645.3 "/>
</svg>
