<?xml version="1.0" encoding="utf-8"?>
<!-- Generator: Adobe Illustrator 27.3.1, SVG Export Plug-In . SVG Version: 6.00 Build 0)  -->
<svg version="1.1" id="Layer_1" xmlns="http://www.w3.org/2000/svg" xmlns:xlink="http://www.w3.org/1999/xlink" x="0px" y="0px"
	 viewBox="0 0 729 729" style="enable-background:new 0 0 729 729;" xml:space="preserve">
<style type="text/css">
	.st0{fill:none;stroke:#231F20;stroke-width:4;stroke-linecap:round;stroke-linejoin:round;}
	.st1{fill:none;stroke:#EB2027;stroke-width:2;stroke-miterlimit:10;}
	.st2{fill:#EB2027;stroke:#EB2027;stroke-miterlimit:10;}
	.st3{fill:#40DD8B;}
	.st4{fill:none;stroke:#40DD8B;stroke-width:2;stroke-miterlimit:10;}
	.st5{fill:none;stroke:#EB2027;stroke-miterlimit:10;}
	.st6{fill:#FFFFFF;stroke:#E8282B;stroke-miterlimit:10;}
	.st7{fill:#020202;}
	.st8{font-family:'SetupGrotesk-Medium';}
	.st9{font-size:20px;}
	.st10{fill:none;stroke:#231F20;stroke-width:3;stroke-linecap:round;stroke-linejoin:round;}
	.st11{fill:none;stroke:#020202;stroke-width:4;stroke-miterlimit:10;}
	.st12{fill:#EB2027;}
	.st13{fill:none;stroke:#40DD8B;stroke-miterlimit:10;}
	.st14{fill:#FFFFFF;stroke:#40DD8B;stroke-miterlimit:10;}
	.st15{fill:#FFFFFF;stroke:#40DD8B;stroke-width:2;stroke-miterlimit:10;}
</style>
<path class="st0" d="M301,486.9L45,339.1 M301,486.9l383.9-221.7 M301,585.4v-98.5 M45,437.6l256,147.8l383.9-221.7v-98.5
	l-256-147.8L45,339.1V437.6z"/>
<g id="mBcm">
	<line class="st1" x1="445.5" y1="115" x2="679.1" y2="249.9"/>
	<g>
		<polygon class="st2" points="443.8,121.6 437.2,110.3 450.4,110.3 		"/>
	</g>
	<g>
		<polygon class="st2" points="676,255.4 689,255.4 682.4,243.9 		"/>
	</g>
</g>
<g id="mA2cm">
	<path class="st1" d="M292.8,569.5"/>
	<g>
		<polygon class="st3" points="285.1,484 278.2,495.3 291.4,495.7 		"/>
	</g>
</g>
<g>
	<polygon class="st3" points="291.4,560.1 278.2,560.5 285.1,571.8 	"/>
</g>
<g id="mBcm_00000123402086481225943600000011255513527930927530_">
	<line class="st4" x1="300.4" y1="472.8" x2="658.6" y2="268.2"/>
	<g>
		<polygon class="st3" points="306.9,477.1 293.8,476.9 300.7,465.6 		"/>
	</g>
	<g>
		<polygon class="st3" points="661.7,273.7 668.5,262.6 655.2,262.2 		"/>
	</g>
</g>
<path class="st5" d="M504.9,381.9"/>
<path class="st5" d="M504.9,422.6"/>
<line class="st5" x1="568.1" y1="154.6" x2="568.1" y2="185.8"/>
<g>
	<g>
		<rect x="546.9" y="137.8" class="st6" width="42.5" height="27.6"/>
	</g>
</g>
<text transform="matrix(1 0 0 1 561.7605 158.8086)" class="st7 st8 st9">A</text>
<path class="st10" d="M614.4,404.4"/>
<polyline class="st0" points="45,437.6 45,472 87.7,495.4 87.7,465.2 "/>
<line class="st0" x1="87.7" y1="495.4" x2="116.4" y2="479.6"/>
<polyline class="st0" points="246.1,554.5 246.6,587.3 301.6,616.3 301.1,585.8 "/>
<polyline class="st0" points="354.6,555.3 354.6,584.3 301.6,616.3 "/>
<polyline class="st0" points="684.9,364.5 684.9,392.3 642.2,418.3 642.2,389.2 "/>
<line class="st0" x1="642.2" y1="418.3" x2="615" y2="405.2"/>
<polyline class="st11" points="45,392.7 299.4,533.8 684.9,315.1 "/>
<line class="st4" x1="284.8" y1="491.9" x2="284.8" y2="565"/>
<g id="mA2cm_00000173134761209116891870000000947475770328576926_">
	<path class="st1" d="M693.6,450.6"/>
	<g>
		<polygon class="st12" points="55.4,446.5 50.2,455.1 60.2,455.2 		"/>
	</g>
</g>
<g>
	<polygon class="st12" points="60.2,466.2 50.2,466.4 55.5,475 	"/>
</g>
<line class="st1" x1="55.2" y1="453.6" x2="55.2" y2="468.1"/>
<polygon class="st2" points="543.6,349.6 538.4,358.2 548.4,358.5 "/>
<polygon class="st2" points="548.4,382.5 538.4,382.8 543.6,391.4 "/>
<line class="st1" x1="543.4" y1="358" x2="543.4" y2="383"/>
<line class="st5" x1="55.2" y1="460.3" x2="75.8" y2="460.3"/>
<g>
	<g>
		<rect x="75.8" y="446.5" class="st6" width="42.5" height="27.6"/>
	</g>
</g>
<text transform="matrix(1 0 0 1 90.6649 467.5061)" class="st7 st8 st9">E</text>
<line class="st13" x1="471.7" y1="344.2" x2="471.7" y2="375.4"/>
<g>
	<g>
		<rect x="450.4" y="327.4" class="st14" width="42.5" height="27.6"/>
	</g>
</g>
<text transform="matrix(1 0 0 1 465.3148 348.4114)" class="st7 st8 st9">B</text>
<line class="st4" x1="272.5" y1="527" x2="284.4" y2="527"/>
<g>
	<g>
		<rect x="230.4" y="513.2" class="st15" width="42.5" height="27.6"/>
	</g>
</g>
<text transform="matrix(1 0 0 1 243.3954 533.7996)" class="st7 st8 st9">C</text>
<line class="st5" x1="543.4" y1="370.5" x2="561.8" y2="351.4"/>
<g>
	<g>
		<rect x="561.8" y="337.6" class="st6" width="42.5" height="27.6"/>
	</g>
</g>
<text transform="matrix(1 0 0 1 576.6447 358.6283)" class="st7 st8 st9">D</text>
</svg>
