<?xml version="1.0" encoding="utf-8"?>
<!-- Generator: Adobe Illustrator 27.3.1, SVG Export Plug-In . SVG Version: 6.00 Build 0)  -->
<svg version="1.1" id="Layer_1" xmlns="http://www.w3.org/2000/svg" xmlns:xlink="http://www.w3.org/1999/xlink" x="0px" y="0px"
	 viewBox="0 0 729 729" style="enable-background:new 0 0 729 729;" xml:space="preserve">
<style type="text/css">
	.st0{fill:none;stroke:#40DD8B;stroke-miterlimit:10;}
	.st1{fill:none;stroke:#EB2027;stroke-miterlimit:10;}
	.st2{fill:#EB2027;stroke:#EB2027;stroke-width:2;stroke-miterlimit:10;}
	.st3{fill:#EB2027;stroke:#EB2027;stroke-width:0.8475;stroke-miterlimit:10;}
	.st4{fill:#EB2027;stroke:#EB2027;stroke-width:0.8333;stroke-miterlimit:10;}
	.st5{fill:none;stroke:#40DD8B;stroke-width:2;stroke-miterlimit:10;}
	.st6{fill:#40DD8B;}
	.st7{fill:#EB2027;stroke:#40DD8B;stroke-width:2;stroke-miterlimit:10;}
	.st8{fill:none;stroke:#231F20;stroke-width:2;stroke-linecap:round;stroke-linejoin:round;}
	.st9{fill:none;stroke:#231F20;stroke-width:4;stroke-linecap:round;stroke-linejoin:round;}
	.st10{fill:none;stroke:#DE6969;stroke-linecap:round;stroke-linejoin:round;stroke-miterlimit:10;stroke-dasharray:2.0004;}
	
		.st11{fill:none;stroke:#231F20;stroke-width:2;stroke-linecap:round;stroke-linejoin:round;stroke-miterlimit:10;stroke-dasharray:5;}
	
		.st12{fill:none;stroke:#DE6969;stroke-width:1.3336;stroke-linecap:round;stroke-linejoin:round;stroke-miterlimit:10;stroke-dasharray:2.0004;}
	.st13{fill:#FFFFFF;stroke:#E9262A;stroke-miterlimit:10;}
	.st14{fill:#020202;}
	.st15{font-family:'SetupGrotesk-Medium';}
	.st16{font-size:20px;}
	.st17{fill:#FFFFFF;stroke:#40DD8B;stroke-miterlimit:10;}
</style>
<g id="bD2cm">
	<line class="st0" x1="580.6" y1="228.6" x2="607.3" y2="228.6"/>
</g>
<g id="bD1cm">
	<line class="st0" x1="257.2" y1="372.8" x2="284" y2="372.8"/>
</g>
<g id="bTcm">
	<line class="st0" x1="124.1" y1="198.8" x2="124.1" y2="164.5"/>
</g>
<g id="bW2cm">
	<line class="st1" x1="317.6" y1="579.1" x2="317.6" y2="553.3"/>
</g>
<g id="bW1cm">
	<line class="st1" x1="365.6" y1="165.3" x2="365.6" y2="137.6"/>
</g>
<g id="mW1cm">
	<polyline class="st2" points="560.1,165.1 495.2,165.1 235.4,165.1 170.3,165.1 	"/>
	<polygon class="st3" points="177.1,159.6 167.1,165.1 177.1,170.8 	"/>
	<polygon class="st4" points="555.2,170.7 565.2,165.1 555.2,159.7 	"/>
</g>
<g id="mW2cm">
	<polyline class="st2" points="431.5,552.6 393.4,552.6 240.9,552.6 202.8,552.6 	"/>
	<polygon class="st3" points="209.5,546.9 199.5,552.6 209.5,558 	"/>
	<polygon class="st3" points="426.5,558 436.5,552.6 426.5,546.9 	"/>
</g>
<g id="mD1cm">
	<polyline class="st5" points="257.2,532.1 257.2,512.4 257.2,253.2 257.2,233.6 	"/>
	<polygon class="st6" points="262.2,238 257.2,229.2 252.2,238 	"/>
	<polygon class="st6" points="252.2,525.9 257.2,534.7 262.2,525.9 	"/>
</g>
<g id="mD2cm">
	<polyline class="st7" points="580.6,270.7 580.6,265 580.6,188.7 580.6,182.8 	"/>
	<polygon class="st6" points="585.6,187.2 580.6,178.4 575.6,187.2 	"/>
	<polygon class="st6" points="575.6,266.3 580.6,275.1 585.6,266.3 	"/>
</g>
<g id="mTcm">
	<polyline class="st5" points="107.4,215.7 109.9,213.1 144.4,178.7 147.1,176.1 	"/>
	<polygon class="st6" points="146.8,183.4 149.6,173.4 139.6,176.2 	"/>
	<polygon class="st6" points="105.1,210.8 102.3,220.5 112.3,217.7 	"/>
</g>
<g>
	<line class="st8" x1="436.9" y1="454.8" x2="483.9" y2="407.6"/>
	<line class="st8" x1="436.6" y1="463.1" x2="483.6" y2="415.7"/>
	<path class="st9" d="M517.7,224.7H117.4 M518.6,322.6v-97.1 M436.6,323.9v216.3 M518.6,323.4h-82 M565.2,276.5L519,322.8
		 M565.4,177.7v98.4 M164.5,177.5h400.3 M117.9,224.3l46.4-46.7 M117.4,323.4v-98.1 M199.2,323.4h-81.8 M199.2,540.4v-217
		 M436.6,540.4H199.2 M483.8,494l-47,46.3 M484.2,323.4v170.2"/>
	<path class="st10" d="M459.4,442.2"/>
	<line class="st11" x1="459.4" y1="442.2" x2="459.4" y2="515.9"/>
	<path class="st10" d="M459.4,513.8"/>
	<line class="st11" x1="464.8" y1="435.9" x2="464.8" y2="512"/>
	<path class="st12" d="M463.6,510.7"/>
	<path class="st12" d="M463.6,508.7"/>
	<line class="st9" x1="518.6" y1="224.7" x2="565.4" y2="177.7"/>
</g>
<g>
	<g>
		<rect x="344.4" y="110" class="st13" width="42.5" height="27.6"/>
	</g>
</g>
<text transform="matrix(1 0 0 1 359.3355 130.8495)" class="st14 st15 st16">A</text>
<g>
	<g>
		<rect x="296.7" y="574.7" class="st13" width="42.5" height="27.6"/>
	</g>
</g>
<text transform="matrix(1 0 0 1 311.6425 595.5718)" class="st14 st15 st16">B</text>
<g>
	<g>
		<rect x="284" y="359" class="st17" width="42.5" height="27.6"/>
	</g>
</g>
<text transform="matrix(1 0 0 1 296.9665 379.8698)" class="st14 st15 st16">C</text>
<g>
	<g>
		<rect x="102.8" y="136.9" class="st0" width="42.5" height="27.6"/>
	</g>
</g>
<text transform="matrix(1 0 0 1 116.8218 157.7936)" class="st14 st15 st16">D</text>
<g>
	<g>
		<rect x="607.3" y="214.8" class="st17" width="42.5" height="27.6"/>
	</g>
</g>
<text transform="matrix(1 0 0 1 622.296 235.7089)" class="st14 st15 st16">E</text>
</svg>
