<?xml version="1.0" encoding="utf-8"?>
<!-- Generator: Adobe Illustrator 27.3.1, SVG Export Plug-In . SVG Version: 6.00 Build 0)  -->
<svg version="1.1" id="Layer_1" xmlns="http://www.w3.org/2000/svg" xmlns:xlink="http://www.w3.org/1999/xlink" x="0px" y="0px"
	 viewBox="0 0 729 729" style="enable-background:new 0 0 729 729;" xml:space="preserve">
<style type="text/css">
	.st0{fill:none;stroke:#40DD8B;stroke-width:2;stroke-miterlimit:10;}
	.st1{fill:#40DD8B;stroke:#40DD8B;stroke-width:1.5385;stroke-miterlimit:10;}
	.st2{fill:#40DD8B;stroke:#40DD8B;stroke-width:1.4706;stroke-miterlimit:10;}
	.st3{fill:none;stroke:#40DD8B;stroke-miterlimit:10;}
	.st4{fill:none;stroke:#EB1F27;stroke-width:2;stroke-miterlimit:10;}
	.st5{fill:none;stroke:#000000;stroke-width:4;stroke-miterlimit:10;}
	.st6{fill:none;stroke:#E82429;stroke-miterlimit:10;}
	.st7{fill:#FFFFFF;stroke:#40DD8B;stroke-width:0.8817;stroke-miterlimit:10;}
	.st8{fill:#010101;}
	.st9{font-family:'SetupGrotesk-Medium';}
	.st10{font-size:20px;}
	.st11{fill:#FFFFFF;stroke:#E82429;stroke-width:0.8817;stroke-miterlimit:10;}
	.st12{fill:none;stroke:#1FEA97;stroke-width:4;stroke-miterlimit:10;}
	.st13{fill:#40DD8B;stroke:#40DD8B;stroke-width:1.4815;stroke-miterlimit:10;}
	.st14{fill:none;stroke:#1FEA97;stroke-width:2;stroke-miterlimit:10;}
	.st15{fill:none;stroke:#EB1F27;stroke-width:2;stroke-miterlimit:10;stroke-dasharray:5;}
	.st16{fill:#EC1C24;stroke:#EB1F27;stroke-width:2;stroke-miterlimit:10;}
	.st17{fill:#EC1C24;stroke:#EB1F27;stroke-width:1.8868;stroke-miterlimit:10;}
	.st18{fill:#EC1C24;stroke:#EB1F27;stroke-width:1.8519;stroke-miterlimit:10;}
</style>
<g id="mC1cm">
	<g>
		<line class="st0" x1="375.3" y1="167.5" x2="376.5" y2="403.9"/>
		<g>
			<polygon class="st1" points="369.9,171.5 375.1,163.5 380.3,171.5 			"/>
		</g>
		<g>
			<polygon class="st2" points="371.7,401.8 376.7,409.6 381.7,401.8 			"/>
		</g>
	</g>
</g>
<line class="st3" x1="375.3" y1="237.9" x2="414.3" y2="237.9"/>
<line class="st4" x1="80" y1="283.6" x2="656.4" y2="283.6"/>
<path class="st5" d="M373.2,147.8"/>
<path class="st5" d="M115.2,324.8"/>
<path class="st5" d="M373.2,541.3"/>
<path class="st5" d="M632.4,341.1"/>
<path class="st5" d="M124.2,283.6"/>
<path class="st5" d="M373.9,454.5"/>
<path class="st5" d="M620.5,283.6"/>
<path class="st5" d="M376.9,147.8"/>
<path class="st5" d="M668.2,320c0,148.5-138.6,161.3-303.7,161.3S70.4,468.5,70.4,320s132.9-164.9,297.9-164.9
	S668.2,171.6,668.2,320z"/>
<path class="st5" d="M665.5,285.4c0,117.2-141,137.4-297.1,137.4S71.7,413.2,71.7,296"/>
<path class="st5" d="M357,84.3"/>
<line class="st6" x1="277.5" y1="283.4" x2="277.5" y2="311.8"/>
<g>
	<g>
		<rect x="412.1" y="223.9" class="st7" width="42.5" height="27.6"/>
	</g>
</g>
<text transform="matrix(1.1116 0 0 1 426.685 245.1728)" class="st8 st9 st10">B</text>
<g>
	<g>
		<rect x="256.1" y="308.9" class="st11" width="42.5" height="27.6"/>
	</g>
</g>
<text transform="matrix(1.1116 0 0 1 268.7505 329.1545)" class="st9 st10">A</text>
<path class="st12" d="M53.4,285.7"/>
<path class="st12" d="M373.1,437.5"/>
<path class="st12" d="M366.4,138"/>
<path class="st12" d="M53.4,301.3"/>
<path class="st12" d="M383.2,137.7"/>
<path class="st12" d="M682.7,287.8"/>
<g id="mC1cm_00000152229876044794418200000001121439486406015924_">
	<g>
		<line class="st0" x1="492.6" y1="422.3" x2="492.9" y2="469.1"/>
		<g>
			<polygon class="st13" points="487.6,427.3 492.6,419.5 497.6,427.3 			"/>
		</g>
		<g>
			<polygon class="st13" points="487.6,463 492.6,470.9 497.6,463 			"/>
		</g>
	</g>
</g>
<path class="st14" d="M682.5,285.7"/>
<path class="st12" d="M370.3,437.5"/>
<path class="st15" d="M393.1,290.8"/>
<path class="st15" d="M31.6,323.7"/>
<path class="st15" d="M614.7,182.3"/>
<path class="st15" d="M373.2,141.9"/>
<path class="st15" d="M58,345.5c1.4-1-25.9-100,68.7-163c38.2-21.1,88.3-41.9,248.5-43.7"/>
<path class="st15" d="M368.3,442.2"/>
<path class="st4" d="M676.9,331.7c-6.2,53-76,114-300,114"/>
<path class="st15" d="M693.2,329.3"/>
<path class="st15" d="M265.2,144.1"/>
<path class="st15" d="M361.2,522"/>
<path class="st4" d="M57,339.7c14.7,64.2,95.6,102.8,306,106"/>
<path class="st15" d="M608.9,179.9c-13.5-7.9-67-41.6-249.6-41.1"/>
<path class="st15" d="M676,337.5c-0.2-4.9,24.6-100.3-67.1-157.6"/>
<line class="st6" x1="263.9" y1="439.9" x2="263.9" y2="468.4"/>
<g>
	<g>
		<rect x="242.5" y="465.4" class="st11" width="42.5" height="27.6"/>
	</g>
</g>
<text transform="matrix(1.1116 0 0 1 255.9971 486.6818)" class="st8 st9 st10">D</text>
<line class="st3" x1="492.3" y1="451.8" x2="519.3" y2="451.8"/>
<g>
	<g>
		<rect x="519.3" y="438" class="st7" width="42.5" height="27.6"/>
	</g>
</g>
<text transform="matrix(1.1116 0 0 1 531.3505 459.3356)" class="st8 st9 st10">C</text>
<g>
	<polygon class="st16" points="359.6,451.8 370.3,445 359.6,438.3 	"/>
</g>
<g>
	<polygon class="st17" points="649,289.7 659,283.4 649,277 	"/>
</g>
<g>
	<polygon class="st18" points="87.3,277.1 77.6,283.6 87.6,289.6 	"/>
</g>
</svg>
