<?xml version="1.0" encoding="utf-8"?>
<!-- Generator: Adobe Illustrator 27.3.1, SVG Export Plug-In . SVG Version: 6.00 Build 0)  -->
<svg version="1.1" id="Layer_1" xmlns="http://www.w3.org/2000/svg" xmlns:xlink="http://www.w3.org/1999/xlink" x="0px" y="0px"
	 viewBox="0 0 729.5 729" style="enable-background:new 0 0 729.5 729;" xml:space="preserve">
<style type="text/css">
	.st0{fill:#010101;}
	.st1{font-family:'SetupGrotesk-Medium';}
	.st2{font-size:20px;}
	.st3{fill:none;stroke:#40DD8B;stroke-miterlimit:10;}
	.st4{fill:none;stroke:#40DD8B;stroke-width:2;stroke-miterlimit:10;}
	.st5{fill:#40DD8B;}
	.st6{fill:none;stroke:#E42226;stroke-miterlimit:10;}
	.st7{fill:none;stroke:#E42226;stroke-width:2;stroke-miterlimit:10;}
	.st8{fill:#E42226;stroke:#E42226;stroke-width:0.7752;stroke-miterlimit:10;}
	.st9{fill:#E42226;stroke:#E42226;stroke-width:0.7937;stroke-miterlimit:10;}
	.st10{fill:#E42226;stroke:#E42226;stroke-width:0.7874;stroke-miterlimit:10;}
	.st11{fill:none;stroke:#000000;stroke-width:2;stroke-miterlimit:10;}
	.st12{fill:none;stroke:#000000;stroke-width:4;stroke-linejoin:round;stroke-miterlimit:10;}
	.st13{fill:none;stroke:#000000;stroke-width:2;stroke-miterlimit:10;stroke-dasharray:4.9994,4.9994;}
	.st14{fill:none;stroke:#000000;stroke-width:2;stroke-miterlimit:10;stroke-dasharray:4.8585,4.8585;}
	.st15{fill:none;stroke:#000000;stroke-width:4;stroke-linecap:round;stroke-linejoin:bevel;stroke-miterlimit:10;}
	.st16{fill:none;stroke:#EB2127;stroke-miterlimit:10;}
</style>
<text transform="matrix(1 0 0 1 408.3014 117.1073)" class="st0 st1 st2">A</text>
<g id="bTcm">
	<line class="st3" x1="164.1" y1="190.6" x2="164.1" y2="149.1"/>
</g>
<g id="mTcm">
	<polyline class="st4" points="146.1,208.5 148.9,205.8 185.4,169.2 188.2,166.5 	"/>
	<polygon class="st5" points="187.8,174 190.6,164 180.6,166.9 	"/>
	<polygon class="st5" points="144,203.6 141.1,213.5 151.1,210.7 	"/>
</g>
<g id="bW2cm">
	<line class="st6" x1="361.3" y1="593" x2="361.3" y2="565.3"/>
</g>
<g id="mW2cm">
	<polyline class="st7" points="570.3,564.2 387.7,564.2 223.9,564.2 157.5,564.2 	"/>
	<polygon class="st8" points="164.4,558.9 154.4,564.2 164.4,569.8 	"/>
	<polygon class="st9" points="565.3,569.9 575.3,564.2 565.3,558.8 	"/>
</g>
<g id="bW1cm">
	<line class="st6" x1="415" y1="154.6" x2="415" y2="124.8"/>
</g>
<g id="mW1cm">
	<polyline class="st7" points="621.9,154.4 554.2,154.4 274.8,154.4 209.3,154.4 	"/>
	<polygon class="st10" points="216.2,149 206.2,154.4 216.2,160.1 	"/>
	<polygon class="st10" points="616.8,160.1 626.8,154.4 616.8,149 	"/>
</g>
<g id="bD1cm">
	<line class="st3" x1="281.6" y1="375.5" x2="310.3" y2="375.5"/>
</g>
<g id="mD1cm">
	<polyline class="st4" points="281.6,542.5 281.6,521.3 281.6,249.1 281.6,228 	"/>
	<polygon class="st5" points="286.5,232.4 281.6,223.5 276.5,232.4 	"/>
	<polygon class="st5" points="276.5,536.1 281.6,545 286.5,536.1 	"/>
</g>
<g>
	<line class="st11" x1="578.1" y1="458" x2="628.6" y2="407.2"/>
	<line class="st11" x1="578.6" y1="466.3" x2="628.6" y2="416.1"/>
	<path class="st12" d="M577,219.3l49.3-52.8 M629.2,497.7l-43.8,44l-7.5,7.5h-13.3H166.2H152V535V220.6 M202.2,165.9h412.2h14.2V180
		v319.1 M150,218.7h428.5v329.6"/>
	<g>
		<g>
			<line class="st11" x1="601.2" y1="443.7" x2="601.2" y2="446.2"/>
			<line class="st13" x1="601.2" y1="451.2" x2="601.2" y2="518.7"/>
			<line class="st11" x1="601.2" y1="521.2" x2="601.2" y2="523.7"/>
		</g>
	</g>
	<g>
		<g>
			<line class="st11" x1="607.7" y1="438.6" x2="607.7" y2="441.1"/>
			<line class="st14" x1="607.7" y1="446" x2="607.7" y2="511.5"/>
			<line class="st11" x1="607.7" y1="514" x2="607.7" y2="516.5"/>
		</g>
	</g>
</g>
<polyline class="st15" points="202.2,165.9 192.6,176 152,217.7 "/>
<text transform="matrix(1 0 0 1 408.3014 117.1073)" class="st0 st1 st2">A</text>
<text transform="matrix(1 0 0 1 408.3014 117.1073)" class="st0 st1 st2">A</text>
<text transform="matrix(1 0 0 1 354.7431 613.7882)" class="st0 st1 st2">B</text>
<path class="st16" d="M310.3,389.3"/>
<path class="st16" d="M352.8,389.3"/>
<path class="st16" d="M352.8,389.3"/>
<path class="st16" d="M352.8,361.7"/>
<path class="st16" d="M352.8,361.7"/>
<text transform="matrix(1 0 0 1 324.3006 381.5648)" class="st1 st2">C</text>
<text transform="matrix(1 0 0 1 156.7985 141.4122)" class="st0 st1 st2">D</text>
<rect x="310.3" y="361.7" class="st3" width="42.5" height="27.6"/>
<rect x="340" y="593" class="st16" width="42.5" height="27.6"/>
<rect x="393.8" y="97.2" class="st16" width="42.5" height="27.6"/>
<rect x="143.1" y="121.5" class="st3" width="42.5" height="27.6"/>
</svg>
