<?xml version="1.0" encoding="utf-8"?>
<!-- Generator: Adobe Illustrator 27.3.1, SVG Export Plug-In . SVG Version: 6.00 Build 0)  -->
<svg version="1.1" id="Layer_1" xmlns="http://www.w3.org/2000/svg" xmlns:xlink="http://www.w3.org/1999/xlink" x="0px" y="0px"
	 viewBox="0 0 729 729" style="enable-background:new 0 0 729 729;" xml:space="preserve">
<style type="text/css">
	.st0{fill:none;stroke:#EB2027;stroke-width:2;stroke-miterlimit:10;stroke-dasharray:5;}
	.st1{fill:none;stroke:#231F20;stroke-width:4;stroke-miterlimit:10;}
	.st2{fill:none;stroke:#EB2027;stroke-width:2;stroke-miterlimit:10;}
	.st3{fill:#EB2027;stroke:#EB2027;stroke-width:0.7576;stroke-miterlimit:10;}
	.st4{fill:none;stroke:#EB2027;stroke-width:2;stroke-linecap:round;stroke-miterlimit:10;}
	.st5{fill:#EB2027;stroke:#EB2027;stroke-width:0.7143;stroke-miterlimit:10;}
	.st6{fill:none;stroke:#EB2027;stroke-miterlimit:10;}
	.st7{fill:#FFFFFF;stroke:#E8282B;stroke-miterlimit:10;}
	.st8{fill:#020202;}
	.st9{font-family:'SetupGrotesk-Medium';}
	.st10{font-size:20px;}
	.st11{fill:#EB2027;stroke:#EB2027;stroke-miterlimit:10;}
	.st12{fill:#63C083;stroke:#63C083;stroke-width:0.6536;stroke-miterlimit:10;}
	.st13{fill:none;stroke:#63C083;stroke-width:2;stroke-miterlimit:10;}
	.st14{fill:none;stroke:#63C083;stroke-miterlimit:10;}
	.st15{fill:#F9F9FA;stroke:#63C083;stroke-miterlimit:10;}
</style>
<path class="st0" d="M364.5,244.7c-110.1,0-204.7,21.5-246.3,52.4"/>
<path class="st0" d="M369.1,244.7c110.1,0,200.1,22,241.7,52.8"/>
<ellipse class="st1" cx="365" cy="216.3" rx="246.8" ry="83.4"/>
<path class="st1" d="M118.2,217.3v267.8c0,0-2,76.8,239,82.4c0,0,231.4,0.5,254.6-79.8l-0.5-266.3"/>
<path class="st1" d="M145,522.6v52.5c0,0,19.5,20.7,45,0v-30.2"/>
<path class="st1" d="M537.8,542.5v30.2c0,0,21,21.5,45.2,0v-50.4"/>
<path class="st2" d="M353.7,419.8c-148.5,0-258.1-39.2-258.1-87.5"/>
<path class="st2" d="M633.4,332.2c0,48.4-113,87.5-261.5,87.5"/>
<g>
	<polygon class="st3" points="354.1,425.6 364.1,419.8 354.1,414 	"/>
</g>
<path class="st0" d="M633.4,332.2"/>
<path class="st0" d="M364.5,244.7"/>
<path class="st0" d="M95.6,332.2"/>
<path class="st4" d="M115.3,299.3c-14.5,10.8-19.7,20.5-19.7,33"/>
<path class="st4" d="M614.4,300.2c14.5,10.8,19,19.9,19,32.4"/>
<g id="mL1cm">
	<line class="st2" x1="132.3" y1="213.7" x2="602.3" y2="214"/>
	<g>
		<polygon class="st5" points="132.6,219.2 123.5,212.9 133.5,208.3 		"/>
	</g>
	<g>
		<polygon class="st5" points="598.6,219.4 608.1,214 598.8,208.3 		"/>
	</g>
</g>
<line class="st6" x1="250.5" y1="214.1" x2="250.5" y2="171.1"/>
<g>
	<g>
		<rect x="232.1" y="161.7" class="st7" width="42.5" height="27.6"/>
	</g>
</g>
<text transform="matrix(1 0 0 1 243.8974 182.7292)" class="st8 st9 st10">A</text>
<g>
	<polygon class="st11" points="154.2,532.1 148.9,540.8 158.9,541 	"/>
</g>
<g>
	<polygon class="st11" points="158.9,568.5 148.9,568.7 154.2,577.2 	"/>
</g>
<line class="st2" x1="153.9" y1="539.8" x2="153.9" y2="574"/>
<line class="st6" x1="136.4" y1="555.2" x2="154.1" y2="555.2"/>
<g>
	<g>
		<rect x="93.9" y="541" class="st7" width="42.5" height="27.6"/>
	</g>
</g>
<text transform="matrix(1 0 0 1 107.6511 561.9747)" class="st8 st9 st10">E</text>
<g>
	<polygon class="st12" points="459.5,304.8 464.4,296 469.5,304.6 	"/>
</g>
<g>
	<polygon class="st12" points="459.5,545 464.4,553.7 469.5,544.9 	"/>
</g>
<line class="st13" x1="464.5" y1="303" x2="464.5" y2="544.9"/>
<line class="st14" x1="464.4" y1="441.2" x2="499.4" y2="441.2"/>
<g>
	<g>
		<rect x="491" y="427.5" class="st15" width="42.5" height="27.6"/>
	</g>
</g>
<text transform="matrix(1 0 0 1 502.6344 448.0765)" class="st8 st9 st10">C</text>
<line class="st6" x1="302" y1="418.1" x2="302" y2="399"/>
<g>
	<g>
		<rect x="280.8" y="371.5" class="st7" width="42.5" height="27.6"/>
	</g>
</g>
<text transform="matrix(1 0 0 1 295.1886 391.4922)" class="st8 st9 st10">D</text>
<g>
	<polygon class="st12" points="360,145.6 365,136.8 370,145.5 	"/>
</g>
<g>
	<polygon class="st12" points="360,284.2 365,292.9 370,284.1 	"/>
</g>
<line class="st13" x1="365" y1="141.2" x2="365" y2="285"/>
<line class="st14" x1="365.7" y1="182.7" x2="400.6" y2="182.7"/>
<g>
	<g>
		<rect x="392.2" y="168.9" class="st15" width="42.5" height="27.6"/>
	</g>
</g>
<text transform="matrix(1 0 0 1 406.1534 188.796)" class="st8 st9 st10">B</text>
</svg>
