<?xml version="1.0" encoding="utf-8"?>
<!-- Generator: Adobe Illustrator 27.4.1, SVG Export Plug-In . SVG Version: 6.00 Build 0)  -->
<svg version="1.1" id="Layer_1" xmlns="http://www.w3.org/2000/svg" xmlns:xlink="http://www.w3.org/1999/xlink" x="0px" y="0px"
	 viewBox="0 0 729 729" style="enable-background:new 0 0 729 729;" xml:space="preserve">
<style type="text/css">
	.st0{fill:none;stroke:#231F20;stroke-width:2;stroke-linecap:round;stroke-linejoin:round;}
	.st1{fill:none;stroke:#231F20;stroke-width:4;stroke-linecap:round;stroke-linejoin:round;}
	.st2{fill:none;stroke:#231F20;stroke-width:4;stroke-linecap:round;stroke-linejoin:round;stroke-dasharray:2.009;}
	.st3{fill:none;stroke:#231F20;stroke-width:2;stroke-linecap:round;stroke-linejoin:round;stroke-dasharray:5;}
	.st4{fill:none;stroke:#231F20;stroke-width:2;stroke-linecap:round;stroke-linejoin:round;stroke-miterlimit:10;}
	.st5{fill:none;stroke:#EB2027;stroke-width:2;stroke-miterlimit:10;}
	.st6{fill:#EB2027;stroke:#EB2027;stroke-miterlimit:10;}
	.st7{fill:none;stroke:#EB2027;stroke-width:2;stroke-linecap:square;stroke-linejoin:round;stroke-miterlimit:10;}
	.st8{fill:none;stroke:#EB2027;stroke-linecap:round;stroke-linejoin:round;stroke-miterlimit:10;}
	.st9{fill:#020202;}
	.st10{font-family:'SetupGrotesk-Medium';}
	.st11{font-size:20px;}
	.st12{fill:#FFFFFF;stroke:#E9262A;stroke-miterlimit:10;}
	.st13{fill:none;stroke:#E9262A;stroke-miterlimit:10;}
</style>
<g>
	<line class="st0" x1="580.1" y1="455" x2="625" y2="409.7"/>
	<line class="st0" x1="580.1" y1="465" x2="625" y2="419.8"/>
	<path class="st1" d="M108.7,275v-50.3c0-19.4,13.1-27.6,13.1-27.6c7.6-5.1,21-4.2,21-4.2l460.9-1.5 M108.7,342.2V275 M581.6,529.8
		H110.7 M626.8,485.8L582.1,529"/>
	<path class="st2" d="M603.5,443.1"/>
	<line class="st3" x1="602.6" y1="442.5" x2="602.6" y2="507.8"/>
	<path class="st2" d="M607.2,438.7"/>
	<line class="st3" x1="608.8" y1="437.8" x2="608.8" y2="501.5"/>
	<path class="st4" d="M581.4,528.2"/>
	<path class="st4" d="M588.7,211.6"/>
</g>
<g id="mAcm">
	<g>
		<line class="st5" x1="590.5" y1="178.5" x2="138.5" y2="178.5"/>
		<g>
			<polygon class="st6" points="588.7,172.8 598.6,178.5 588.7,184.1 			"/>
		</g>
		<g>
			<polygon class="st6" points="140.1,172.8 130.4,178.5 140.1,184.1 			"/>
		</g>
	</g>
</g>
<g id="mBcm">
	<g>
		<line class="st5" x1="575.1" y1="547.9" x2="116.1" y2="547.9"/>
		<g>
			<polygon class="st6" points="573.5,542.3 583.2,547.9 573.5,553.6 			"/>
		</g>
		<g>
			<polygon class="st6" points="117.7,542.3 108,547.9 117.7,553.6 			"/>
		</g>
	</g>
</g>
<g id="mDcm">
	<g>
		<line class="st5" x1="625.4" y1="505.5" x2="593.3" y2="537.8"/>
		<g>
			<polygon class="st6" points="620.3,502.7 631.2,499.9 628.2,510.6 			"/>
		</g>
		<g>
			<polygon class="st6" points="590.5,532.7 587.5,543.6 598.4,540.6 			"/>
		</g>
	</g>
</g>
<g id="mC1cm">
	<g>
		<line class="st5" x1="604.4" y1="203.6" x2="605.7" y2="491"/>
		<g>
			<polygon class="st6" points="598.8,205.6 604.4,195.9 610,205.6 			"/>
		</g>
		<g>
			<polygon class="st6" points="600.1,491 605.7,500.9 611.4,491 			"/>
		</g>
	</g>
</g>
<g id="cC1cm">
	<path class="st7" d="M601.6,350.1"/>
	<path class="st7" d="M642.4,350.1"/>
</g>
<g id="cDcm">
	<line class="st8" x1="614.5" y1="517" x2="614.5" y2="556.5"/>
</g>
<g id="cBcm">
	<line class="st8" x1="345.2" y1="548.8" x2="345.2" y2="577"/>
</g>
<g id="cAcm">
	<line class="st8" x1="355.6" y1="153.3" x2="355.6" y2="176.9"/>
</g>
<path class="st4" d="M597.2,199.2"/>
<path class="st4" d="M588.1,210.7"/>
<path class="st4" d="M597.2,198.4"/>
<path class="st4" d="M588.1,212.1"/>
<path class="st4" d="M573.6,209.3"/>
<path class="st4" d="M596.3,197.5"/>
<text transform="matrix(1 0 0 1 348.3625 151.0087)" class="st9 st10 st11">A</text>
<g>
	<g>
		<rect x="323.9" y="570.2" class="st12" width="42.5" height="27.6"/>
	</g>
</g>
<text transform="matrix(1 0 0 1 337.8784 590.0369)" class="st9 st10 st11">B</text>
<g>
	<g>
		<rect x="599" y="552.3" class="st12" width="42.5" height="27.6"/>
	</g>
</g>
<text transform="matrix(1 0 0 1 613.0013 572.1632)" class="st9 st10 st11">D</text>
<g>
	<g>
		<rect x="639.4" y="342.1" class="st12" width="42.5" height="27.6"/>
	</g>
</g>
<text transform="matrix(1 0 0 1 653.3822 361.9929)" class="st9 st10 st11">C</text>
<path class="st1" d="M626.8,213.1"/>
<path class="st1" d="M624.8,204.8"/>
<path class="st1" d="M581.4,528.2l-1.3-187.9V273c0.2-1.5-2.4-52.3,4.3-69.4c0,0,6.5-14.2,22.7-12.3s18.7,18.6,18.7,18.6
	s1.5,11.1,1,14.8l0,32v37.9v191.2"/>
<path class="st1" d="M584.4,221.2"/>
<line class="st1" x1="110" y1="530.1" x2="108.7" y2="342.2"/>
<line class="st13" x1="605" y1="357.1" x2="639.4" y2="357.1"/>
<rect x="334.9" y="130.1" class="st12" width="42.5" height="27.6"/>
<text transform="matrix(1 0 0 1 348.3625 151.009)" class="st9 st10 st11">A</text>
</svg>
