<?xml version="1.0" encoding="utf-8"?>
<!-- Generator: Adobe Illustrator 27.4.1, SVG Export Plug-In . SVG Version: 6.00 Build 0)  -->
<svg version="1.1" id="Layer_1" xmlns="http://www.w3.org/2000/svg" xmlns:xlink="http://www.w3.org/1999/xlink" x="0px" y="0px"
	 viewBox="0 0 729 729" style="enable-background:new 0 0 729 729;" xml:space="preserve">
<style type="text/css">
	.st0{fill:none;stroke:#231F20;stroke-width:4;stroke-linecap:round;stroke-linejoin:round;}
	.st1{fill:none;stroke:#231F20;stroke-width:2;stroke-linecap:round;stroke-linejoin:round;}
	.st2{fill:none;stroke:#EB2027;stroke-width:2;stroke-miterlimit:10;}
	.st3{fill:#EB2027;stroke:#EB2027;stroke-miterlimit:10;}
	
		.st4{fill:none;stroke:#EB2027;stroke-width:2;stroke-linecap:round;stroke-linejoin:round;stroke-miterlimit:10;stroke-dasharray:5;}
	.st5{fill:none;stroke:#EB2027;stroke-miterlimit:10;}
	.st6{fill:none;stroke:#63C083;stroke-miterlimit:10;}
	.st7{fill:none;stroke:#63C083;stroke-width:2;stroke-miterlimit:10;}
	.st8{fill:#63C083;stroke:#63C083;stroke-miterlimit:10;}
	.st9{fill:#63C083;stroke:#63C083;stroke-width:0.5;stroke-miterlimit:10;}
	.st10{fill:#EB2027;}
	.st11{fill:#FFFFFF;stroke:#E8282B;stroke-miterlimit:10;}
	.st12{fill:#020202;}
	.st13{font-family:'SetupGrotesk-Medium';}
	.st14{font-size:20px;}
	.st15{fill:#F9F9FA;stroke:#63C083;stroke-miterlimit:10;}
</style>
<g>
	<line class="st0" x1="339.9" y1="515.1" x2="541.3" y2="398.6"/>
	<polygon class="st0" points="315.1,499.3 88.7,368.9 88.7,303.5 315.1,434.3 	"/>
	<polyline class="st0" points="315.1,434.3 89.3,303.5 315.4,172.8 334.8,184 	"/>
	<g>
		<polygon class="st1" points="116.9,388.4 116.8,580.8 145.2,564.7 145.3,404.2 		"/>
		<polygon class="st1" points="115.7,387.2 116.8,580.8 88.7,564.7 87.7,371.4 		"/>
	</g>
	<g>
		<path class="st1" d="M371.6,500.2c0,27.5,0.2,127.8,0.2,137.4c0,10,12,60.1,22.5,70.4c-11.1,6.4-28.6,16.4-28.6,16.4
			s-24.2-45-25.6-80.1c0-38.7,0-126.4,0-126.4"/>
		<path class="st1" d="M365.7,724l-33.6-19.5c0,0-16.7-42.3-16.7-75.1s-0.3-127.1-0.3-127.1"/>
	</g>
	<g>
		<path class="st1" d="M541.3,402c0,4.2-0.3,130.5-0.3,140.5c0,10,12,60.1,22.5,70.4c-11.1,6.4-28.7,16.4-28.7,16.4
			s-24.2-45-25.6-80.1c0-38.7,0-128.7,0-128.7"/>
		<path class="st1" d="M535.1,625.6l-33.6-19.5c0,0-16.7-42.3-16.7-75.1s0-96.2,0-96.2"/>
	</g>
	<path class="st0" d="M315.6,432.9c0,0,21.7-248.1,23.9-267.3c1.1-3.1,0.8-48.9,35-23.6"/>
	<path class="st0" d="M351.2,135.3L560.4,9.6c12.2-7.2,27.5,1.4,27.5,15.6v2.8c-5,27-24.5,149.1-28.4,172.7
		c-10.6,79.5-17.8,173.5-18.9,198.3"/>
	<path class="st0" d="M374.6,142c16.4,9.5-8.6,75.6-11.7,101.2c-2.8,17.8-23.1,184.4-22.8,221.6c0,7.2-0.2,34.4-0.2,50.2l-24-15.3"
		/>
</g>
<g id="mJ1cm_00000141421672027340816400000002391610898143104940_">
	<g id="mJ1cm">
		<line class="st2" x1="615.2" y1="31.8" x2="574" y2="367.8"/>
		<g>
			<polygon class="st3" points="605.4,33.5 617.1,17.9 624.6,35.7 			"/>
		</g>
		<g>
			<polygon class="st3" points="564.8,358.9 572.3,376.7 584,361.1 			"/>
		</g>
	</g>
	<line class="st4" x1="632.3" y1="5.9" x2="591.4" y2="29.3"/>
	<line class="st4" x1="587.4" y1="375.2" x2="546.5" y2="398.8"/>
</g>
<g id="bG1cm">
	<line class="st5" x1="210.7" y1="495.7" x2="210.7" y2="452.7"/>
</g>
<g id="bL1cm">
	<line class="st5" x1="481.2" y1="94.3" x2="481.2" y2="40"/>
</g>
<g id="bL2cm">
	<line class="st5" x1="456.4" y1="499.8" x2="456.4" y2="461.8"/>
</g>
<g id="bF2cm">
	<polyline class="st6" points="357.1,160.1 351.2,174.9 308.5,153.4 	"/>
</g>
<g id="bF1cm">
	<polyline class="st6" points="327.8,434.3 322.6,453.9 288.1,447.3 	"/>
</g>
<g id="mF2cm">
	<line class="st7" x1="349.1" y1="155.3" x2="371" y2="165.4"/>
	<g>
		<polygon class="st8" points="349,160.9 344.4,152 354.4,152.6 		"/>
	</g>
	<g>
		<polygon class="st8" points="366.5,168.6 376.5,169 371.9,160 		"/>
	</g>
</g>
<g id="mF1cm">
	<line class="st7" x1="319.9" y1="432.2" x2="335.9" y2="436.4"/>
	<g>
		<polygon class="st9" points="320.1,437.6 313.8,429.7 323.8,428.2 		"/>
	</g>
	<g>
		<polygon class="st8" points="332.3,440.3 342.3,439 336.1,431.1 		"/>
	</g>
</g>
<g id="mG1cm">
	<line class="st2" x1="322.6" y1="518" x2="98.7" y2="388.9"/>
	<g>
		<polygon class="st3" points="325.1,508 334.8,524.9 315.4,524.9 		"/>
	</g>
	<g>
		<polygon class="st3" points="106,381.7 86.8,382 96.2,398.7 		"/>
	</g>
</g>
<g id="mL1cm">
	<line class="st2" x1="396" y1="143.1" x2="571" y2="41.8"/>
	<g>
		<polygon class="st10" points="403.2,150 383.8,150.3 393.5,133.4 		"/>
	</g>
	<g>
		<polygon class="st10" points="573.5,51.6 583.2,34.6 563.7,34.6 		"/>
	</g>
</g>
<g id="mL2cm">
	<line class="st2" x1="357.1" y1="519.4" x2="532.3" y2="417.9"/>
	<g>
		<polygon class="st10" points="364.6,526.3 345.1,526.3 354.9,509.6 		"/>
	</g>
	<g>
		<polygon class="st10" points="534.8,427.6 544.5,410.9 525.1,410.9 		"/>
	</g>
</g>
<line class="st5" x1="632.3" y1="195.3" x2="594.6" y2="195.3"/>
<g>
	<g>
		<rect x="190.8" y="486" class="st11" width="42.5" height="27.6"/>
	</g>
</g>
<text transform="matrix(1 0 0 1 201.9046 505.8965)" class="st12 st13 st14">G</text>
<g>
	<g>
		<rect x="435.2" y="488.6" class="st11" width="42.5" height="27.6"/>
	</g>
</g>
<text transform="matrix(1 0 0 1 444.6921 509.6456)" class="st12 st13 st14">L2</text>
<g>
	<g>
		<rect x="457.8" y="29.3" class="st11" width="42.5" height="27.6"/>
	</g>
</g>
<text transform="matrix(1 0 0 1 469.5829 49.1694)" class="st12 st13 st14">L1</text>
<g>
	<g>
		<rect x="624.6" y="181.5" class="st11" width="42.5" height="27.6"/>
	</g>
</g>
<text transform="matrix(1 0 0 1 635.5654 201.3573)" class="st12 st13 st14">J1</text>
<g>
	<g>
		<rect x="272.4" y="141.5" class="st15" width="42.5" height="27.6"/>
	</g>
</g>
<text transform="matrix(1 0 0 1 281.0711 161.3427)" class="st12 st13 st14">F2</text>
<g>
	<g>
		<rect x="256.6" y="434" class="st15" width="42.5" height="27.6"/>
	</g>
</g>
<text transform="matrix(1 0 0 1 268.343 453.8714)" class="st12 st13 st14">F1</text>
</svg>
