<?xml version="1.0" encoding="utf-8"?>
<!-- Generator: Adobe Illustrator 27.4.1, SVG Export Plug-In . SVG Version: 6.00 Build 0)  -->
<svg version="1.1" id="Layer_1" xmlns="http://www.w3.org/2000/svg" xmlns:xlink="http://www.w3.org/1999/xlink" x="0px" y="0px"
	 viewBox="0 0 729 729" style="enable-background:new 0 0 729 729;" xml:space="preserve">
<style type="text/css">
	.st0{fill:none;stroke:#231F20;stroke-width:4;stroke-linecap:round;stroke-linejoin:round;}
	.st1{fill:none;stroke:#231F20;stroke-width:2;stroke-linecap:round;stroke-linejoin:round;}
	.st2{fill:none;stroke:#EB2027;stroke-miterlimit:10;}
	.st3{fill:none;stroke:#63C083;stroke-miterlimit:10;}
	.st4{fill:none;stroke:#EB2027;stroke-width:2;stroke-miterlimit:10;}
	.st5{fill:#EB2027;stroke:#EB2027;stroke-miterlimit:10;}
	.st6{fill:none;stroke:#63C083;stroke-width:2;stroke-miterlimit:10;}
	.st7{fill:#63C083;stroke:#63C083;stroke-width:2;stroke-miterlimit:10;}
	.st8{fill:#63C083;stroke:#63C083;stroke-miterlimit:10;}
	.st9{fill:none;stroke:#63C083;stroke-width:2;stroke-miterlimit:10;stroke-dasharray:4;}
	.st10{fill:#FFFFFF;stroke:#E8282B;stroke-miterlimit:10;}
	.st11{fill:#020202;}
	.st12{font-family:'SetupGrotesk-Medium';}
	.st13{font-size:20px;}
	.st14{fill:#F9F9FA;stroke:#63C083;stroke-miterlimit:10;}
</style>
<g>
	<g>
		<polygon class="st0" points="416.7,524 570.2,435.4 570.2,391.2 416.7,479.9 		"/>
		<polygon class="st0" points="416.7,524 263.2,435.6 263.2,391.2 416.7,479.9 		"/>
		<polygon class="st0" points="416.7,302.6 570.2,391.2 416.7,479.9 263.4,391.2 		"/>
		<g>
			<polygon class="st1" points="415.9,526.9 415.9,659.7 438.2,647.8 438.2,515 			"/>
			<polygon class="st1" points="415.9,526.6 415.9,659.4 396.9,649.3 396.9,516.1 			"/>
		</g>
		<g>
			<polygon class="st1" points="552.8,448.9 551.2,579.3 570.2,568.4 571.9,438 			"/>
			<polygon class="st1" points="551.2,449.6 551.2,579.3 532,568.4 532,460.7 			"/>
		</g>
		<g>
			<path class="st1" d="M245,427.6c0.8,0.6,0.8,67.2,0.8,74s-8.1,40.7-15.3,47.7c7.6,4.3,15.5,8.9,15.5,8.9s16.4-30.6,17.4-54.3
				c0-26.2-0.8-66.3-0.8-66.3L245,427.6z"/>
			<path class="st1" d="M246,558.4l22.8-13.2c0,0,11.3-28.7,11.3-50.9s0-45.4,0-45.4"/>
		</g>
		<path class="st0" d="M416.7,303c0,0-5.9-148.8-22.8-199.6c0,0-7.5-26.4-22.1-18.7l-152.2,87.9"/>
		<path class="st0" d="M263.4,391.6c0,0-8.1-156.6-25.1-206.9c-5.1-9.6-10.8-14-17.4-12.1"/>
		<path class="st0" d="M263.2,435.6l-17.4-10.2c0-10.6,0-28.9,0-34c0-25.1-12.6-133-16.6-149.8c-3.4-18.3-22.3-60.4-9.4-69"/>
	</g>
</g>
<g id="bA1cm">
	<line class="st2" x1="311.6" y1="142.1" x2="311.6" y2="90.6"/>
</g>
<g id="bA3cm">
	<line class="st3" x1="296.9" y1="256.8" x2="314.9" y2="254"/>
</g>
<g id="bA2cm">
	<line class="st2" x1="371.9" y1="370.5" x2="345.8" y2="353.5"/>
</g>
<g id="bBcm">
	<line class="st2" x1="497.1" y1="335.4" x2="513.1" y2="296.9"/>
</g>
<g id="bDcm">
	<line class="st2" x1="527.7" y1="479.4" x2="501" y2="453.1"/>
</g>
<g id="bH1cm">
	<line class="st3" x1="405.8" y1="498" x2="382.5" y2="498"/>
</g>
<g id="bH2cm">
	<line class="st3" x1="271.7" y1="416.9" x2="237.6" y2="416.9"/>
</g>
<g id="mBcm">
	<line class="st4" x1="430.9" y1="299" x2="567.8" y2="378"/>
	<g>
		<polygon class="st5" points="429.2,305.6 422.5,294.3 435.8,294.3 		"/>
	</g>
	<g>
		<polygon class="st5" points="562.9,382.9 575.9,382.9 569.3,371.4 		"/>
	</g>
</g>
<g id="mH1cm">
	<line class="st6" x1="406.3" y1="484.2" x2="406.3" y2="513.6"/>
	<g>
		<polygon class="st7" points="399.9,488 406.3,476.5 412.9,488 		"/>
	</g>
	<g>
		<polygon class="st7" points="399.9,504.6 406.3,516.1 412.9,504.6 		"/>
	</g>
</g>
<g id="mH2cm">
	<line class="st6" x1="271.6" y1="404.5" x2="271.6" y2="434.1"/>
	<g>
		<polygon class="st8" points="265,410.7 271.6,399.4 278.2,410.7 		"/>
	</g>
	<g>
		<polygon class="st8" points="265,425.5 271.6,436.9 278.2,425.5 		"/>
	</g>
</g>
<g id="mA1cm">
	<line class="st4" x1="246.6" y1="180" x2="383.1" y2="100.8"/>
	<g>
		<polygon class="st5" points="251.5,184.7 238.3,184.7 244.9,173.4 		"/>
	</g>
	<g>
		<polygon class="st5" points="384.8,107.4 391.2,95.8 378.2,96 		"/>
	</g>
</g>
<g id="mA2cm">
	<line class="st4" x1="285.2" y1="389.8" x2="415.7" y2="313.6"/>
	<g>
		<polygon class="st5" points="291.3,393.8 278.2,395.3 283.4,383.3 		"/>
	</g>
	<g>
		<polygon class="st5" points="421.1,309 408.1,311.2 416.5,321.4 		"/>
	</g>
</g>
<g id="mDcm">
	<line class="st4" x1="426.7" y1="495.9" x2="563.7" y2="416.9"/>
	<g>
		<polygon class="st5" points="433.5,499.9 420.5,499.9 427,488.6 		"/>
	</g>
	<g>
		<polygon class="st5" points="560,425.5 566.6,414.2 553.4,414.2 		"/>
	</g>
</g>
<g id="mA3cm">
	<path class="st9" d="M266.6,157"/>
	<path class="st9" d="M302.1,353.9c1.5-42.4-7.7-151.2-17.1-169.2c-8.2-17.2-23.9-24.7-23.7-23.5"/>
	<g>
		<polygon class="st8" points="308.9,351.7 302.9,363.4 295.7,352.5 		"/>
	</g>
	<g>
		<polygon class="st8" points="266.6,156.3 253.5,156.6 260.4,167.8 		"/>
	</g>
</g>
<path class="st9" d="M286.4,182.5"/>
<g>
	<g>
		<rect x="505.1" y="471.4" class="st10" width="42.5" height="27.6"/>
	</g>
</g>
<text transform="matrix(1 0 0 1 519.0477 491.2469)" class="st11 st12 st13">D</text>
<g>
	<g>
		<rect x="345.7" y="366.2" class="st10" width="42.5" height="27.6"/>
	</g>
</g>
<text transform="matrix(1 0 0 1 353.6465 386.0789)" class="st11 st12 st13">A2</text>
<g>
	<g>
		<rect x="485.2" y="285.2" class="st10" width="42.5" height="27.6"/>
	</g>
</g>
<text transform="matrix(1 0 0 1 499.1681 305.0695)" class="st11 st12 st13">B</text>
<g>
	<g>
		<rect x="290.4" y="79.8" class="st10" width="42.5" height="27.6"/>
	</g>
</g>
<text transform="matrix(1 0 0 1 301.6416 99.6218)" class="st11 st12 st13">A1</text>
<g>
	<g>
		<rect x="314.9" y="240.2" class="st14" width="42.5" height="27.6"/>
	</g>
</g>
<text transform="matrix(1 0 0 1 323.5094 260.0815)" class="st11 st12 st13">A3</text>
<g>
	<g>
		<rect x="198.3" y="403.1" class="st14" width="42.5" height="27.6"/>
	</g>
</g>
<text transform="matrix(1 0 0 1 205.4856 422.9631)" class="st11 st12 st13">H2</text>
<g>
	<g>
		<rect x="345.7" y="484.2" class="st14" width="42.5" height="27.6"/>
	</g>
</g>
<text transform="matrix(1 0 0 1 353.647 503.6002)" class="st11 st12 st13">H1</text>
</svg>
