<?xml version="1.0" encoding="utf-8"?>
<!-- Generator: Adobe Illustrator 27.3.1, SVG Export Plug-In . SVG Version: 6.00 Build 0)  -->
<svg version="1.1" id="Layer_1" xmlns="http://www.w3.org/2000/svg" xmlns:xlink="http://www.w3.org/1999/xlink" x="0px" y="0px"
	 viewBox="0 0 729 729" style="enable-background:new 0 0 729 729;" xml:space="preserve">
<style type="text/css">
	.st0{fill:none;stroke:#231F20;stroke-width:2;stroke-linecap:round;stroke-linejoin:round;}
	.st1{fill:none;stroke:#231F20;stroke-width:4;stroke-linecap:round;stroke-linejoin:round;}
	.st2{fill:none;stroke:#231F20;stroke-width:4;stroke-linecap:round;stroke-linejoin:round;stroke-dasharray:2.009;}
	.st3{fill:none;stroke:#231F20;stroke-width:2;stroke-linecap:round;stroke-linejoin:round;stroke-dasharray:5;}
	.st4{fill:none;stroke:#40DD8B;stroke-width:2;stroke-miterlimit:10;}
	.st5{fill:#40DD8B;}
	.st6{fill:none;stroke:#EB2027;stroke-width:2;stroke-miterlimit:10;}
	.st7{fill:#EB2027;}
	.st8{fill:none;stroke:#EB2027;stroke-miterlimit:10;}
	.st9{fill:#FFFFFF;stroke:#E9262A;stroke-miterlimit:10;}
	.st10{fill:#020202;}
	.st11{font-family:'SetupGrotesk-Medium';}
	.st12{font-size:20px;}
	.st13{fill:none;stroke:#40DD8B;stroke-miterlimit:10;}
</style>
<g>
	<g>
		<line class="st0" x1="559.1" y1="460.1" x2="606.6" y2="412.1"/>
		<line class="st0" x1="558.7" y1="470" x2="607" y2="421.5"/>
		<g>
			<path class="st1" d="M96.4,543l15.5-315.2c0-3.4,31.6-29.1,31.6-29.1 M559.1,543H96.4 M595.9,198.4
				c2.7,47.1,14.4,286.7,14.4,286.7L559.1,543 M144,198.4h451.9 M562.8,229l-4.9,313.8"/>
			<path class="st2" d="M580.4,450"/>
			<line class="st3" x1="580.4" y1="451.1" x2="580.4" y2="520.1"/>
			<path class="st2" d="M584.4,446.5"/>
			<path class="st2" d="M584.4,445.2"/>
			<line class="st3" x1="590.1" y1="442" x2="590.1" y2="506.8"/>
		</g>
	</g>
	<line class="st1" x1="593.7" y1="201" x2="562.8" y2="229"/>
	<line class="st1" x1="562.8" y1="229" x2="113.6" y2="229"/>
</g>
<g id="mD2cm">
	<g>
		<line class="st4" x1="618.3" y1="500.7" x2="576.3" y2="548"/>
		<g>
			<polygon class="st5" points="613.6,498.6 623.6,495.6 621.1,505.8 			"/>
		</g>
		<g>
			<polygon class="st5" points="573.7,543.4 571.1,553.3 581.1,550.6 			"/>
		</g>
	</g>
</g>
<g id="mD1cm">
	<g>
		<line class="st4" x1="126.2" y1="194.1" x2="105" y2="213.6"/>
		<g>
			<polygon class="st5" points="121.8,189.8 133.2,187.6 129.4,198.4 			"/>
		</g>
		<g>
			<polygon class="st5" points="101.2,209.1 97.4,219.9 108.5,217.8 			"/>
		</g>
	</g>
</g>
<g id="mAcm">
	<g>
		<line class="st6" x1="585.9" y1="178" x2="157.9" y2="178"/>
		<g>
			<polygon class="st7" points="584.2,172.1 594.2,178 584.2,183.8 			"/>
		</g>
		<g>
			<polygon class="st7" points="159.6,172.1 149.6,178 159.6,183.8 			"/>
		</g>
	</g>
</g>
<g id="mBcm">
	<g>
		<line class="st6" x1="547.2" y1="561.5" x2="103.2" y2="561.5"/>
		<g>
			<polygon class="st7" points="545.5,555.7 555.4,561.5 545.5,567.2 			"/>
		</g>
		<g>
			<polygon class="st7" points="104.8,555.7 95,561.5 104.8,567.2 			"/>
		</g>
	</g>
</g>
<g id="mC1cm">
	<g>
		<line class="st4" x1="582.6" y1="226" x2="586.5" y2="500.7"/>
		<g>
			<polygon class="st5" points="577.8,228.8 582.6,220.2 587.8,228.6 			"/>
		</g>
		<g>
			<polygon class="st5" points="581.6,494.1 586.6,502.8 591.6,494.1 			"/>
		</g>
	</g>
</g>
<line class="st8" x1="317.7" y1="580.5" x2="317.7" y2="562"/>
<g>
	<g>
		<rect x="296.4" y="580" class="st9" width="42.5" height="27.6"/>
	</g>
</g>
<text transform="matrix(1 0 0 1 310.3881 599.8545)" class="st10 st11 st12">B</text>
<line class="st8" x1="359.8" y1="157.6" x2="359.8" y2="178"/>
<g>
	<g>
		<rect x="338.5" y="130" class="st9" width="42.5" height="27.6"/>
	</g>
</g>
<text transform="matrix(1 0 0 1 352.5088 149.8295)" class="st10 st11 st12">A</text>
<line class="st13" x1="113" y1="172.2" x2="113" y2="205.8"/>
<g>
	<g>
		<rect x="91.7" y="144.6" class="st13" width="42.5" height="27.6"/>
	</g>
</g>
<text transform="matrix(1 0 0 1 106.9647 165.1995)" class="st10 st11 st12">E</text>
<line class="st13" x1="613.3" y1="350.7" x2="584.3" y2="350.7"/>
<g>
	<g>
		<rect x="613.9" y="336.9" class="st13" width="42.5" height="27.6"/>
	</g>
</g>
<text transform="matrix(1 0 0 1 627.8763 356.7666)" class="st10 st11 st12">C</text>
<line class="st13" x1="601.4" y1="554.3" x2="601.4" y2="519.7"/>
<g>
	<g>
		<rect x="580.1" y="554.3" class="st13" width="42.5" height="27.6"/>
	</g>
</g>
<text transform="matrix(1 0 0 1 594.0856 574.2409)" class="st10 st11 st12">D</text>
</svg>
