<?xml version="1.0" encoding="utf-8"?>
<!-- Generator: Adobe Illustrator 27.6.1, SVG Export Plug-In . SVG Version: 6.00 Build 0)  -->
<svg version="1.1" id="Layer_1" xmlns="http://www.w3.org/2000/svg" xmlns:xlink="http://www.w3.org/1999/xlink" x="0px" y="0px"
	 viewBox="0 0 542.4 295.1" style="enable-background:new 0 0 542.4 295.1;" xml:space="preserve">
<style type="text/css">
	.st0{fill:none;stroke:#010101;stroke-width:2.741;stroke-linecap:round;stroke-linejoin:round;}
	.st1{fill:none;stroke:#A7A8AB;stroke-width:2.741;stroke-linecap:round;stroke-linejoin:round;}
	.st2{fill:none;stroke:#E82429;stroke-width:1.37;stroke-miterlimit:10;}
	.st3{fill:#E82429;}
	.st4{fill:#FFFFFF;}
	.st5{fill:none;stroke:#E82429;stroke-width:0.685;stroke-miterlimit:10;}
	.st6{fill:none;stroke:#65BF83;stroke-width:1.37;stroke-miterlimit:10;}
	.st7{fill:#65BF83;}
	.st8{fill:none;stroke:#65BF83;stroke-width:0.685;stroke-miterlimit:10;}
	.st9{fill:#010101;}
	.st10{font-family:'SetupGrotesk-Medium';}
	.st11{font-size:13.703px;}
</style>
<path class="st0" d="M116,174.1v-41.7c0-36.3-23.4-34.6-29.6-34.6"/>
<path class="st0" d="M456,97.9c-6.2,0-29.6-1.7-29.6,34.6v41.7"/>
<polyline class="st1" points="67.5,229.5 69.4,247.3 86.6,247.3 88.5,229.5 "/>
<polyline class="st1" points="86.6,247.3 91.6,243.7 93.4,229.5 "/>
<path class="st1" d="M446.9,190.2v-41.7c0-36.4,23.4-39.4,29.6-39.4s22.7,3.1,22.7,20.3c0,17.3-17.5,22.1-17.5,22.1v78h-421v-78
	c0,0-17.5-5-17.5-22.2S59.8,109,65.9,109s29.6,3.1,29.6,39.4v41.7"/>
<polyline class="st1" points="475.9,229.5 474,247.3 456.8,247.3 454.9,229.5 "/>
<polyline class="st1" points="456.8,247.3 451.8,243.7 450,229.5 "/>
<line class="st1" x1="95.5" y1="148.4" x2="95.5" y2="190"/>
<path class="st1" d="M65.9,109c6.2,0,29.6,3.1,29.6,39.4"/>
<path class="st1" d="M43.1,129.3c0-17.3,16.6-20.3,22.7-20.3"/>
<path class="st1" d="M60.7,151.4c0,0-17.5-4.9-17.5-22.1"/>
<line class="st2" x1="448.4" y1="93.4" x2="93.8" y2="94"/>
<polygon class="st3" points="96,90.3 90.1,93.8 96,97.1 "/>
<polygon class="st3" points="446.4,90 452.4,93.5 446.4,96.8 "/>
<rect x="183.6" y="111.1" class="st4" width="29.1" height="18.9"/>
<rect x="183.6" y="111.1" class="st5" width="29.1" height="18.9"/>
<line class="st5" x1="198.1" y1="93.8" x2="198.1" y2="111.1"/>
<line class="st6" x1="420.6" y1="166.7" x2="420.6" y2="83"/>
<polygon class="st7" points="424,86 420.5,80.1 417.2,86 "/>
<polygon class="st7" points="417.2,166 420.6,172 424,166 "/>
<line class="st6" x1="349.6" y1="166.7" x2="349.6" y2="75.2"/>
<polygon class="st7" points="353,77 349.5,71.1 346.2,77 "/>
<polygon class="st7" points="346.2,166 349.6,172 353,166 "/>
<polygon class="st3" points="121,174.6 115.1,178 121,181.5 "/>
<polygon class="st3" points="420.8,174.6 426.7,178 420.8,181.4 "/>
<rect x="360.4" y="112.5" class="st4" width="29.1" height="18.9"/>
<rect x="360.4" y="112.5" class="st8" width="29.1" height="18.9"/>
<line class="st8" x1="349.6" y1="121.9" x2="360.4" y2="121.9"/>
<polyline class="st1" points="426.5,174.1 447,190 95.5,190 116,174.1 "/>
<line class="st1" x1="489.6" y1="112.3" x2="456" y2="97.9"/>
<line class="st1" x1="86.4" y1="97.9" x2="52.8" y2="112.3"/>
<text transform="matrix(1 0 0 1 190.6424 125.2735)" class="st9 st10 st11">A</text>
<text transform="matrix(1 0 0 1 199.618 125.2735)" class="st9 st10 st11">1</text>
<text transform="matrix(1 0 0 1 366.3162 126.2329)" class="st9 st10 st11">A</text>
<text transform="matrix(1 0 0 1 375.2234 126.2329)" class="st9 st10 st11">4</text>
<rect x="436.5" y="112.5" class="st4" width="29.1" height="18.9"/>
<rect x="436.5" y="112.5" class="st8" width="29.1" height="18.9"/>
<line class="st8" x1="420.6" y1="121.9" x2="436.5" y2="121.9"/>
<text transform="matrix(1 0 0 1 442.1619 126.7124)" class="st9 st10 st11">A</text>
<text transform="matrix(1 0 0 1 451.2058 126.7124)" class="st9 st10 st11">5</text>
<rect x="183.6" y="185.7" class="st4" width="29.1" height="18.9"/>
<rect x="183.6" y="185.7" class="st5" width="29.1" height="18.9"/>
<text transform="matrix(1 0 0 1 189.5467 199.8863)" class="st9 st10 st11">A2</text>
<line class="st5" x1="198.1" y1="178.2" x2="198.1" y2="185.7"/>
<line class="st2" x1="421.7" y1="178" x2="119.8" y2="178"/>
<path class="st0" d="M86.2,97.9L86.2,97.9c-0.1-41.6,370.5-42.1,370.5-0.5"/>
<line class="st0" x1="116.1" y1="174.3" x2="426.3" y2="174.3"/>
</svg>
