<?xml version="1.0" encoding="utf-8"?>
<!-- Generator: Adobe Illustrator 27.6.1, SVG Export Plug-In . SVG Version: 6.00 Build 0)  -->
<svg version="1.1" id="Layer_1" xmlns="http://www.w3.org/2000/svg" xmlns:xlink="http://www.w3.org/1999/xlink" x="0px" y="0px"
	 viewBox="0 0 371.6 295.1" style="enable-background:new 0 0 371.6 295.1;" xml:space="preserve">
<style type="text/css">
	.st0{fill:none;stroke:#A7A8AB;stroke-width:2.741;stroke-linecap:round;stroke-linejoin:round;}
	.st1{fill:none;stroke:#010101;stroke-width:2.741;stroke-linecap:round;stroke-linejoin:round;}
	.st2{fill:none;stroke:#E82429;stroke-width:1.37;stroke-miterlimit:10;}
	.st3{fill:#E82429;}
	.st4{fill:#FFFFFF;}
	.st5{fill:none;stroke:#E82429;stroke-width:0.685;stroke-miterlimit:10;}
	.st6{fill:none;stroke:#65BF83;stroke-width:1.37;stroke-miterlimit:10;}
	.st7{fill:#65BF83;}
	.st8{fill:#010101;}
	.st9{font-family:'SetupGrotesk-Medium';}
	.st10{font-size:13.703px;}
	.st11{fill:none;stroke:#65BF83;stroke-width:0.685;stroke-miterlimit:10;}
</style>
<g>
	<polyline class="st0" points="86.6,217.4 88.5,235.2 105.7,235.2 107.6,217.4 	"/>
	<polyline class="st0" points="105.7,235.2 110.7,231.6 112.5,217.4 	"/>
	<path class="st0" d="M257,178.1v-41.7C257,100,280.4,97,286.6,97s22.7,3.1,22.7,20.3c0,17.3-17.5,22.1-17.5,22.1v78h-212v-78
		c0,0-17.5-5-17.5-22.2S78.9,96.9,85,96.9s29.6,3.1,29.6,39.4V178"/>
	<polyline class="st0" points="286,217.4 284.1,235.2 266.9,235.2 265,217.4 	"/>
	<polyline class="st0" points="266.9,235.2 261.9,231.6 260.1,217.4 	"/>
	<line class="st1" x1="135.2" y1="162.2" x2="236.4" y2="162.2"/>
	<line class="st0" x1="114.6" y1="136.3" x2="114.6" y2="177.9"/>
	<path class="st0" d="M85,96.9c6.2,0,29.6,3.1,29.6,39.4"/>
	<path class="st0" d="M62.2,117.2c0-17.3,16.6-20.3,22.7-20.3"/>
	<path class="st0" d="M79.8,139.3c0,0-17.5-4.9-17.5-22.1"/>
	<line class="st2" x1="258.5" y1="81.6" x2="112.9" y2="81.6"/>
	<polygon class="st3" points="114.1,78.2 108.2,81.7 114.1,85 	"/>
	<polygon class="st3" points="257.5,77.9 263.5,81.4 257.5,84.7 	"/>
	<rect x="142.7" y="99" class="st4" width="29.1" height="18.9"/>
	<rect x="142.7" y="99" class="st5" width="29.1" height="18.9"/>
	<line class="st5" x1="157.2" y1="81.7" x2="157.2" y2="99"/>
	<line class="st6" x1="230.7" y1="154.6" x2="230.7" y2="68"/>
	<polygon class="st7" points="234.1,71.3 230.6,65.4 227.3,71.3 	"/>
	<polygon class="st7" points="227.3,153.9 230.7,159.9 234.1,153.9 	"/>
	<polygon class="st3" points="140.1,162.5 134.2,165.9 140.1,169.4 	"/>
	<polygon class="st3" points="230.9,162.5 236.8,165.9 230.9,169.3 	"/>
	<polyline class="st0" points="236.6,162 257.1,177.9 114.6,177.9 135.1,162 	"/>
	<line class="st0" x1="299.7" y1="100.2" x2="266.1" y2="85.8"/>
	<line class="st0" x1="105.5" y1="85.8" x2="71.9" y2="100.2"/>
	<text transform="matrix(1 0 0 1 149.7881 113.1491)" class="st8 st9 st10">A</text>
	<text transform="matrix(1 0 0 1 158.7637 113.1491)" class="st8 st9 st10">1</text>
	<rect x="246.6" y="100.4" class="st4" width="29.1" height="18.9"/>
	<rect x="246.6" y="100.4" class="st11" width="29.1" height="18.9"/>
	<line class="st11" x1="230.7" y1="109.8" x2="246.6" y2="109.8"/>
	<text transform="matrix(1 0 0 1 252.3076 114.588)" class="st8 st9 st10">A</text>
	<text transform="matrix(1 0 0 1 261.3516 114.588)" class="st8 st9 st10">5</text>
	<rect x="145.7" y="173.6" class="st4" width="29.1" height="18.9"/>
	<rect x="145.7" y="173.6" class="st5" width="29.1" height="18.9"/>
	<text transform="matrix(1 0 0 1 151.6924 187.7619)" class="st8 st9 st10">A2</text>
	<line class="st5" x1="160.2" y1="166.1" x2="160.2" y2="173.6"/>
	<line class="st2" x1="231.8" y1="165.9" x2="138.9" y2="165.9"/>
	<path class="st1" d="M135.1,162v-41.7c0-36.3-23.4-34.6-29.6-34.6"/>
	<path class="st1" d="M266.1,85.8c-6.2,0-29.6-1.7-29.6,34.6v41.7"/>
	<path class="st1" d="M105.3,85.8L105.3,85.8c-0.1-34.1,161.4-34.6,161.5-0.5"/>
</g>
</svg>
