<?xml version="1.0" encoding="utf-8"?>
<!-- Generator: Adobe Illustrator 27.3.1, SVG Export Plug-In . SVG Version: 6.00 Build 0)  -->
<svg version="1.1" id="Layer_1" xmlns="http://www.w3.org/2000/svg" xmlns:xlink="http://www.w3.org/1999/xlink" x="0px" y="0px"
	 viewBox="0 0 792 792" style="enable-background:new 0 0 792 792;" xml:space="preserve">
<style type="text/css">
	.st0{fill:none;stroke:#A6A8AB;stroke-width:4;stroke-linecap:round;stroke-linejoin:round;}
	.st1{fill:none;stroke:#000000;stroke-width:4;stroke-linecap:round;stroke-linejoin:round;}
	.st2{fill:none;stroke:#EA1F27;stroke-width:2;stroke-miterlimit:10;}
	.st3{fill:#EA1F27;}
	.st4{fill:#FFFFFF;stroke:#EA1F27;stroke-miterlimit:10;}
	.st5{font-family:'SetupGrotesk-Medium';}
	.st6{font-size:20px;}
	.st7{fill:none;stroke:#EA1F27;stroke-miterlimit:10;}
	.st8{fill:none;stroke:#40DD8B;stroke-miterlimit:10;}
	.st9{fill:none;stroke:#40DD8B;stroke-width:2;stroke-miterlimit:10;}
	.st10{fill:#40DD8B;}
	.st11{fill:none;stroke:#000000;stroke-width:3;stroke-linecap:round;stroke-linejoin:round;}
</style>
<polyline class="st0" points="199.6,496.9 122.8,533.5 601.3,533.5 "/>
<g>
	<line class="st0" x1="597.7" y1="85.3" x2="391.6" y2="85.3"/>
	<line class="st0" x1="351.8" y1="107.4" x2="597.7" y2="107.4"/>
	<line class="st0" x1="601.3" y1="425.6" x2="401.5" y2="425.6"/>
	<path class="st0" d="M643.5,497"/>
	<path class="st0" d="M314.2,497"/>
	<path class="st0" d="M310.6,619.2"/>
	<path class="st0" d="M643.5,624.9"/>
	<polyline class="st0" points="256.8,619.2 265.1,701 344.3,701 352.7,619.2 	"/>
	<polyline class="st0" points="344.3,701 367,683.8 375.3,619.2 	"/>
	<polyline class="st1" points="347.5,104.6 400.9,85.3 343.6,85.3 148.5,153.1 207.1,153.1 	"/>
	<path class="st1" d="M207.1,153.1l140.4-48.5c0,0,34.9,28.2,53.4,321l-86.8,71.1"/>
	<polyline class="st1" points="199.5,497 148.5,153.1 207.1,153.1 314.2,497 	"/>
	<path class="st1" d="M199.5,501.7"/>
	<path class="st1" d="M217.5,624.9"/>
</g>
<g>
	<line class="st2" x1="392.1" y1="422.6" x2="319.2" y2="481.6"/>
	<polygon class="st3" points="317.6,475.4 312.3,484 322.3,484.2 	"/>
	<polygon class="st3" points="387.4,419.9 397.3,418.3 393.8,427.6 	"/>
</g>
<g>
	<rect x="324.4" y="404.6" class="st4" width="42.5" height="27.6"/>
	<text transform="matrix(1 0 0 1 335.355 425.57)" class="st5 st6">B1</text>
	<line class="st7" x1="345.6" y1="432.7" x2="345.6" y2="459.2"/>
</g>
<g>
	<rect x="186.6" y="312.8" class="st8" width="42.5" height="27.6"/>
	<text transform="matrix(1 0 0 1 197.575 333.64)" class="st5 st6">E1</text>
	<line class="st8" x1="254.6" y1="328" x2="229.1" y2="328"/>
</g>
<g>
	<line class="st2" x1="311.1" y1="504.6" x2="206.1" y2="504.6"/>
	<polygon class="st3" points="207.5,499.6 198.8,504.6 207.5,509.6 	"/>
	<polygon class="st3" points="307.4,499.6 316,504.6 307.4,509.6 	"/>
</g>
<g>
	<rect x="235.4" y="524.4" class="st4" width="42.5" height="27.6"/>
	<text transform="matrix(1 0 0 1 243.0849 545.33)" class="st5 st6">C</text>
	<text transform="matrix(1 0 0 1 258.8649 545.33)" class="st5 st6">2</text>
	<line class="st7" x1="256.6" y1="504.6" x2="256.6" y2="524.4"/>
</g>
<g>
	<line class="st9" x1="305.9" y1="489.3" x2="201" y2="158.1"/>
	<polygon class="st10" points="207.1,161.7 199.7,155 197.6,164.8 	"/>
	<polygon class="st10" points="309,485.5 307.3,493.8 301,488.1 	"/>
</g>
<g>
	<path class="st9" d="M362.1,110.9"/>
	<path class="st9" d="M411.8,416.4"/>
	<polygon class="st10" points="368.7,116.2 361,109.7 359.3,119.5 	"/>
	<polygon class="st10" points="416,415.4 412.1,422.9 407.5,415.8 	"/>
</g>
<g>
	<line class="st2" x1="339.4" y1="115.2" x2="218.2" y2="157.4"/>
	<polygon class="st3" points="218.4,152 211.9,159.7 221.7,161.4 	"/>
	<polygon class="st3" points="336,111.3 346,112.6 339.9,120.5 	"/>
</g>
<g>
	<rect x="261.5" y="156" class="st4" width="42.5" height="27.6"/>
	<text transform="matrix(1 0 0 1 271.665 176.88)" class="st5 st6">B</text>
	<text transform="matrix(1 0 0 1 284.465 176.88)" class="st5 st6">2</text>
	<line class="st7" x1="282.8" y1="136.1" x2="282.8" y2="156"/>
</g>
<g>
	<line class="st2" x1="200.4" y1="145.1" x2="153.2" y2="145.1"/>
	<polygon class="st3" points="155.5,140.1 146.8,145.2 155.5,150.1 	"/>
	<polygon class="st3" points="197.9,140.1 206.6,145.2 197.9,150.1 	"/>
</g>
<g>
	<rect x="147.4" y="176.5" class="st4" width="42.5" height="27.6"/>
	<text transform="matrix(1 0 0 1 155.065 197.43)" class="st5 st6">C1</text>
	<line class="st7" x1="168.6" y1="145.1" x2="168.6" y2="176.5"/>
</g>
<g>
	<rect x="420.3" y="253.2" class="st8" width="42.5" height="27.6"/>
	<text transform="matrix(1 0 0 1 429.636 274.07)" class="st5 st6">E2</text>
	<line class="st8" x1="420.3" y1="267" x2="396" y2="267"/>
</g>
<path class="st11" d="M313.3,619.2"/>
<path class="st11" d="M314.2,497"/>
<path class="st9" d="M362.8,115.9c0,0,26.8,31.1,49.1,302.4"/>
<polyline class="st0" points="122.8,533.5 122.8,617.7 601.3,617.7 "/>
<line class="st1" x1="199.5" y1="497" x2="314.2" y2="497"/>
</svg>
