<?xml version="1.0" encoding="UTF-8"?>
<svg id="Layer_1" data-name="Layer 1" xmlns="http://www.w3.org/2000/svg" viewBox="0 0 658.09 224.94">
  <defs>
    <style>
      .cls-1 {
        fill: #40dd8b;
      }

      .cls-2 {
        letter-spacing: -.01em;
      }

      .cls-3 {
        letter-spacing: -.02em;
      }

      .cls-4, .cls-5, .cls-6, .cls-7, .cls-8, .cls-9, .cls-10, .cls-11 {
        fill: none;
      }

      .cls-4, .cls-5, .cls-7, .cls-8, .cls-10, .cls-11, .cls-12, .cls-13, .cls-14 {
        stroke-miterlimit: 10;
      }

      .cls-4, .cls-6 {
        stroke: #000;
      }

      .cls-4, .cls-6, .cls-7, .cls-9, .cls-14 {
        stroke-width: 4px;
      }

      .cls-5, .cls-8 {
        stroke-width: 2px;
      }

      .cls-5, .cls-11, .cls-13 {
        stroke: #40dd8b;
      }

      .cls-6, .cls-9 {
        stroke-linecap: round;
        stroke-linejoin: round;
      }

      .cls-15 {
        letter-spacing: -.03em;
      }

      .cls-7, .cls-9, .cls-14 {
        stroke: #a6a8ab;
      }

      .cls-16 {
        letter-spacing: 0em;
      }

      .cls-17 {
        fill: #eb2027;
      }

      .cls-18 {
        letter-spacing: -.02em;
      }

      .cls-8 {
        stroke: #ec1c24;
      }

      .cls-10, .cls-12 {
        stroke: #ea1f27;
      }

      .cls-19 {
        fill: #ec1c24;
      }

      .cls-12, .cls-13 {
        fill: #fff;
      }

      .cls-20 {
        font-family: SetupGrotesk-Medium, 'Setup Grotesk';
        font-size: 20px;
        font-weight: 500;
      }

      .cls-14 {
        fill: #a6a8ab;
      }
    </style>
  </defs>
  <line class="cls-7" x1="592.67" y1="25.28" x2="592.58" y2="121.78"/>
  <line class="cls-7" x1="25.35" y1="121.78" x2="25.35" y2="25.28"/>
  <line class="cls-14" x1="68.17" y1="25.28" x2="67.65" y2="121.78"/>
  <polyline class="cls-9" points="90.87 98.38 90.87 11.58 527.67 11.58"/>
  <g>
    <polyline class="cls-9" points="67.65 121.78 68.17 25.28 90.87 11.58"/>
    <polyline class="cls-9" points="527.67 11.58 550.37 25.28 592.67 25.28 548.62 2 71.82 2 25.35 25.28 68.17 25.28"/>
    <polyline class="cls-9" points="550.37 121.78 550.37 25.28 527.67 11.58 527.67 98.38"/>
    <line class="cls-6" x1="90.14" y1="98.38" x2="527.16" y2="98.38"/>
    <line class="cls-6" x1="90.14" y1="98.38" x2="68.87" y2="121.78"/>
    <line class="cls-4" x1="526.97" y1="98.25" x2="550.18" y2="121.78"/>
  </g>
  <line class="cls-6" x1="68.87" y1="121.78" x2="23.73" y2="121.78"/>
  <polyline class="cls-6" points="592.58 121.78 613.17 138.36 2 138.36 23.73 121.78"/>
  <line class="cls-6" x1="592.58" y1="121.78" x2="550.18" y2="121.78"/>
  <polyline class="cls-9" points="19.72 189.49 21.82 209.79 41.32 209.79 43.42 189.49"/>
  <polyline class="cls-9" points="41.32 209.79 46.92 205.59 49.02 189.49"/>
  <polyline class="cls-9" points="581.8 187.36 579.7 210.11 560.2 210.11 558.1 187.36"/>
  <polyline class="cls-9" points="560.2 210.11 554.6 205.4 552.5 187.36"/>
  <polyline class="cls-6" points="613.17 138.36 610.53 187.36 5.28 187.36 2 138.36"/>
  <g id="mDcm">
    <g>
      <polyline class="cls-8" points="606.97 150.88 535.27 150.88 20.17 150.88 11.57 150.88"/>
      <polygon class="cls-17" points="11.57 148.38 6.97 150.88 11.57 153.48 11.57 148.38"/>
      <polygon class="cls-19" points="604.67 153.48 609.27 150.88 604.67 148.38 604.67 153.48"/>
    </g>
  </g>
  <g id="mA2cm">
    <g>
      <polyline class="cls-8" points="96.06 90.93 250.73 90.93 517.13 90.93 523.1 90.93"/>
      <polygon class="cls-17" points="520.8 93.48 525.4 90.98 520.8 88.38 520.8 93.48"/>
      <polygon class="cls-17" points="96.73 88.38 93.13 90.98 96.73 93.48 96.73 88.38"/>
    </g>
  </g>
  <g id="mB1cm">
    <g>
      <polygon class="cls-1" points="528.85 103.22 523.86 101.49 525.04 106.65 528.85 103.22"/>
      <polygon class="cls-1" points="540.28 122.18 545.23 124.01 544.13 118.93 540.28 122.18"/>
    </g>
    <line class="cls-5" x1="526.53" y1="104.33" x2="543.33" y2="121.43"/>
  </g>
  <g id="mC3cm">
    <g>
      <line class="cls-11" x1="613.92" y1="133.14" x2="598.56" y2="120.89"/>
      <polygon class="cls-1" points="601.11 119.76 596.01 118.75 597.76 123.69 601.11 119.76"/>
      <polygon class="cls-1" points="611.3 134.46 616.53 135.38 614.6 130.42 611.3 134.46"/>
    </g>
  </g>
  <g id="mC3cm-2" data-name="mC3cm">
    <g>
      <line class="cls-8" x1="589.18" y1="126.02" x2="553.15" y2="125.95"/>
      <polygon class="cls-17" points="554.98 123.47 550.37 125.88 554.83 128.63 554.98 123.47"/>
      <polygon class="cls-17" points="588.81 128.63 593.47 126.07 588.86 123.41 588.81 128.63"/>
    </g>
  </g>
  <g id="mH3cm">
    <line class="cls-5" x1="304.66" y1="180.96" x2="304.74" y2="146.28"/>
    <polygon class="cls-1" points="308.76 147.89 304.76 141.49 300.76 147.89 308.76 147.89"/>
    <polygon class="cls-1" points="300.76 178.37 304.76 184.77 308.76 178.37 300.76 178.37"/>
  </g>
  <line class="cls-11" x1="239.23" y1="162.86" x2="304.76" y2="162.86"/>
  <rect class="cls-13" x="197.61" y="149.06" width="42.5" height="27.6"/>
  <text class="cls-20" transform="translate(204.2 170.15)"><tspan class="cls-3" x="0" y="0">C</tspan><tspan class="cls-16" x="15.78" y="0">3</tspan></text>
  <line class="cls-10" x1="115.91" y1="193.54" x2="115.91" y2="150.93"/>
  <rect class="cls-12" x="94.66" y="193.54" width="42.5" height="27.6"/>
  <g>
    <line class="cls-10" x1="304.66" y1="90.93" x2="304.66" y2="74.02"/>
    <rect class="cls-12" x="283.41" y="46.42" width="42.5" height="27.6"/>
  </g>
  <line class="cls-11" x1="481.2" y1="114.83" x2="536.84" y2="114.83"/>
  <rect class="cls-11" x="438.7" y="104.57" width="42.5" height="27.6"/>
  <line class="cls-10" x1="571.52" y1="126.05" x2="571.52" y2="98.98"/>
  <rect class="cls-12" x="550.27" y="71.38" width="42.5" height="27.6"/>
  <line class="cls-11" x1="605.93" y1="127.01" x2="637.31" y2="127.01"/>
  <rect class="cls-11" x="615.09" y="84.14" width="42.5" height="27.6"/>
  <line class="cls-11" x1="636.8" y1="111.74" x2="636.8" y2="127.01"/>
  <text class="cls-20" transform="translate(449.61 124.8)"><tspan x="0" y="0">B1</tspan></text>
  <text class="cls-20" transform="translate(293.21 67.11)"><tspan class="cls-15" x="0" y="0">A</tspan><tspan x="13.02" y="0">1</tspan></text>
  <text class="cls-20" transform="translate(107.77 215.4)"><tspan x="0" y="0">D</tspan></text>
  <text class="cls-20" transform="translate(621.62 105.01)"><tspan class="cls-18" x="0" y="0">C</tspan><tspan x="15.76" y="0">4</tspan></text>
  <text class="cls-20" transform="translate(559 91.86)"><tspan class="cls-2" x="0" y="0">B</tspan><tspan x="12.8" y="0">2</tspan></text>
</svg>