<?xml version="1.0" encoding="utf-8"?>
<!-- Generator: Adobe Illustrator 27.6.1, SVG Export Plug-In . SVG Version: 6.00 Build 0)  -->
<svg version="1.1" id="Layer_1" xmlns="http://www.w3.org/2000/svg" xmlns:xlink="http://www.w3.org/1999/xlink" x="0px" y="0px"
	 viewBox="0 0 729 729" style="enable-background:new 0 0 729 729;" xml:space="preserve">
<style type="text/css">
	.st0{fill:none;stroke:#65BF83;stroke-width:2.5;stroke-miterlimit:10;}
	.st1{fill:#65BF83;}
	.st2{fill:none;stroke:#E82429;stroke-width:2.5;stroke-miterlimit:10;}
	.st3{fill:#E82429;}
	.st4{fill:#FFFFFF;}
	.st5{fill:none;stroke:#EA2127;stroke-width:2.5;stroke-miterlimit:10;}
	.st6{fill:#EA2127;}
	.st7{fill:none;stroke:#A7A8AB;stroke-width:2.5;stroke-linecap:round;stroke-linejoin:round;}
	.st8{fill:none;stroke:#B3B3B3;stroke-width:2.5;stroke-linecap:round;stroke-linejoin:round;}
	.st9{fill:none;stroke:#010101;stroke-width:2.5;stroke-linecap:round;stroke-linejoin:round;}
</style>
<rect x="-670.1" y="371.8" class="st0" width="41.2" height="26.7"/>
<line class="st0" x1="-695.3" y1="385.1" x2="-670.1" y2="385.1"/>
<text transform="matrix(1 0 0 1 -662.5521 391.8951)" style="font-family:'SetupGrotesk-Medium'; font-size:19.3693px;">H2</text>
<line class="st0" x1="-678.3" y1="527.2" x2="-709.4" y2="253.4"/>
<polygon class="st1" points="-704.4,256 -710.2,248.9 -714,257.1 "/>
<polygon class="st1" points="-683.1,526.6 -677.2,534.4 -673.5,525.5 "/>
<line class="st2" x1="-126.9" y1="261.5" x2="-692.5" y2="261.8"/>
<polygon class="st3" points="-689.1,256.9 -697.6,261.8 -689.2,266.6 "/>
<polygon class="st3" points="-130.5,256.6 -122,261.5 -130.5,266.3 "/>
<rect x="-428.3" y="282.2" class="st4" width="41.2" height="26.7"/>
<rect x="-428.3" y="282.2" class="st2" width="41.2" height="26.7"/>
<text transform="matrix(1 0 0 1 -419.3827 302.4439)" style="font-family:'SetupGrotesk-Medium'; font-size:19.3693px;">G1</text>
<line class="st2" x1="-408.2" y1="262.3" x2="-408.2" y2="281.8"/>
<rect x="-189.4" y="376.6" class="st0" width="41.2" height="26.7"/>
<line class="st0" x1="-148.3" y1="390" x2="-121.8" y2="390"/>
<text transform="matrix(1 0 0 1 -179.8202 396.7955)" style="font-family:'SetupGrotesk-Medium'; font-size:19.3693px;">H1</text>
<line class="st0" x1="-136.5" y1="529" x2="-107.5" y2="255.3"/>
<polygon class="st1" points="-103.1,258.7 -107.6,250.7 -112.8,258.2 "/>
<polygon class="st1" points="-141,525.3 -137.1,534.2 -131.4,526.3 "/>
<line class="st2" x1="-156.2" y1="524.1" x2="-664.4" y2="524.4"/>
<polygon class="st3" points="-658.7,519.6 -667.1,524.4 -658.8,529.2 "/>
<polygon class="st3" points="-158,519.3 -149.5,524.2 -158,529 "/>
<rect x="-430.9" y="480.5" class="st2" width="41.2" height="26.7"/>
<text transform="matrix(1 0 0 1 -425.0062 500.7623)" style="font-family:'SetupGrotesk-Medium'; font-size:19.3693px;">G</text>
<text transform="matrix(1 0 0 1 -409.5487 500.7623)" style="font-family:'SetupGrotesk-Medium'; font-size:19.3693px;">2</text>
<line class="st2" x1="-410.2" y1="507.2" x2="-410.2" y2="524.4"/>
<polyline class="st0" points="-654.4,577.6 -654.4,575 -654.4,541.7 -654.4,543.5 "/>
<polygon class="st1" points="-649.5,546.1 -654.4,537.4 -659.2,546.1 "/>
<polygon class="st1" points="-659.2,571.8 -654.4,580.5 -649.6,571.8 "/>
<line class="st0" x1="-693" y1="559.7" x2="-653.6" y2="559.7"/>
<rect x="-734.2" y="546.3" class="st0" width="41.2" height="26.7"/>
<text transform="matrix(1 0 0 1 -725.493 566.8765)" style="font-family:'SetupGrotesk-Medium'; font-size:19.3693px;">H3</text>
<line class="st5" x1="-633.8" y1="228.6" x2="-681.6" y2="228.6"/>
<polygon class="st6" points="-679.4,223.8 -687.8,228.6 -679.4,233.5 "/>
<polygon class="st6" points="-636,223.8 -627.6,228.6 -636,233.5 "/>
<line class="st0" x1="-697.2" y1="234.5" x2="-705.9" y2="173.6"/>
<polygon class="st1" points="-700.6,176.2 -706.6,168.6 -710.2,177.6 "/>
<polygon class="st1" points="-692.9,228.9 -696.3,238 -702.5,230.5 "/>
<line class="st5" x1="-666.4" y1="169.6" x2="-692.9" y2="169.7"/>
<polygon class="st6" points="-687.7,164.8 -696.1,169.7 -687.7,174.5 "/>
<polygon class="st6" points="-666.9,164.6 -658.5,169.6 -666.9,174.4 "/>
<line class="st0" x1="-620.5" y1="222.2" x2="-649" y2="170.3"/>
<polygon class="st1" points="-642.5,172.1 -650.9,167.2 -650.9,176.9 "/>
<polygon class="st1" points="-617.2,218 -616.7,227.8 -625.3,223.3 "/>
<rect x="-674.9" y="265.5" class="st4" width="41.2" height="26.7"/>
<rect x="-674.9" y="265.5" class="st5" width="41.2" height="26.7"/>
<line class="st5" x1="-656.8" y1="227.8" x2="-656.8" y2="265.5"/>
<text transform="matrix(1 0 0 1 -663.4716 285.7223)" style="font-family:'SetupGrotesk-Medium'; font-size:19.3693px;">F</text>
<text transform="matrix(1 0 0 1 -652.4691 285.7223)" style="font-family:'SetupGrotesk-Medium'; font-size:19.3693px;">1</text>
<line class="st0" x1="-719.7" y1="204.1" x2="-702.5" y2="204.1"/>
<rect x="-760.8" y="190.8" class="st4" width="41.2" height="26.7"/>
<rect x="-760.8" y="190.8" class="st0" width="41.2" height="26.7"/>
<text transform="matrix(1 0 0 1 -751.8046 210.7423)" style="font-family:'SetupGrotesk-Medium'; font-size:19.3693px;">F2</text>
<rect x="-698" y="122.4" class="st4" width="41.2" height="26.7"/>
<rect x="-698" y="122.4" class="st5" width="41.2" height="26.7"/>
<line class="st5" x1="-677.4" y1="149.1" x2="-677.4" y2="169.7"/>
<text transform="matrix(1 0 0 1 -687.7137 142.6788)" style="font-family:'SetupGrotesk-Medium'; font-size:19.3693px;">F3</text>
<line class="st0" x1="-634" y1="196.4" x2="-616.7" y2="196.4"/>
<rect x="-617.1" y="183" class="st4" width="41.2" height="26.7"/>
<rect x="-617.1" y="183" class="st0" width="41.2" height="26.7"/>
<text transform="matrix(1 0 0 1 -607.1366 202.8516)" style="font-family:'SetupGrotesk-Medium'; font-size:19.3693px;">F</text>
<text transform="matrix(1 0 0 1 -597.0258 202.8516)" style="font-family:'SetupGrotesk-Medium'; font-size:19.3693px;">4</text>
<line class="st2" x1="-137.8" y1="228.8" x2="-613.7" y2="228.6"/>
<polygon class="st3" points="-608.3,223.8 -616.7,228.7 -608.3,233.5 "/>
<polygon class="st3" points="-140.7,223.9 -132.3,228.8 -140.7,233.6 "/>
<rect x="-403.4" y="183.3" class="st4" width="41.2" height="26.7"/>
<rect x="-403.4" y="183.3" class="st2" width="41.2" height="26.7"/>
<text transform="matrix(1 0 0 1 -394.8192 203.9688)"><tspan x="0" y="0" style="font-family:'SetupGrotesk-Medium'; font-size:19.3693px;">B</tspan><tspan x="12.4" y="0" style="font-family:'SetupGrotesk-Medium'; font-size:19.3693px;">2</tspan></text>
<line class="st2" x1="-382.7" y1="209.7" x2="-382.7" y2="229.2"/>
<g>
	<polyline class="st7" points="211.1,540.2 206.4,584.7 163.2,584.7 158.5,540.2 	"/>
	<polyline class="st7" points="620.7,540.2 616.1,584.7 572.8,584.7 568.1,540.2 	"/>
	<line class="st8" x1="568.1" y1="314.6" x2="288.3" y2="314.6"/>
	<path class="st8" d="M205.3,166.7h346.3c1.7,0,3.4,0.6,4.8,1.7l7.9,6.6H209h353.1c3.3,0,6.1,2.7,6.1,6.1v133.6"/>
	<path class="st9" d="M180.2,132.7l-45.7,33.8c-4.5,3.3-5.7,9.5-3.1,14.3l33.6,60"/>
	<path class="st9" d="M246.2,240.7L186.4,136c-2-3.6-5.5-5.5-9.5-5.5h-26.1l-57.2,36.7c-4.8,3.1-7.6,8.8-6.6,14.6l52.3,357.7"/>
	<path class="st9" d="M205.3,256.2"/>
	<path class="st9" d="M669.7,256.2"/>
	<path class="st9" d="M194.1,241.1"/>
	<polyline class="st9" points="139.4,539.5 640,539.5 651.5,429.7 	"/>
	<polyline class="st9" points="651.5,429.7 270.7,429.7 136,189 	"/>
	<path class="st9" d="M180.2,132.7"/>
	<path class="st9" d="M130.1,169.5"/>
	<line class="st7" x1="90.9" y1="176.3" x2="125.9" y2="176.3"/>
	<line class="st9" x1="651.5" y1="429.7" x2="568.1" y2="314.6"/>
	<line class="st9" x1="288.3" y1="314.6" x2="223.5" y2="200.9"/>
	<path class="st9" d="M288.3,314.6l-17.6,115.1"/>
</g>
</svg>
