<?xml version="1.0" encoding="utf-8"?>
<!-- Generator: Adobe Illustrator 25.0.1, SVG Export Plug-In . SVG Version: 6.00 Build 0)  -->
<svg version="1.1" id="Layer_1" xmlns="http://www.w3.org/2000/svg" xmlns:xlink="http://www.w3.org/1999/xlink" x="0px" y="0px"
	 viewBox="0 0 549.5 374.8" style="enable-background:new 0 0 549.5 374.8;" xml:space="preserve">
<rect width="100%" height="100%" fill="#FFFFFF"/>
<style type="text/css">
	.st0{fill:none;stroke:#A6A6A6;stroke-width:2.2;stroke-linecap:round;stroke-linejoin:round;stroke-dasharray:5,5;}
	.st1{fill:none;stroke:#4F4F4F;stroke-width:2;stroke-linecap:round;stroke-linejoin:round;}
	.st2{fill:#FFFFFF;stroke:#52CFBD;stroke-width:2;stroke-miterlimit:10;}
	.st3{fill:#626F81;}
	.st4{font-family:'Helvetica';}
	.st5{font-size:11.6011px;}
	.st6{fill:none;stroke:#52CFBD;stroke-width:2;stroke-miterlimit:10;}
	.st7{fill:none;stroke:#52CFBD;stroke-width:2.2;stroke-miterlimit:10;}
	.st8{fill:#52CFBD;}
	.st9{fill:#FFFFFF;}
	.st10{fill:none;stroke:#52CFBD;stroke-width:2.2;stroke-miterlimit:10.0016;}
	.st11{fill:#617082;}
	.st12{font-family:'CoreSansDS35Regular';}
	.st13{font-size:12.7612px;}
	.st14{fill:#FFFFFF;stroke:#DE6969;stroke-width:2;stroke-miterlimit:10;}
	.st15{fill:none;stroke:#DE6969;stroke-width:2;stroke-miterlimit:10;}
	.st16{fill:none;stroke:#DE6969;stroke-width:2.2;stroke-miterlimit:10;}
	.st17{fill:#DE6969;}
	.st18{fill:none;stroke:#DE6969;stroke-width:2.2;stroke-linecap:round;stroke-linejoin:round;stroke-miterlimit:10;}
	.st19{fill:none;stroke:#DE6969;stroke-width:2.2;stroke-linecap:round;stroke-linejoin:round;stroke-miterlimit:10.0002;}
</style>
<g>
	<g>
		<g>
			<line class="st0" x1="466.6" y1="255.1" x2="502.6" y2="213.2"/>
			<line class="st0" x1="394.9" y1="296.1" x2="466.6" y2="254.7"/>
			<line class="st0" x1="466.6" y1="255.1" x2="448.4" y2="244.5"/>
		</g>
		<path class="st1" d="M359,275.4"/>
		<polyline class="st1" points="323,296.2 430.8,358.5 430.8,358.5 		"/>
		<polyline class="st1" points="538.5,296.1 538.5,306.6 520.6,316.9 		"/>
		<polyline class="st1" points="520.6,306.6 520.6,316.9 511.5,311.7 		"/>
		<polyline class="st1" points="448.7,348.2 448.7,358.4 430.7,368.8 		"/>
		<line class="st1" x1="349.9" y1="311.7" x2="340.8" y2="316.9"/>
		<polyline class="st1" points="340.8,306.5 340.8,316.9 322.9,306.5 		"/>
		<path class="st1" d="M322.9,254.7"/>
		<path class="st1" d="M412.7,161.6"/>
		<path class="st1" d="M394.9,213.2"/>
		<polyline class="st1" points="323,254.7 394.8,296.5 412.6,265.1 502.6,213.2 412.7,161.4 		"/>
		<polyline class="st1" points="430.7,151 538.5,213.3 430.8,275.1 430.7,275.1 430.7,358.4 430.7,368.8 412.7,358.4 412.7,348.2
			"/>
		<polyline class="st1" points="430.7,358.5 538.5,296.2 538.5,213.1 		"/>
		<line class="st1" x1="430.7" y1="275.1" x2="412.6" y2="265.1"/>
		<line class="st1" x1="448.4" y1="244.5" x2="394.9" y2="213.2"/>
	</g>
	<path class="st1" d="M430.8,151L197.3,16.2l-18,10.5l-17.9,51.6 M394.8,213.1L161.3,78.4 M71.5,67.9L179.3,6l18,10.2 M322.9,296.1
		L322.9,296.1L71.5,150.9v-83l17.9,10.5v41.4L323,254.7 M322.9,296.1l0.1,10.4l-18-10.4v-10.4 M89.4,78.3l89.8-51.6 M89.5,171.7
		l9-5.2 M71.5,151v10.4l18,10.4v-10.4 M89.4,119.9l71.9-41.6 M179.2,26.7l233.5,134.7"/>
</g>
<g id="bB1cm">
	<rect x="116.3" y="113.9" class="st2" width="52.1" height="16.4"/>
	<text transform="matrix(1 0 0 1 121.3827 125.8092)" class="st3 st4 st5">0000.00</text>
	<line class="st6" x1="132.8" y1="113.7" x2="132.8" y2="95.2"/>
</g>
<g id="mB1cm">
	<line class="st7" x1="156.7" y1="81" x2="94.5" y2="117"/>
	<polygon class="st8" points="153.9,78.6 161.3,78.5 157.5,85 	"/>
	<polygon class="st8" points="93.5,113.2 89.8,119.6 97.3,119.6 	"/>
</g>
<g id="cB1cm">
	<g>
		<path class="st9" d="M132.7,83.1c5.9,0,10.6,4.7,10.6,10.6s-4.7,10.6-10.6,10.6s-10.6-4.7-10.6-10.6
			C122.1,87.9,126.8,83.1,132.7,83.1"/>

			<ellipse transform="matrix(0.1602 -0.9871 0.9871 0.1602 18.945 209.6705)" class="st10" cx="132.7" cy="93.7" rx="10.6" ry="10.6"/>
	</g>
	<text transform="matrix(1 0 0 1 125.7751 97.6959)" class="st11 st12 st13">B1</text>
</g>
<g id="bA1cm">
	<rect x="307.6" y="55.6" class="st14" width="52.1" height="16.4"/>
	<text transform="matrix(1 0 0 1 312.7327 67.4701)" class="st3 st4 st5">0000.00</text>
	<g>
		<line class="st15" x1="333.7" y1="72" x2="308.2" y2="100.6"/>
	</g>
</g>
<g id="bA2cm">
	<rect x="236.2" y="165.7" class="st14" width="52.1" height="16.4"/>
	<text transform="matrix(1 0 0 1 241.2827 177.5768)" class="st3 st4 st5">0000.00</text>
	<g>
		<line class="st15" x1="286.4" y1="153.5" x2="262.2" y2="165.9"/>
	</g>
</g>
<g id="bC1cm">
	<rect x="11.3" y="109.7" class="st14" width="52.1" height="16.4"/>
	<text transform="matrix(1 0 0 1 16.7432 121.521)" class="st3 st4 st5">0000.00</text>
	<polyline class="st15" points="80.2,115.7 80.2,118.3 63.4,118.3 	"/>
</g>
<g id="bB2cm">
	<rect x="70.3" y="9.8" class="st2" width="52.1" height="16.4"/>
	<text transform="matrix(1 0 0 1 75.3827 21.7089)" class="st3 st4 st5">0000.00</text>
	<polyline class="st6" points="122.9,18 133.6,18 133.6,52.9 	"/>
</g>
<g id="mB2cm">
	<line class="st7" x1="175.7" y1="28.8" x2="94.4" y2="75.4"/>
	<polygon class="st8" points="172.1,26.7 179.4,26.7 175.8,33.1 	"/>
	<polygon class="st8" points="93.4,71.6 89.7,78 97.2,78 	"/>
</g>
<g id="cB2cm">
	<g>
		<path class="st9" d="M133.6,42.4c5.9,0,10.6,4.7,10.6,10.6s-4.7,10.6-10.6,10.6S123,58.9,123,53S127.8,42.4,133.6,42.4"/>

			<ellipse transform="matrix(0.1602 -0.9871 0.9871 0.1602 59.7917 176.2798)" class="st10" cx="133.5" cy="53" rx="10.6" ry="10.6"/>
	</g>
	<text transform="matrix(1 0 0 1 125.7751 56.9629)" class="st11 st12 st13">B2</text>
</g>
<g id="mA1cm">
	<line id="mA1cm" class="st16" x1="498" y1="210.5" x2="183.8" y2="29.4"/>
	<polygon class="st17" points="498.9,206.7 502.7,213.2 495.2,213.2 	"/>
	<polygon class="st17" points="186.6,26.7 179.2,26.7 183,33.2 	"/>
</g>
<g id="cA1cm">
	<g>
		<path class="st9" d="M306.1,89.9c5.9,0,10.6,4.7,10.6,10.6s-4.7,10.6-10.6,10.6c-5.9,0-10.6-4.7-10.6-10.6
			C295.4,94.7,300.2,89.9,306.1,89.9"/>
		<circle class="st18" cx="306.1" cy="100.6" r="10.6"/>
	</g>
	<text transform="matrix(1 0 0 1 299.1195 104.5127)" class="st11 st12 st13">A1</text>
</g>
<g id="bA3cm">
	<g>
		<line class="st15" x1="334.7" y1="148.2" x2="316.3" y2="137.9"/>
	</g>
	<rect x="331.4" y="148.2" class="st14" width="52.1" height="16.4"/>
	<text transform="matrix(1 0 0 1 336.4827 160.0593)" class="st3 st4 st5">0000.00</text>
</g>
<g id="mA2cm">
	<line id="mA2cm" class="st16" x1="462.1" y1="252.3" x2="166" y2="81"/>
	<polygon class="st17" points="463,248.5 466.7,255 459.3,255 	"/>
	<polygon class="st17" points="168.7,78.3 161.4,78.3 165.1,84.8 	"/>
</g>
<g id="cA2cm">
	<g>
		<path class="st9" d="M288.2,142c5.9,0,10.6,4.7,10.6,10.6s-4.7,10.6-10.6,10.6s-10.6-4.7-10.6-10.6
			C277.6,146.8,282.3,142,288.2,142"/>
		<circle class="st18" cx="288.2" cy="152.6" r="10.6"/>
	</g>
	<text transform="matrix(1 0 0 1 281.3195 156.608)" class="st11 st12 st13">A2</text>
</g>
<g id="mA3cm">
	<line class="st16" x1="322.7" y1="116.1" x2="308.4" y2="157.8"/>
	<polygon class="st17" points="319.2,115.9 324.8,110.9 326.1,118.3 	"/>
	<polygon class="st17" points="305.3,155.5 306.7,162.9 312.3,158 	"/>
</g>
<g id="cA3cm">
	<g>
		<path class="st9" d="M316.2,125.5c5.9,0,10.6,4.7,10.6,10.6s-4.7,10.6-10.6,10.6c-5.9,0-10.6-4.7-10.6-10.6
			C305.5,130.3,310.4,125.5,316.2,125.5"/>
		<circle class="st18" cx="316.2" cy="136.1" r="10.6"/>
	</g>
	<text transform="matrix(1 0 0 1 309.2195 140.1257)" class="st11 st12 st13">A3</text>
</g>
<g id="mC1cm">
	<line class="st16" x1="85.4" y1="118.3" x2="75" y2="112.7"/>
	<polygon class="st17" points="86.2,114.5 90.2,120.8 82.7,121 	"/>
	<polygon class="st17" points="77.7,109.9 70.3,110.1 74.2,116.4 	"/>
</g>
<g id="cC1cm">
	<polyline class="st15" points="80.2,115.7 80.2,118.3 63.4,118.3 	"/>
	<g>
		<path class="st9" d="M55.3,107c5.9,0,10.6,4.7,10.6,10.6s-4.7,10.6-10.6,10.6s-10.6-4.7-10.6-10.6S49.5,107,55.3,107"/>
		<circle class="st18" cx="55.3" cy="117.6" r="10.6"/>
	</g>
	<text transform="matrix(1 0 0 1 48.07 121.4866)" class="st11 st12 st13">C1</text>
</g>
<g id="bC2cm">
	<rect x="11" y="140" class="st14" width="52.1" height="16.4"/>
	<text transform="matrix(1 0 0 1 16.4424 151.8302)" class="st3 st4 st5">0000.00</text>
	<line class="st15" x1="62.9" y1="148.1" x2="89.8" y2="148.1"/>
</g>
<g id="cC2cm">
	<line class="st15" x1="62.9" y1="148.1" x2="89.8" y2="148.1"/>
	<g>
		<path class="st9" d="M55,138.5c5.9,0,10.6,4.7,10.6,10.6s-4.7,10.6-10.6,10.6s-10.6-4.7-10.6-10.6C44.4,143.3,49.1,138.5,55,138.5
			"/>
		<ellipse class="st19" cx="55" cy="149.2" rx="10.6" ry="10.6"/>
	</g>
	<text transform="matrix(1 0 0 1 48.404 153.0646)" class="st11 st12 st13">C2</text>
</g>
<g id="mC2cm">
	<line class="st16" x1="89.7" y1="126.4" x2="89.7" y2="155.9"/>
	<polygon class="st17" points="86,127.5 89.7,121 93.3,127.5 	"/>
	<polygon class="st17" points="86,154.8 89.7,161.2 93.3,154.8 	"/>
</g>
</svg>
