<?xml version="1.0" encoding="utf-8"?>
<!-- Generator: Adobe Illustrator 27.3.1, SVG Export Plug-In . SVG Version: 6.00 Build 0)  -->
<svg version="1.1" id="Layer_1" xmlns="http://www.w3.org/2000/svg" xmlns:xlink="http://www.w3.org/1999/xlink" x="0px" y="0px"
	 viewBox="0 0 729 729" style="enable-background:new 0 0 729 729;" xml:space="preserve">
<style type="text/css">
	.st0{fill:none;stroke:#000000;stroke-width:4;stroke-miterlimit:10;}
	.st1{fill:none;stroke:#000000;stroke-width:4;stroke-linejoin:round;stroke-miterlimit:10;}
	.st2{fill:none;stroke:#000000;stroke-width:4;stroke-miterlimit:10;stroke-dasharray:5.1864,5.1864;}
	.st3{fill:none;stroke:#000000;stroke-width:4;stroke-miterlimit:10;stroke-dasharray:5.0405,5.0405;}
	.st4{fill:#40DD8B;}
	.st5{fill:none;stroke:#40DD8B;stroke-width:2;stroke-miterlimit:10;}
	.st6{fill:none;stroke:#E42226;stroke-width:2;stroke-miterlimit:10;}
	.st7{fill:#E42226;}
	.st8{fill:none;stroke:#EB2027;stroke-width:2;stroke-miterlimit:10;}
	.st9{fill:#EB2027;}
	.st10{fill:none;stroke:#EB2027;stroke-miterlimit:10;}
	.st11{fill:#FFFFFF;stroke:#E8282B;stroke-width:0.8268;stroke-miterlimit:10;}
	.st12{fill:#020202;}
	.st13{font-family:'SetupGrotesk-Medium';}
	.st14{font-size:20px;}
	.st15{fill:none;stroke:#40DD8B;stroke-miterlimit:10;}
	.st16{fill:none;stroke:#40DD8B;stroke-width:0.8268;stroke-miterlimit:10;}
</style>
<g>
	<line class="st0" x1="576.3" y1="468.3" x2="628.5" y2="415.6"/>
	<line class="st0" x1="576.8" y1="476.9" x2="628.6" y2="424.8"/>
	<path class="st1" d="M629.2,509.3l-45.3,45.6l-7.8,7.8h-13.8H150h-14.7V548V358.5 M628.5,343.6l0.1,167.1 M574.6,358.5l2.2,203.2"
		/>
	<g>
		<g>
			<line class="st0" x1="600.2" y1="453.4" x2="600.2" y2="455.9"/>
			<line class="st2" x1="600.2" y1="461.1" x2="600.2" y2="531.1"/>
			<line class="st0" x1="600.2" y1="533.7" x2="600.2" y2="536.2"/>
		</g>
	</g>
	<g>
		<g>
			<line class="st0" x1="606.9" y1="448.2" x2="606.9" y2="450.7"/>
			<line class="st3" x1="606.9" y1="455.7" x2="606.9" y2="523.8"/>
			<line class="st0" x1="606.9" y1="526.3" x2="606.9" y2="528.8"/>
		</g>
	</g>
</g>
<path class="st1" d="M352.8,541"/>
<path class="st1" d="M135.3,358.5c6.4-110.3,95.8-183.7,217.5-182.5c122.5,1.2,221.8,81.7,221.8,182.5"/>
<path class="st1" d="M626.3,345"/>
<path class="st1" d="M142.9,322"/>
<path class="st1" d="M387.6,546.2"/>
<path class="st1" d="M151.4,345"/>
<path class="st1" d="M162.4,269.5"/>
<path class="st1" d="M197.7,228.1c0,0,72.6-71.6,188.3-80.5c133-10.2,242.1,81.6,242.5,196"/>
<g>
	<polygon class="st4" points="350.4,178.8 345.3,187.6 355.3,187.5 	"/>
</g>
<g>
	<polygon class="st4" points="355.2,548 345.2,548 350.2,556.7 	"/>
</g>
<line class="st5" x1="350.2" y1="182.3" x2="350.2" y2="551.5"/>
<g id="mW2cm">
	<polyline class="st6" points="569.8,576.5 380.1,575.7 209.9,574.9 141,574.6 	"/>
	<polygon class="st7" points="147.9,569.5 137.9,574.7 147.8,580.1 	"/>
	<polygon class="st7" points="564.7,581.9 574.7,576.5 564.8,571.2 	"/>
</g>
<g id="mTcm">
	<polyline class="st5" points="594.2,566 596.9,563.2 633.5,523.8 	"/>
	<polygon class="st4" points="636.7,527.5 639.5,517.6 629.5,520.5 	"/>
	<polygon class="st4" points="592.1,561 589.2,570.9 599.2,568.1 	"/>
</g>
<line class="st8" x1="122.8" y1="555.1" x2="122.8" y2="341.1"/>
<line class="st8" x1="588.6" y1="341.1" x2="590.8" y2="532.4"/>
<path class="st8" d="M353.4,160.7c126.1,2.8,228.6,81.2,235.2,180.4"/>
<path class="st8" d="M122.8,341.1c7.3-109.5,102.3-179.3,230.6-180.4"/>
<path class="st1" d="M151.5,251.2"/>
<g>
	<polygon class="st9" points="127.8,553.9 117.8,554.1 123,562.7 	"/>
</g>
<g>
	<polygon class="st9" points="595.8,530.3 585.8,530.6 591,539.2 	"/>
</g>
<line class="st10" x1="470.3" y1="187" x2="470.3" y2="137.5"/>
<g>
	<g>
		<rect x="449" y="132" class="st11" width="42.5" height="27.6"/>
	</g>
</g>
<text transform="matrix(1 0 0 1 464.1064 152.5701)" class="st12 st13 st14">A</text>
<line class="st10" x1="350.2" y1="598.8" x2="350.2" y2="575.7"/>
<g>
	<g>
		<rect x="329" y="598.8" class="st11" width="42.5" height="27.6"/>
	</g>
</g>
<text transform="matrix(1 0 0 1 343.9408 619.9064)" class="st12 st13 st14">B</text>
<line class="st15" x1="618.1" y1="574.8" x2="618.1" y2="540.4"/>
<g>
	<g>
		<rect x="596.8" y="574.8" class="st15" width="42.5" height="27.6"/>
	</g>
</g>
<text transform="matrix(1 0 0 1 611.2997 596.0909)" class="st12 st13 st14">D</text>
<line class="st15" x1="350.2" y1="367" x2="382.5" y2="367"/>
<g>
	<g>
		<rect x="382.2" y="352.9" class="st16" width="42.5" height="27.6"/>
	</g>
</g>
<text transform="matrix(1 0 0 1 395.3383 373.7768)" class="st12 st13 st14">C</text>
</svg>
