<?xml version="1.0" encoding="utf-8"?>
<!-- Generator: Adobe Illustrator 27.3.1, SVG Export Plug-In . SVG Version: 6.00 Build 0)  -->
<svg version="1.1" id="Layer_1" xmlns="http://www.w3.org/2000/svg" xmlns:xlink="http://www.w3.org/1999/xlink" x="0px" y="0px"
	 viewBox="0 0 792 792" style="enable-background:new 0 0 792 792;" xml:space="preserve">
<style type="text/css">
	.st0{fill:none;stroke:#A7A9AC;stroke-width:4;stroke-linecap:round;stroke-linejoin:round;}
	.st1{fill:none;stroke:#010101;stroke-width:4;stroke-linecap:round;stroke-linejoin:round;}
	.st2{fill:none;stroke:#E92429;stroke-width:2;stroke-miterlimit:10;}
	.st3{fill:#E92429;}
	.st4{fill:#64C083;}
	.st5{fill:none;stroke:#64C083;stroke-width:2;stroke-miterlimit:10;}
	.st6{fill:#FFFFFF;stroke:#E92429;stroke-miterlimit:10;}
	.st7{fill:#010101;}
	.st8{font-family:'SetupGrotesk-Medium';}
	.st9{font-size:20px;}
	.st10{fill:none;stroke:#E92429;stroke-miterlimit:10;}
	.st11{fill:none;stroke:#64C083;stroke-miterlimit:10;}
</style>
<path class="st0" d="M604.3,634.9h-255"/>
<g>
	<polyline class="st0" points="260,635 267.7,710.1 340.1,710.1 348.3,635 	"/>
	<polyline class="st0" points="340.1,710.1 360.8,694.2 369,635 	"/>
</g>
<path class="st1" d="M221.4,634.9"/>
<path class="st1" d="M333.6,158.7c-12.3,1.4-24.7,4.4-37,7.5L176.7,209c-8.4,2.4-14,10.6-12.8,19.3l41,290.2"/>
<path class="st0" d="M604.2,74.3H370.3h-35.5v97.9"/>
<path class="st0" d="M669,635"/>
<path class="st1" d="M349.3,518.5c-13-44.3-27.4-112.9-43.6-155.8c-20-52.5-62.8-166.6-137-148.1"/>
<path class="st0" d="M604.3,518.5h-255"/>
<path class="st0" d="M428.5,442.1H604"/>
<path class="st1" d="M334.8,172.2c27.7,34.2,38.6,83.1,50.1,114.2c16.6,43.3,30.6,111.7,43.6,155.8"/>
<path class="st1" d="M205,518.5"/>
<polyline class="st1" points="429,442.1 349.3,518.5 349.3,634.9 221.4,634.9 205,518.5 "/>
<path class="st1" d="M334.5,171.7"/>
<path class="st1" d="M333.1,158.7"/>
<g>
	<line class="st2" x1="340" y1="522.6" x2="214.8" y2="522.6"/>
	<polygon class="st3" points="217.3,517.6 208.6,522.7 217.3,527.6 	"/>
	<polygon class="st3" points="337.1,517.6 345.8,522.7 337.1,527.6 	"/>
</g>
<g>
	<polygon class="st4" points="344.8,506.1 335.1,508.8 342.2,515.8 	"/>
	<polygon class="st4" points="168.8,218.1 177.5,213.1 177.4,223.1 	"/>
</g>
<path class="st5" d="M175.2,218.5c85.5-9.2,129.4,155.3,165.7,291.2"/>
<path class="st5" d="M342.4,172.9c28.8,27.6,52.8,110.6,92.4,261.7"/>
<polygon class="st4" points="350.6,173.4 340.9,170.9 343.7,180.5 "/>
<polygon class="st4" points="439.1,430.3 429.4,433 436.5,440 "/>
<g>
	<line class="st2" x1="431.1" y1="448.8" x2="362.3" y2="515"/>
	<polygon class="st3" points="360.5,509.8 357.8,519.4 367.5,517 	"/>
	<polygon class="st3" points="425.6,447.2 435.4,444.8 432.6,454.4 	"/>
</g>
<g>
	<line class="st2" x1="330.4" y1="179.1" x2="235.5" y2="223.1"/>
	<polygon class="st3" points="234.6,218.1 229.4,226.7 239.4,226.9 	"/>
	<polygon class="st3" points="324.7,176.2 334.7,176.2 329.7,184.9 	"/>
</g>
<g>
	<rect x="275.5" y="214.2" class="st6" width="42.5" height="27.6"/>
	<text transform="matrix(1 0 0 1 284.5463 234.9679)" class="st7 st8 st9">B</text>
	<text transform="matrix(1 0 0 1 297.3463 234.9679)" class="st7 st8 st9">2</text>
	<line class="st10" x1="296.7" y1="194.4" x2="296.7" y2="214.2"/>
</g>
<rect x="362.3" y="433.1" class="st6" width="42.5" height="27.6"/>
<g>
	<rect x="256.1" y="543" class="st6" width="42.5" height="27.6"/>
	<text transform="matrix(1 0 0 1 263.8461 563.8647)" class="st7 st8 st9">C</text>
	<text transform="matrix(1 0 0 1 279.6261 563.8647)" class="st7 st8 st9">2</text>
	<line class="st10" x1="277.4" y1="523.2" x2="277.4" y2="543"/>
</g>
<text transform="matrix(1 0 0 1 372.7663 454.4778)" class="st7 st8 st9">B1</text>
<line class="st10" x1="383.5" y1="460.8" x2="383.5" y2="494.6"/>
<g>
	<rect x="228" y="360" class="st11" width="42.5" height="27.6"/>
	<text transform="matrix(1 0 0 1 239.4263 380.9578)" class="st7 st8 st9">E1</text>
	<line class="st11" x1="301.5" y1="373.8" x2="270.5" y2="373.8"/>
</g>
<g>
	<rect x="429.2" y="287.5" class="st11" width="42.5" height="27.6"/>
	<text transform="matrix(1 0 0 1 438.5663 308.3878)" class="st7 st8 st9">E2</text>
	<line class="st11" x1="429.2" y1="302.7" x2="398.2" y2="302.7"/>
</g>
<g>
	<line class="st2" x1="345.8" y1="161" x2="345.8" y2="83.9"/>
	<polygon class="st3" points="350.8,86.3 345.7,77.6 340.8,86.3 	"/>
	<polygon class="st3" points="350.8,160.1 345.7,168.8 340.8,160.1 	"/>
</g>
<rect x="367.4" y="110.4" class="st6" width="42.5" height="27.6"/>
<text transform="matrix(1 0 0 1 378.4463 131.107)" class="st7 st8 st9">F4</text>
<path class="st10" d="M367.4,124.2"/>
<line class="st10" x1="367.4" y1="124.2" x2="345.8" y2="124.2"/>
</svg>
