<?xml version="1.0" encoding="utf-8"?>
<!-- Generator: Adobe Illustrator 27.3.1, SVG Export Plug-In . SVG Version: 6.00 Build 0)  -->
<svg version="1.1" id="Layer_1" xmlns="http://www.w3.org/2000/svg" xmlns:xlink="http://www.w3.org/1999/xlink" x="0px" y="0px"
	 viewBox="0 0 729 729" style="enable-background:new 0 0 729 729;" xml:space="preserve">
<style type="text/css">
	.st0{fill:none;stroke:#EB2027;stroke-miterlimit:10;}
	.st1{fill:none;stroke:#EB2027;stroke-width:2;stroke-miterlimit:10;}
	.st2{fill:#EB2027;stroke:#EB2027;stroke-miterlimit:10;}
	.st3{fill:#FFFFFF;stroke:#40DD8B;stroke-miterlimit:10;}
	.st4{fill:none;stroke:#40DD8B;stroke-miterlimit:10;}
	.st5{fill:none;stroke:#40DD8B;stroke-width:2;stroke-miterlimit:10;}
	.st6{fill:#40DD8B;}
	.st7{fill:#FFFFFF;stroke:#40DD8B;stroke-width:2;stroke-miterlimit:10;}
	.st8{fill:none;stroke:#231F20;stroke-width:4;stroke-linecap:round;stroke-linejoin:round;}
	.st9{fill:none;stroke:#231F20;stroke-width:2;stroke-linecap:round;stroke-linejoin:round;}
	
		.st10{fill:none;stroke:#231F20;stroke-width:2;stroke-linecap:round;stroke-linejoin:round;stroke-miterlimit:10;stroke-dasharray:5;}
	.st11{fill:none;stroke:#DE6969;stroke-linecap:round;stroke-linejoin:round;stroke-miterlimit:10;stroke-dasharray:1.9999;}
	.st12{fill:#FFFFFF;stroke:#E9262A;stroke-miterlimit:10;}
	.st13{fill:#020202;}
	.st14{font-family:'SetupGrotesk-Medium';}
	.st15{font-size:20px;}
</style>
<g id="bTcm">
	<line class="st0" x1="163.5" y1="194.1" x2="163.5" y2="233.3"/>
</g>
<g id="mTcm">
	<polyline class="st1" points="149.6,246.8 152,244.5 182.2,214.2 	"/>
	<polygon class="st2" points="184.7,219.9 188,208.5 176.4,211.8 	"/>
	<polygon class="st2" points="146.6,240.6 143.3,252.1 154.7,248.8 	"/>
</g>
<g id="bD2cm">
	<line class="st3" x1="117.6" y1="302.9" x2="141.1" y2="302.9"/>
</g>
<g id="bD1cm">
	<line class="st4" x1="391" y1="384.9" x2="414.6" y2="384.9"/>
</g>
<g id="bW2cm">
	<line class="st0" x1="392.2" y1="566.7" x2="392.2" y2="544"/>
</g>
<g id="bW1cm">
	<line class="st0" x1="389.5" y1="203.8" x2="389.5" y2="179.4"/>
</g>
<g id="mW1cm">
	<polyline class="st1" points="569.5,203.6 503.7,203.6 274.8,203.6 203.5,203.6 	"/>
	<polygon class="st2" points="210.3,197.7 199.9,203.6 210.3,209.5 	"/>
	<polygon class="st2" points="564.3,209.5 574.9,203.6 564.3,197.7 	"/>
</g>
<g id="mW2cm">
	<polyline class="st1" points="527.2,543.1 413.9,543.1 279.6,543.1 244.2,543.1 	"/>
	<polygon class="st2" points="251,537.4 240.6,543.1 251,549 	"/>
	<polygon class="st2" points="522,549 532.4,543.1 522,537.4 	"/>
</g>
<g id="mD1cm">
	<polyline class="st5" points="391,527 391,509.7 391,281.3 391,263.9 	"/>
	<polygon class="st6" points="396.9,272.1 391,261.7 385.3,272.1 	"/>
	<polygon class="st6" points="385.3,518.5 391,528.9 396.9,518.5 	"/>
</g>
<g id="mD2cm">
	<polyline class="st7" points="142,341.7 142,336.5 142,269.3 142,264.3 	"/>
	<polygon class="st6" points="147.9,269.5 142,259.1 136.1,269.5 	"/>
	<polygon class="st6" points="136.1,336.5 142,346.9 147.9,336.5 	"/>
</g>
<g>
	<path class="st8" d="M198.6,214.1l-43.1,43.3 M575.4,213.9H199 M575.4,488.4V214.3 M532.1,531.5l43.1-42.8 M241.5,531.7h290.3
		 M241.5,348v183.7 M155.4,348h86.1 M155.4,258v90 M530.7,257.4H155.8 M531.7,530.8V256.5 M572.1,215l-40.6,41.7"/>
	<line class="st9" x1="533.2" y1="455.1" x2="574.4" y2="413.7"/>
	<line class="st9" x1="533" y1="461.8" x2="574.2" y2="420.4"/>
	<line class="st10" x1="552.9" y1="442.2" x2="552.9" y2="508.1"/>
	<line class="st10" x1="558.2" y1="437.4" x2="558.2" y2="502.6"/>
	<path class="st11" d="M552.9,444.7"/>
	<path class="st11" d="M552.9,443.6"/>
	<path class="st11" d="M556.5,439.1"/>
</g>
<g>
	<g>
		<rect x="369.8" y="155.2" class="st12" width="42.5" height="27.6"/>
	</g>
</g>
<text transform="matrix(1 0 0 1 384.7433 175.0895)" class="st13 st14 st15">A</text>
<g>
	<g>
		<rect x="371" y="563" class="st12" width="42.5" height="27.6"/>
	</g>
</g>
<text transform="matrix(1 0 0 1 384.9563 583.8369)" class="st13 st14 st15">B</text>
<g>
	<g>
		<rect x="408.3" y="372.5" class="st3" width="42.5" height="27.6"/>
	</g>
</g>
<text transform="matrix(1 0 0 1 421.1401 393.3125)" class="st13 st14 st15">C</text>
<g>
	<g>
		<rect x="80.1" y="289.2" class="st3" width="42.5" height="27.6"/>
	</g>
</g>
<text transform="matrix(1 0 0 1 95.0559 310.0788)" class="st13 st14 st15">E</text>
<g>
	<g>
		<rect x="142.2" y="166.8" class="st12" width="42.5" height="27.6"/>
	</g>
</g>
<text transform="matrix(1 0 0 1 156.2033 187.6439)" class="st13 st14 st15">D</text>
</svg>
