<?xml version="1.0" encoding="utf-8"?>
<!-- Generator: Adobe Illustrator 27.3.1, SVG Export Plug-In . SVG Version: 6.00 Build 0)  -->
<svg version="1.1" id="Layer_1" xmlns="http://www.w3.org/2000/svg" xmlns:xlink="http://www.w3.org/1999/xlink" x="0px" y="0px"
	 viewBox="0 0 729 729" style="enable-background:new 0 0 729 729;" xml:space="preserve">
<style type="text/css">
	.st0{fill:none;stroke:#231F20;stroke-width:4;stroke-linecap:round;stroke-linejoin:round;}
	.st1{fill:none;}
	.st2{fill:none;stroke:#DC6869;stroke-width:2;stroke-miterlimit:10;}
	.st3{fill:none;stroke:#231F20;stroke-width:4;stroke-linecap:round;stroke-linejoin:round;stroke-dasharray:10,10;}
	.st4{fill:none;stroke:#231F20;stroke-width:2;stroke-linecap:round;stroke-linejoin:round;stroke-dasharray:10,10;}
	.st5{fill:none;stroke:#231F20;stroke-width:2;stroke-linecap:round;stroke-linejoin:round;stroke-dasharray:8,8;}
	.st6{fill:none;stroke:#231F20;stroke-width:2;stroke-linecap:round;stroke-linejoin:round;}
	.st7{fill:none;stroke:#63C083;stroke-width:2;stroke-miterlimit:10;}
	.st8{fill:#63C083;stroke:#63C083;stroke-width:1.5152;stroke-miterlimit:10;}
	.st9{fill:none;stroke:#EB2027;stroke-width:2;stroke-miterlimit:10;}
	.st10{fill:#EB2027;stroke:#EB2027;stroke-width:0.2976;stroke-miterlimit:10;}
	.st11{fill:#EB2027;stroke:#EB2027;stroke-width:0.3125;stroke-miterlimit:10;}
	.st12{fill:#EB2027;stroke:#EB2027;stroke-width:0.303;stroke-miterlimit:10;}
	.st13{fill:#EB2027;stroke:#EB2027;stroke-width:0.3106;stroke-miterlimit:10;}
	.st14{fill:#EB2027;stroke:#EB2027;stroke-width:0.2732;stroke-miterlimit:10;}
	.st15{fill:#EB2027;stroke:#EB2027;stroke-width:0.2747;stroke-miterlimit:10;}
	.st16{fill:#EB2027;stroke:#EB2027;stroke-width:0.2762;stroke-miterlimit:10;}
	.st17{fill:#EB2027;stroke:#EB2027;stroke-width:0.2674;stroke-miterlimit:10;}
	.st18{fill:#EB2027;stroke:#EB2027;stroke-width:0.2703;stroke-miterlimit:10;}
	.st19{fill:#EB2027;stroke:#EB2027;stroke-width:0.2688;stroke-miterlimit:10;}
	.st20{fill:#EB2027;stroke:#EB2027;stroke-width:0.3012;stroke-miterlimit:10;}
	.st21{fill:none;stroke:#EB2027;stroke-miterlimit:10;}
	.st22{fill:#FFFFFF;stroke:#E8282B;stroke-miterlimit:10;}
	.st23{fill:#020202;}
	.st24{font-family:'SetupGrotesk-Medium';}
	.st25{font-size:20px;}
	.st26{fill:#FFFFFF;stroke:#E8282B;stroke-width:0.8268;stroke-miterlimit:10;}
	.st27{fill:none;stroke:#63C083;stroke-miterlimit:10;}
	.st28{fill:none;stroke:#63C083;stroke-width:0.8268;stroke-miterlimit:10;}
</style>
<polyline class="st0" points="500.1,490.1 656.8,363.1 421.8,216.4 265.2,216.4 28.9,363.1 28.9,427.3 "/>
<polyline class="st0" points="185.7,490.1 500.1,490.1 656.8,363.1 656.8,428.8 500,563.6 185.8,563.6 "/>
<polyline class="st0" points="28.9,427.3 185.8,563.6 185.7,490.1 "/>
<line class="st1" x1="185.7" y1="490.1" x2="29" y2="364.5"/>
<line class="st0" x1="185.7" y1="490.1" x2="29" y2="364.5"/>
<line class="st0" x1="500.1" y1="490.1" x2="500" y2="563.6"/>
<line class="st1" x1="343.6" y1="497.7" x2="343.4" y2="520.9"/>
<line class="st1" x1="343.8" y1="210.3" x2="343.8" y2="195.9"/>
<line class="st1" x1="282.3" y1="363.5" x2="282.2" y2="386.8"/>
<line class="st1" x1="522.5" y1="271.4" x2="535.4" y2="259"/>
<path class="st2" d="M522.5,271.4"/>
<line class="st3" x1="654.3" y1="427.1" x2="422.4" y2="282.4"/>
<line class="st3" x1="422.1" y1="282.4" x2="265.6" y2="282.4"/>
<line class="st3" x1="265.6" y1="282.4" x2="29" y2="426.6"/>
<line class="st3" x1="421.7" y1="216.4" x2="421.3" y2="281.3"/>
<line class="st3" x1="265.9" y1="217.4" x2="265.4" y2="282.2"/>
<line class="st4" x1="552.3" y1="325.3" x2="423.4" y2="246.4"/>
<line class="st4" x1="423.1" y1="246.4" x2="266.6" y2="246.4"/>
<path class="st5" d="M159.4,313.4"/>
<path class="st5" d="M266.6,246.4"/>
<line class="st4" x1="549.2" y1="331.7" x2="423.4" y2="256.4"/>
<line class="st4" x1="423.1" y1="256.4" x2="266.6" y2="256.4"/>
<path class="st5" d="M158.4,323.1"/>
<path class="st5" d="M266.6,256.4"/>
<line class="st4" x1="137.8" y1="325.9" x2="266.6" y2="247.1"/>
<line class="st4" x1="140.8" y1="332.4" x2="266.6" y2="257"/>
<line class="st6" x1="132.8" y1="298.6" x2="140.8" y2="359.4"/>
<line class="st6" x1="124.9" y1="302" x2="132.8" y2="362.8"/>
<line class="st6" x1="555.7" y1="300.6" x2="547.7" y2="361.4"/>
<line class="st6" x1="565.2" y1="305.4" x2="557.2" y2="366.1"/>
<line class="st7" x1="340.9" y1="225.2" x2="341.3" y2="475.2"/>
<g>
	<polygon class="st8" points="341.1,220.8 335.9,229.4 345.9,229.6 	"/>
</g>
<g>
	<polygon class="st8" points="346.5,474.7 336.5,474.5 341.3,483.3 	"/>
</g>
<line class="st9" x1="50.9" y1="364.8" x2="634.9" y2="365.2"/>
<g>
	<polygon class="st10" points="50.7,370.3 41.5,363.9 51.5,359.3 	"/>
</g>
<g>
	<polygon class="st11" points="634.1,371 644,365 634,359.4 	"/>
</g>
<line class="st7" x1="297.9" y1="226.2" x2="298.1" y2="351.8"/>
<g>
	<polygon class="st8" points="298.2,220.9 293.1,229.5 303.1,229.7 	"/>
</g>
<g>
	<polygon class="st8" points="303,349.9 293,349.7 297.9,358.5 	"/>
</g>
<line class="st9" x1="202.4" y1="503.3" x2="492.1" y2="502.7"/>
<g>
	<polygon class="st12" points="202.4,509 192.4,503.4 202.2,497.6 	"/>
</g>
<g>
	<polygon class="st13" points="483.7,508.5 493.5,502.6 483.5,497 	"/>
</g>
<path class="st7" d="M143.6,395.8"/>
<path class="st7" d="M143.4,284.5"/>
<line class="st7" x1="667.8" y1="374.2" x2="668" y2="419.4"/>
<g>
	<polygon class="st8" points="667.9,367.8 662.8,376.4 672.8,376.6 	"/>
</g>
<g>
	<polygon class="st8" points="673,418.5 663,418.3 667.8,427.1 	"/>
</g>
<line class="st9" x1="25.6" y1="441.6" x2="166.6" y2="564.8"/>
<g>
	<polygon class="st14" points="23.9,447.1 20.4,437.4 30.4,439.3 	"/>
</g>
<g>
	<polygon class="st15" points="162.8,568.2 172.8,570 169.4,560.4 	"/>
</g>
<line class="st9" x1="516.6" y1="569.2" x2="657.1" y2="445.4"/>
<g>
	<polygon class="st14" points="521.6,571.4 511.6,573.6 514.8,563.9 	"/>
</g>
<g>
	<polygon class="st16" points="660,449.8 663,440 653,442.1 	"/>
</g>
<line class="st9" x1="249.7" y1="209.5" x2="29" y2="345.4"/>
<g>
	<polygon class="st17" points="244.7,206.9 254.7,206.5 250,215.3 	"/>
</g>
<g>
	<polygon class="st18" points="28.7,339.5 24,348.4 34,348 	"/>
</g>
<line class="st9" x1="436.8" y1="209.6" x2="657.6" y2="345.3"/>
<g>
	<polygon class="st19" points="435.6,214.9 430.7,206.1 440.7,206.3 	"/>
</g>
<g>
	<polygon class="st18" points="652.6,348 662.6,348.1 657.8,339.4 	"/>
</g>
<line class="st9" x1="268.6" y1="204" x2="413.5" y2="203.4"/>
<g>
	<polygon class="st20" points="274.9,209.7 264.9,204.1 274.7,198.3 	"/>
</g>
<g>
	<polygon class="st13" points="411.6,209.2 421.5,203.3 411.5,197.6 	"/>
</g>
<line class="st21" x1="340.9" y1="552.7" x2="340.9" y2="502.2"/>
<g>
	<g>
		<rect x="320.2" y="525.6" class="st22" width="42.5" height="27.6"/>
	</g>
</g>
<text transform="matrix(1 0 0 1 334.3297 545.7343)" class="st23 st24 st25">A</text>
<line class="st21" x1="82.4" y1="543.9" x2="82.4" y2="491.9"/>
<g>
	<g>
		<rect x="61.2" y="525.6" class="st22" width="42.5" height="27.6"/>
	</g>
</g>
<text transform="matrix(1 0 0 1 76.0166 546.8101)" class="st23 st24 st25">E</text>
<line class="st21" x1="600" y1="548.9" x2="600" y2="496.9"/>
<g>
	<g>
		<rect x="578.8" y="525.8" class="st22" width="42.5" height="27.6"/>
	</g>
</g>
<text transform="matrix(1 0 0 1 594.6282 546.8104)" class="st23 st24 st25">F</text>
<line class="st21" x1="233.4" y1="414.5" x2="233.4" y2="365.5"/>
<g>
	<g>
		<rect x="212.1" y="389.2" class="st26" width="42.5" height="27.6"/>
	</g>
</g>
<text transform="matrix(1 0 0 1 221.2045 409.6398)" class="st23 st24 st25">C1</text>
<line class="st21" x1="147.3" y1="272.6" x2="147.3" y2="224"/>
<g>
	<g>
		<rect x="126" y="218.5" class="st22" width="42.5" height="27.6"/>
	</g>
</g>
<text transform="matrix(1 0 0 1 139.0923 238.9855)" class="st23 st24 st25">G</text>
<line class="st21" x1="341.5" y1="204" x2="341.5" y2="152"/>
<g>
	<g>
		<rect x="320.2" y="146.5" class="st22" width="42.5" height="27.6"/>
	</g>
</g>
<text transform="matrix(1 0 0 1 334.9001 167.2999)" class="st23 st24 st25">B</text>
<line class="st21" x1="538.4" y1="271.3" x2="538.4" y2="219.3"/>
<g>
	<g>
		<rect x="517.2" y="213.8" class="st22" width="42.5" height="27.6"/>
	</g>
</g>
<text transform="matrix(1 0 0 1 530.8716 235.0643)" class="st23 st24 st25">H</text>
<line class="st27" x1="297.9" y1="328" x2="276" y2="328"/>
<g>
	<g>
		<rect x="233.6" y="314.2" class="st28" width="42.5" height="27.6"/>
	</g>
</g>
<text transform="matrix(1 0 0 1 240.8501 334.9136)" class="st23 st24 st25">C3</text>
<line class="st27" x1="363.8" y1="328" x2="341.3" y2="328"/>
<g>
	<g>
		<rect x="363.8" y="314.2" class="st28" width="42.5" height="27.6"/>
	</g>
</g>
<text transform="matrix(1 0 0 1 371.0352 335.1139)" class="st23 st24 st25">C2</text>
<line class="st27" x1="675.9" y1="398.5" x2="666.9" y2="398.5"/>
<text transform="matrix(1 0 0 1 690.0038 406.1964)" class="st23 st24 st25">D</text>
<g>
	<g>
		<rect x="675.9" y="384.7" class="st27" width="42.5" height="27.6"/>
	</g>
</g>
</svg>
