<?xml version="1.0" encoding="UTF-8"?>
<svg id="Layer_1" data-name="Layer 1" xmlns="http://www.w3.org/2000/svg" viewBox="0 0 723.8 474.2">
  <defs>
    <style>
      .cls-1, .cls-2, .cls-3, .cls-4, .cls-5, .cls-6, .cls-7, .cls-8, .cls-9 {
        stroke-miterlimit: 10;
      }

      .cls-1, .cls-2, .cls-4 {
        fill: #fff;
      }

      .cls-1, .cls-5, .cls-7 {
        stroke: #64c083;
      }

      .cls-2, .cls-3, .cls-8 {
        stroke: #eb2127;
      }

      .cls-3, .cls-5, .cls-6, .cls-7, .cls-10, .cls-11, .cls-8, .cls-9 {
        fill: none;
      }

      .cls-4, .cls-6, .cls-9 {
        stroke: #e92429;
      }

      .cls-12 {
        fill: #64c083;
      }

      .cls-13 {
        fill: #eb2127;
      }

      .cls-7, .cls-8, .cls-9 {
        stroke-width: 2px;
      }

      .cls-10 {
        stroke: #a7a9ac;
      }

      .cls-10, .cls-11 {
        stroke-linecap: round;
        stroke-linejoin: round;
        stroke-width: 4px;
      }

      .cls-11 {
        stroke: #010101;
      }

      .cls-14 {
        fill: #e92429;
      }

      .cls-15 {
        letter-spacing: 0em;
      }

      .cls-16 {
        letter-spacing: -.02em;
      }

      .cls-17 {
        fill: #010101;
        font-family: SetupGrotesk-Medium, 'Setup Grotesk';
        font-size: 20px;
        font-weight: 500;
        isolation: isolate;
      }
    </style>
  </defs>
  <line class="cls-10" x1="598.38" y1="63.1" x2="598" y2="116.9"/>
  <line class="cls-10" x1="721.8" y1="354.4" x2="654.2" y2="262.5"/>
  <polyline class="cls-10" points="637.4 424.7 712.2 424.7 721.8 354.4 644.2 354.4"/>
  <g>
    <g>
      <path class="cls-10" d="m199.97,63.1h398.41l-26.08-13.9H190.5"/>
      <line class="cls-11" x1="666.7" y1="129" x2="63.3" y2="129"/>
      <polyline class="cls-10" points="172.1 426.2 167.3 472.2 122.6 472.2 117.8 426.2"/>
      <polyline class="cls-10" points="615.6 426.2 610.9 472.2 566.2 472.2 561.4 426.2"/>
      <path class="cls-11" d="m644.5,117.4H73.5v.2h0l-6.4,5.7c-3.9,3.4-5.9,8.7-5.5,13.9l33.3,289,540.7-1.4,31.8-295.8-22.9-11.6Z"/>
    </g>
    <path class="cls-11" d="m160.9,5.4l-47.2,34.9c-4.6,3.4-5.9,9.8-3.2,14.8l34.7,62"/>
    <path class="cls-11" d="m229,117L167.3,8.8c-2.1-3.7-5.7-5.7-9.8-5.7h-26.9l-59.1,37.9c-5,3.2-7.8,9.1-6.8,15.1l8.9,60.9"/>
  </g>
  <g>
    <rect class="cls-5" x="94.2" y="258" width="42.5" height="27.6"/>
    <line class="cls-5" x1="68.2" y1="271.8" x2="94.2" y2="271.8"/>
    <text class="cls-17" transform="translate(102.02 278.78)"><tspan x="0" y="0">H2</tspan></text>
  </g>
  <g>
    <g>
      <line class="cls-7" x1="85.8" y1="418.5" x2="53.6" y2="135.8"/>
      <polygon class="cls-12" points="58.8 138.5 52.9 131.1 48.9 139.6 58.8 138.5"/>
    </g>
    <polygon class="cls-12" points="80.8 417.9 86.9 425.9 90.7 416.7 80.8 417.9"/>
  </g>
  <g>
    <line class="cls-9" x1="654.9" y1="138" x2="70.9" y2="138.4"/>
    <polygon class="cls-14" points="74.4 133.4 65.7 138.4 74.3 143.4 74.4 133.4"/>
    <polygon class="cls-14" points="653.6 133 662.3 138.1 653.6 143 653.6 133"/>
  </g>
  <g>
    <rect class="cls-4" x="343.7" y="159.5" width="42.5" height="27.6"/>
    <text class="cls-17" transform="translate(352.88 180.37)"><tspan x="0" y="0">G1</tspan></text>
    <line class="cls-6" x1="364.4" y1="139" x2="364.4" y2="159.1"/>
  </g>
  <g>
    <rect class="cls-5" x="590.5" y="263" width="42.5" height="27.6"/>
    <line class="cls-5" x1="633" y1="276.8" x2="660.4" y2="276.8"/>
    <text class="cls-17" transform="translate(600.47 283.84)"><tspan x="0" y="0">H1</tspan></text>
  </g>
  <g>
    <g>
      <line class="cls-7" x1="645.2" y1="420.3" x2="675.1" y2="137.7"/>
      <polygon class="cls-12" points="679.6 141.3 675.1 133 669.7 140.7 679.6 141.3"/>
    </g>
    <polygon class="cls-12" points="641.1 413.4 645.1 422.6 651 414.6 641.1 413.4"/>
  </g>
  <g>
    <line class="cls-9" x1="624.9" y1="415.3" x2="100.1" y2="415.6"/>
    <polygon class="cls-14" points="106 410.7 97.3 415.7 106 420.7 106 410.7"/>
    <polygon class="cls-14" points="623 410.3 631.7 415.4 623 420.3 623 410.3"/>
  </g>
  <g>
    <rect class="cls-6" x="341.3" y="370.3" width="42.5" height="27.6"/>
    <text class="cls-17" transform="translate(347.3 391.19)"><tspan x="0" y="0">G</tspan></text>
    <text class="cls-17" transform="translate(363.26 391.19)"><tspan x="0" y="0">2</tspan></text>
    <line class="cls-6" x1="362.5" y1="397.8" x2="362.5" y2="415.7"/>
  </g>
  <g id="mH3cm">
    <polyline class="cls-7" points="110.5 470.5 110.5 467.8 110.5 433.5 110.5 435.3"/>
    <polygon class="cls-12" points="115.5 438 110.5 429 105.5 438 115.5 438"/>
    <polygon class="cls-12" points="105.5 464.5 110.5 473.5 115.5 464.5 105.5 464.5"/>
  </g>
  <g>
    <line class="cls-5" x1="70.6" y1="452" x2="111.2" y2="452"/>
    <rect class="cls-5" x="28.1" y="438.2" width="42.5" height="27.6"/>
  </g>
  <text class="cls-17" transform="translate(37.03 459.46)"><tspan x="0" y="0">H3</tspan></text>
  <g>
    <line class="cls-8" x1="131.7" y1="110.2" x2="82.3" y2="110.2"/>
    <polygon class="cls-13" points="84.6 105.2 75.9 110.2 84.6 115.2 84.6 105.2"/>
    <polygon class="cls-13" points="129.4 105.2 138.1 110.2 129.4 115.2 129.4 105.2"/>
  </g>
  <g>
    <line class="cls-7" x1="66.3" y1="116.3" x2="57.2" y2="53.4"/>
    <polygon class="cls-12" points="62.8 56.1 56.5 48.2 52.9 57.6 62.8 56.1"/>
    <polygon class="cls-12" points="70.7 110.5 67.1 119.9 60.8 112.1 70.7 110.5"/>
  </g>
  <g>
    <line class="cls-8" x1="98.1" y1="49.1" x2="70.6" y2="49.3"/>
    <polygon class="cls-13" points="76 44.3 67.3 49.4 76 54.3 76 44.3"/>
    <polygon class="cls-13" points="97.5 44.1 106.2 49.2 97.5 54.2 97.5 44.1"/>
  </g>
  <g>
    <line class="cls-7" x1="146.4" y1="102.7" x2="117" y2="49.2"/>
    <polygon class="cls-12" points="122.8 49.2 114.2 44.2 114.1 54.2 122.8 49.2"/>
    <polygon class="cls-12" points="150.3 99.5 150.8 109.6 141.9 105 150.3 99.5"/>
  </g>
  <g>
    <g>
      <rect class="cls-2" x="89.2" y="148.3" width="42.5" height="27.6"/>
      <line class="cls-3" x1="107.9" y1="109.3" x2="107.9" y2="148.3"/>
    </g>
    <text class="cls-17" transform="translate(101.07 169.15)"><tspan x="0" y="0">F</tspan></text>
    <text class="cls-17" transform="translate(112.43 169.15)"><tspan x="0" y="0">1</tspan></text>
  </g>
  <g>
    <g>
      <line class="cls-5" x1="43" y1="84.9" x2="60.8" y2="84.9"/>
      <rect class="cls-1" x=".5" y="71.1" width="42.5" height="27.6"/>
    </g>
    <text class="cls-17" transform="translate(9.86 91.73)"><tspan x="0" y="0">F2</tspan></text>
  </g>
  <g>
    <g>
      <rect class="cls-2" x="65.4" y=".5" width="42.5" height="27.6"/>
      <line class="cls-3" x1="86.7" y1="28.1" x2="86.7" y2="49.3"/>
    </g>
    <text class="cls-17" transform="translate(76.04 21.45)"><tspan x="0" y="0">F3</tspan></text>
  </g>
  <g>
    <g>
      <line class="cls-5" x1="131.5" y1="76.9" x2="149.3" y2="76.9"/>
      <rect class="cls-1" x="148.9" y="63.1" width="42.5" height="27.6"/>
    </g>
    <text class="cls-17" transform="translate(159.24 83.58)"><tspan x="0" y="0">F</tspan></text>
    <text class="cls-17" transform="translate(169.68 83.58)"><tspan x="0" y="0">4</tspan></text>
  </g>
  <g>
    <line class="cls-9" x1="633.3" y1="109.5" x2="157.2" y2="109.8"/>
    <polygon class="cls-14" points="160.7 104.8 151.9 109.8 160.6 114.8 160.7 104.8"/>
    <polygon class="cls-14" points="631.8 104.4 640.4 109.5 631.7 114.4 631.8 104.4"/>
  </g>
  <g>
    <rect class="cls-4" x="383.1" y="69.8" width="42.5" height="27.6"/>
    <text class="cls-17" transform="translate(392.31 90.71)"><tspan class="cls-16" x="0" y="0">B</tspan><tspan class="cls-15" x="12.8" y="0">2</tspan></text>
    <line class="cls-6" x1="404.4" y1="97.4" x2="404.4" y2="110.2"/>
  </g>
</svg>