<?xml version="1.0" encoding="utf-8"?>
<!-- Generator: Adobe Illustrator 27.3.1, SVG Export Plug-In . SVG Version: 6.00 Build 0)  -->
<svg version="1.1" id="Layer_1" xmlns="http://www.w3.org/2000/svg" xmlns:xlink="http://www.w3.org/1999/xlink" x="0px" y="0px"
	 viewBox="0 0 729 729" style="enable-background:new 0 0 729 729;" xml:space="preserve">
<style type="text/css">
	.st0{fill:#EB2027;stroke:#40DD8B;stroke-miterlimit:10;}
	.st1{fill:none;stroke:#40DD8B;stroke-miterlimit:10;}
	.st2{fill:none;stroke:#EB2027;stroke-miterlimit:10;}
	.st3{fill:#EB2027;stroke:#EB2027;stroke-width:2;stroke-miterlimit:10;}
	.st4{fill:#EB2027;stroke:#EB2027;stroke-width:0.8475;stroke-miterlimit:10;}
	.st5{fill:#EB2027;stroke:#EB2027;stroke-width:0.8333;stroke-miterlimit:10;}
	.st6{fill:#EB2027;stroke:#40DD8B;stroke-width:2;stroke-miterlimit:10;}
	.st7{fill:#40DD8B;}
	.st8{fill:#EB2027;stroke:#EB2027;stroke-width:0.7634;stroke-miterlimit:10;}
	.st9{fill:#EB2027;stroke:#EB2027;stroke-width:0.7576;stroke-miterlimit:10;}
	.st10{fill:none;stroke:#231F20;stroke-width:2;stroke-linecap:round;stroke-linejoin:round;}
	.st11{fill:none;stroke:#231F20;stroke-width:4;stroke-linecap:round;stroke-linejoin:round;}
	.st12{fill:none;stroke:#DE6969;stroke-linecap:round;stroke-linejoin:round;stroke-miterlimit:10;stroke-dasharray:2.0004;}
	
		.st13{fill:none;stroke:#231F20;stroke-width:2;stroke-linecap:round;stroke-linejoin:round;stroke-miterlimit:10;stroke-dasharray:5;}
	
		.st14{fill:none;stroke:#DE6969;stroke-width:1.3336;stroke-linecap:round;stroke-linejoin:round;stroke-miterlimit:10;stroke-dasharray:2.0004;}
	.st15{fill:#FFFFFF;stroke:#E9262A;stroke-miterlimit:10;}
	.st16{fill:#020202;}
	.st17{font-family:'SetupGrotesk-Medium';}
	.st18{font-size:20px;}
	.st19{fill:#FFFFFF;stroke:#40DD8B;stroke-miterlimit:10;}
	.st20{fill:none;stroke:#40DD8B;stroke-width:2;stroke-miterlimit:10;}
</style>
<g id="bD2cm">
	<line class="st0" x1="580.6" y1="228.6" x2="607.3" y2="228.6"/>
</g>
<g id="bD1cm">
	<line class="st1" x1="257.2" y1="372.8" x2="284" y2="372.8"/>
</g>
<g id="bTcm">
	<line class="st2" x1="124.1" y1="198.8" x2="124.1" y2="160.2"/>
</g>
<g id="bW2cm">
	<line class="st2" x1="317.6" y1="579.1" x2="317.6" y2="553.3"/>
</g>
<g id="bW1cm">
	<line class="st2" x1="365.6" y1="165.3" x2="365.6" y2="137.6"/>
</g>
<g id="mW1cm">
	<polyline class="st3" points="560.1,165.1 495.2,165.1 235.4,165.1 170.3,165.1 	"/>
	<polygon class="st4" points="177.1,159.6 167.1,165.1 177.1,170.8 	"/>
	<polygon class="st5" points="555.2,170.7 565.2,165.1 555.2,159.7 	"/>
</g>
<g id="mW2cm">
	<polyline class="st3" points="431.5,552.6 393.4,552.6 240.9,552.6 202.8,552.6 	"/>
	<polygon class="st4" points="209.5,546.9 199.5,552.6 209.5,558 	"/>
	<polygon class="st4" points="426.5,558 436.5,552.6 426.5,546.9 	"/>
</g>
<g id="mD1cm">
	<polyline class="st6" points="257.2,532.1 257.2,512.4 257.2,253.2 257.2,233.6 	"/>
	<polygon class="st7" points="262.2,238 257.2,229.2 252.2,238 	"/>
	<polygon class="st7" points="252.2,525.9 257.2,534.7 262.2,525.9 	"/>
</g>
<g id="mD2cm">
	<polyline class="st6" points="580.6,270.7 580.6,265 580.6,188.7 580.6,182.8 	"/>
	<polygon class="st7" points="585.6,187.2 580.6,178.4 575.6,187.2 	"/>
	<polygon class="st7" points="575.6,266.3 580.6,275.1 585.6,266.3 	"/>
</g>
<g id="mTcm">
	<polyline class="st3" points="107.4,215.7 109.9,213.1 144.4,178.7 147.1,176.1 	"/>
	<polygon class="st8" points="146.8,183.4 149.6,173.4 139.6,176.2 	"/>
	<polygon class="st9" points="105.1,210.8 102.3,220.5 112.3,217.7 	"/>
</g>
<g>
	<line class="st10" x1="437.8" y1="454.8" x2="484.8" y2="407.6"/>
	<line class="st10" x1="437.4" y1="463.1" x2="484.4" y2="415.7"/>
	<path class="st11" d="M518.6,224.7H118.2 M519.9,322.8l-0.4-97.3 M519.9,322.8l46.1-46.3 M484.6,494l-47,46.3 M438.4,389.9
		c3.9-72.2,82-67.9,81.5-67 M437.7,540.3c0.8,0.2-0.3-90.4,0.7-150.2 M566.3,177.7v98.4 M165.4,177.5h400.3 M118.2,224.7l46.9-47.1
		 M118.2,322.5v-97.8 M437.4,540.4H200.1 M504.2,323.4c-14.8,4.3-19.5,33.5-19.2,38.4v28.3v103.5"/>
	<path class="st12" d="M460.2,442.2"/>
	<line class="st13" x1="460.2" y1="442.2" x2="460.2" y2="515.9"/>
	<path class="st12" d="M460.2,513.8"/>
	<line class="st13" x1="465.6" y1="435.9" x2="465.6" y2="512"/>
	<path class="st14" d="M464.4,510.7"/>
	<path class="st14" d="M464.4,508.7"/>
	<line class="st11" x1="519.5" y1="224.7" x2="566.2" y2="177.7"/>
</g>
<g>
	<g>
		<rect x="344.4" y="110" class="st15" width="42.5" height="27.6"/>
	</g>
</g>
<text transform="matrix(1 0 0 1 358.3355 129.8495)" class="st16 st17 st18">A</text>
<g>
	<g>
		<rect x="296.7" y="574.7" class="st15" width="42.5" height="27.6"/>
	</g>
</g>
<text transform="matrix(1 0 0 1 311.6425 595.5718)" class="st16 st17 st18">B</text>
<g>
	<g>
		<rect x="284" y="359" class="st1" width="42.5" height="27.6"/>
	</g>
</g>
<text transform="matrix(1 0 0 1 296.6501 379.6564)" class="st16 st17 st18">C</text>
<g>
	<g>
		<rect x="102.8" y="136.9" class="st15" width="42.5" height="27.6"/>
	</g>
</g>
<text transform="matrix(1 0 0 1 116.8218 156.7936)" class="st16 st17 st18">D</text>
<g>
	<g>
		<rect x="607.3" y="214.8" class="st1" width="42.5" height="27.6"/>
	</g>
</g>
<text transform="matrix(1 0 0 1 622.296 235.7089)" class="st16 st17 st18">E</text>
<path class="st11" d="M198.6,378.9"/>
<path class="st11" d="M117.4,321.5"/>
<path class="st11" d="M199,540"/>
<path class="st11" d="M198.6,378.9"/>
<path class="st11" d="M118.2,322.5c-0.5-0.9,77.3-5.2,81.2,67.1"/>
<path class="st11" d="M199.4,389.7c1,59.9-0.1,150.4,0.7,150.2"/>
<polygon class="st7" points="131.9,338.4 131.3,327.1 121.9,333.3 "/>
<path class="st2" d="M423.7,518.9"/>
<polygon class="st7" points="193.8,530.4 183.8,530.4 188.9,539 "/>
<g id="bD1cm_00000021801473107091658420000008903452686155224754_">
	<line class="st1" x1="166.2" y1="413.8" x2="188.9" y2="413.8"/>
</g>
<g>
	<g>
		<rect x="123.7" y="399.8" class="st19" width="42.5" height="27.6"/>
	</g>
</g>
<text transform="matrix(1 0 0 1 139.0675 420.5537)" class="st16 st17 st18">F</text>
<path class="st20" d="M130.8,332.4c-1.9,0,47.3,3.3,55.2,42.8"/>
<path class="st20" d="M185.2,371.9c0,0,2.6,9.5,3.4,21l0.2,139.8"/>
</svg>
