<?xml version="1.0" encoding="utf-8"?>
<!-- Generator: Adobe Illustrator 27.3.1, SVG Export Plug-In . SVG Version: 6.00 Build 0)  -->
<svg version="1.1" id="Layer_1" xmlns="http://www.w3.org/2000/svg" xmlns:xlink="http://www.w3.org/1999/xlink" x="0px" y="0px"
	 viewBox="0 0 729 729" style="enable-background:new 0 0 729 729;" xml:space="preserve">
<style type="text/css">
	.st0{fill:none;stroke:#231F20;stroke-width:4;stroke-linecap:round;stroke-linejoin:round;}
	.st1{fill:none;stroke:#EB2027;stroke-width:2;stroke-miterlimit:10;}
	.st2{fill:#EB2027;stroke:#EB2027;stroke-width:0.7576;stroke-miterlimit:10;}
	.st3{fill:#EB2027;stroke:#EB2027;stroke-width:0.7692;stroke-miterlimit:10;}
	.st4{fill:none;stroke:#40DD8B;stroke-width:2;stroke-miterlimit:10;}
	.st5{fill:#40DD8B;}
	.st6{fill:none;stroke:#EB2027;stroke-miterlimit:10;}
	.st7{fill:#FFFFFF;stroke:#E8282B;stroke-miterlimit:10;}
	.st8{fill:#020202;}
	.st9{font-family:'SetupGrotesk-Medium';}
	.st10{font-size:20px;}
	.st11{fill:none;stroke:#231F20;stroke-width:3;stroke-linecap:round;stroke-linejoin:round;}
	.st12{fill:none;stroke:#020202;stroke-width:4;stroke-miterlimit:10;}
	.st13{fill:#EB2027;}
	.st14{fill:#EB2027;stroke:#EB2027;stroke-miterlimit:10;}
	.st15{fill:none;stroke:#40DD8B;stroke-miterlimit:10;}
	.st16{fill:#FFFFFF;stroke:#40DD8B;stroke-miterlimit:10;}
	.st17{fill:none;stroke:#EB2027;stroke-width:2.0162;stroke-miterlimit:10;}
</style>
<path class="st0" d="M301,486.9L45,339.1 M301,486.9l383.9-221.7 M301,585.4v-98.5 M45,437.6l256,147.8l383.9-221.7v-98.5
	l-256-147.8L45,339.1V437.6z"/>
<g id="mBcm">
	<line class="st1" x1="445.5" y1="115" x2="679.1" y2="249.9"/>
	<g>
		<polygon class="st2" points="443.8,120.2 438.8,111.7 448.8,111.7 		"/>
	</g>
	<g>
		<polygon class="st3" points="677.5,254.1 687.5,254.1 682.4,245.2 		"/>
	</g>
</g>
<g id="mA2cm">
	<path class="st1" d="M292.8,569.5"/>
	<g>
		<polygon class="st2" points="292.6,487.1 287.4,495.7 297.4,496 		"/>
	</g>
</g>
<g>
	<polygon class="st2" points="297.8,566.4 287.8,566.7 293,575.3 	"/>
</g>
<g id="mBcm_00000123402086481225943600000011255513527930927530_">
	<line class="st4" x1="300.4" y1="472.8" x2="661.8" y2="266.9"/>
	<g>
		<polygon class="st5" points="303.9,476.4 293.9,476.2 299.2,467.6 		"/>
	</g>
	<g>
		<polygon class="st5" points="664.1,271.3 669.2,262.9 659.2,262.6 		"/>
	</g>
</g>
<path class="st6" d="M504.9,381.9"/>
<path class="st6" d="M504.9,422.6"/>
<line class="st6" x1="568.1" y1="154.6" x2="568.1" y2="185.8"/>
<g>
	<g>
		<rect x="546.9" y="137.8" class="st7" width="42.5" height="27.6"/>
	</g>
</g>
<text transform="matrix(1 0 0 1 558.7605 158.8086)" class="st8 st9 st10">A1</text>
<path class="st11" d="M614.4,404.4"/>
<polyline class="st0" points="45,438.6 45,470.9 87.7,494.3 87.7,464.1 "/>
<line class="st0" x1="87.7" y1="494.3" x2="114.9" y2="479.3"/>
<polyline class="st0" points="246,554.5 246.5,587.3 301.5,616.3 301,585.8 "/>
<polyline class="st0" points="354.5,555.3 354.5,584.3 301.5,616.3 "/>
<polyline class="st0" points="684.9,364.5 684.9,392.3 642.2,418.3 642.2,389.2 "/>
<line class="st0" x1="642.2" y1="418.3" x2="615" y2="405.2"/>
<polyline class="st12" points="45,392.7 299.4,533.8 684.9,315.1 "/>
<line class="st1" x1="292.8" y1="495.4" x2="292.8" y2="568.5"/>
<g id="mA2cm_00000173134761209116891870000000947475770328576926_">
	<path class="st1" d="M693.3,449.2"/>
	<g>
		<polygon class="st13" points="55.1,446.6 49.9,455.3 59.9,455.4 		"/>
	</g>
</g>
<g>
	<polygon class="st13" points="60,464.2 50,464.2 55.1,472.9 	"/>
</g>
<line class="st1" x1="54.9" y1="452.2" x2="54.9" y2="465.5"/>
<polygon class="st14" points="543.6,349.6 538.4,358.2 548.4,358.5 "/>
<polygon class="st14" points="548.4,382.5 538.4,382.8 543.6,391.4 "/>
<line class="st1" x1="543.4" y1="358" x2="543.4" y2="383"/>
<line class="st6" x1="55.4" y1="459.9" x2="69.8" y2="459.9"/>
<g>
	<g>
		<rect x="69.8" y="446.7" class="st7" width="42.5" height="27.6"/>
	</g>
</g>
<text transform="matrix(1 0 0 1 84.6649 467.7061)" class="st8 st9 st10">E</text>
<line class="st15" x1="471.7" y1="344.2" x2="471.7" y2="375.4"/>
<g>
	<g>
		<rect x="450.4" y="327.4" class="st16" width="42.5" height="27.6"/>
	</g>
</g>
<text transform="matrix(1 0 0 1 461.5253 348.4113)" class="st8 st9 st10">B1</text>
<line class="st6" x1="274.5" y1="530.5" x2="292.4" y2="530.5"/>
<g>
	<g>
		<rect x="234.6" y="515.2" class="st7" width="42.5" height="27.6"/>
	</g>
</g>
<text transform="matrix(1 0 0 1 247.4586 536.2283)" class="st8 st9 st10">C</text>
<line class="st6" x1="543.4" y1="370.5" x2="561.8" y2="370.5"/>
<g>
	<g>
		<rect x="561.8" y="356.7" class="st7" width="42.5" height="27.6"/>
	</g>
</g>
<text transform="matrix(1 0 0 1 576.6447 377.7283)" class="st8 st9 st10">D</text>
<line class="st4" x1="312.2" y1="556.4" x2="675" y2="349.2"/>
<path class="st14" d="M310.2,557.9"/>
<path class="st14" d="M323.3,558.1"/>
<line class="st15" x1="509.3" y1="442.7" x2="509.3" y2="473.9"/>
<g>
	<g>
		<rect x="488.1" y="473.7" class="st16" width="42.5" height="27.6"/>
	</g>
</g>
<text transform="matrix(1 0 0 1 496.9104 495.4422)" class="st8 st9 st10">B2</text>
<g>
	<polygon class="st5" points="315.2,559.3 305.2,559.1 310.4,550.6 	"/>
</g>
<g>
	<polygon class="st5" points="677,353.9 682.1,345.6 672.1,345.3 	"/>
</g>
<g>
	<polygon class="st2" points="49.8,384.6 54.8,393.3 60,384.7 	"/>
</g>
<g>
	<polygon class="st2" points="290.8,513.2 286.1,522.1 296.2,521.7 	"/>
</g>
<line class="st17" x1="54.9" y1="387.9" x2="289.9" y2="518.9"/>
<g>
	<g>
		<rect x="154.7" y="400.4" class="st7" width="42.5" height="27.6"/>
	</g>
</g>
<text transform="matrix(1 0 0 1 163.5981 421.4178)" class="st8 st9 st10">A2</text>
<line class="st6" x1="176" y1="455.3" x2="176" y2="428"/>
</svg>
