<?xml version="1.0" encoding="utf-8"?>
<!-- Generator: Adobe Illustrator 27.3.1, SVG Export Plug-In . SVG Version: 6.00 Build 0)  -->
<svg version="1.1" id="Layer_1" xmlns="http://www.w3.org/2000/svg" xmlns:xlink="http://www.w3.org/1999/xlink" x="0px" y="0px"
	 viewBox="0 0 729 729" style="enable-background:new 0 0 729 729;" xml:space="preserve">
<style type="text/css">
	.st0{fill:none;stroke:#EB2127;stroke-miterlimit:10;}
	.st1{fill:#010101;}
	.st2{font-family:'SetupGrotesk-Medium';}
	.st3{font-size:20px;}
	.st4{fill:none;stroke:#EB2027;stroke-miterlimit:10;}
	.st5{fill:none;stroke:#40DD8B;stroke-miterlimit:10;}
	.st6{fill:none;stroke:#231F20;stroke-width:4;stroke-linecap:round;stroke-linejoin:round;}
	.st7{fill:none;stroke:#231F20;stroke-width:2;stroke-linecap:round;stroke-linejoin:round;}
	
		.st8{fill:none;stroke:#231F20;stroke-width:2;stroke-linecap:round;stroke-linejoin:round;stroke-miterlimit:10;stroke-dasharray:5;}
	.st9{fill:#EB2027;stroke:#EB2027;stroke-miterlimit:10;}
	.st10{fill:#EB2027;stroke:#EB2027;stroke-width:2;stroke-miterlimit:10;}
	.st11{fill:none;stroke:#40DD8B;stroke-width:2;stroke-miterlimit:10;}
	.st12{fill:#40DD8B;}
</style>
<path class="st0" d="M400.5,547.4"/>
<path class="st0" d="M346.3,547.4"/>
<text transform="matrix(1 0 0 1 367.067 567.5317)" class="st1 st2 st3">B</text>
<g id="bTcm">
	<path class="st4" d="M98.9,233.4"/>
	<path class="st4" d="M98.9,264"/>
</g>
<g id="bD1cm">
	<line class="st5" x1="301.5" y1="374" x2="331.8" y2="374"/>
</g>
<g id="bW2cm">
	<line class="st4" x1="373.4" y1="547.4" x2="373.4" y2="523.8"/>
</g>
<g id="bW1cm">
	<line class="st4" x1="373.4" y1="213.1" x2="373.4" y2="190.2"/>
</g>
<g>
	<path class="st6" d="M629.7,262.8l36.1-37.1 M129.6,509.8h433.6 M66.4,265.8L129.2,509 M109.2,225.7l-42.4,39.5 M665.8,225.7H109.2
		 M563.2,509.8l37.1-35.6c1.5-1.3,2.4-3.1,2.9-4.9l63.2-243.1 M628.7,262.8l-560.1,2.5 M563.6,508.7l66.1-245.9"/>
</g>
<path class="st7" d="M583.7,436l36.9-35.8 M580.3,450.1l37.5-37.4"/>
<line class="st8" x1="596.2" y1="437.8" x2="584.2" y2="488.4"/>
<line class="st8" x1="605.2" y1="428.3" x2="592.8" y2="480"/>
<g id="mW1cm">
	<polyline class="st9" points="661.5,213.3 610.5,213.3 283.4,213.3 109.2,213.3 	"/>
	<g>
		<polyline class="st10" points="654,213.3 610.5,213.3 283.4,213.3 116.7,213.3 		"/>
		<g>
			<polygon class="st9" points="652.5,208.1 661.5,213.3 652.5,218.5 			"/>
		</g>
		<g>
			<polygon class="st9" points="118.2,208.1 109.2,213.3 118.2,218.5 			"/>
		</g>
	</g>
</g>
<g id="mW2cm">
	<polyline class="st9" points="557.4,523 527.6,523 287.8,523 134.6,523 	"/>
	<g>
		<polyline class="st10" points="549.9,523 527.6,523 287.8,523 142.1,523 		"/>
		<g>
			<polygon class="st9" points="548.4,517.8 557.4,523 548.4,528.2 			"/>
		</g>
		<g>
			<polygon class="st9" points="143.6,517.8 134.6,523 143.6,528.2 			"/>
		</g>
	</g>
</g>
<g id="mTcm">
	<line class="st11" x1="93.9" y1="224.4" x2="63.9" y2="252.2"/>
	<g>
		<polygon class="st12" points="89.4,221.6 99.4,218.9 96.8,229 		"/>
	</g>
	<g>
		<polygon class="st12" points="61.3,247.5 58.7,257.5 68.6,254.8 		"/>
	</g>
</g>
<g id="mD1cm">
	<polyline class="st11" points="301.5,496.3 301.5,488 301.5,284.9 301.5,276.6 	"/>
	<g>
		<polygon class="st12" points="306.4,495 301.5,503.5 296.6,495 		"/>
	</g>
	<g>
		<polygon class="st12" points="306.4,277.9 301.5,269.4 296.6,277.9 		"/>
	</g>
</g>
<text transform="matrix(1 0 0 1 366.067 183.3662)" class="st1 st2 st3">A</text>
<text transform="matrix(1 0 0 1 345.4934 381.4183)" class="st1 st2 st3">C</text>
<path class="st0" d="M72.4,234.1"/>
<path class="st0" d="M101.2,211.7"/>
<path class="st0" d="M100,211.7"/>
<path class="st0" d="M100,176.5"/>
<path class="st0" d="M101.2,176.5"/>
<path class="st0" d="M76.4,196.5"/>
<g id="bTcm_00000176727695548479730570000014896205443034316191_">
	<line class="st5" x1="77.6" y1="239.7" x2="77.6" y2="207.2"/>
</g>
<g>
	<g>
		<rect x="56.4" y="179.6" class="st5" width="42.5" height="27.6"/>
	</g>
</g>
<text transform="matrix(1 0 0 1 70.3757 200.53)" class="st1 st2 st3">D</text>
<g>
	<g>
		<rect x="332.5" y="360.2" class="st5" width="42.5" height="27.6"/>
	</g>
</g>
<g>
	<g>
		<rect x="352.1" y="162.6" class="st4" width="42.5" height="27.6"/>
	</g>
</g>
<g>
	<g>
		<rect x="352.1" y="547.4" class="st4" width="42.5" height="27.6"/>
	</g>
</g>
</svg>
