<?xml version="1.0" encoding="utf-8"?>
<!-- Generator: Adobe Illustrator 27.3.1, SVG Export Plug-In . SVG Version: 6.00 Build 0)  -->
<svg version="1.1" id="Layer_1" xmlns="http://www.w3.org/2000/svg" xmlns:xlink="http://www.w3.org/1999/xlink" x="0px" y="0px"
	 viewBox="0 0 729 729" style="enable-background:new 0 0 729 729;" xml:space="preserve">
<style type="text/css">
	.st0{fill:#FFFFFF;stroke:#E9262A;stroke-miterlimit:10;}
	.st1{fill:none;stroke:#A6A8AB;stroke-width:2;stroke-linecap:round;stroke-linejoin:round;stroke-miterlimit:10;}
	.st2{fill:none;stroke:#231F20;stroke-width:4;stroke-linecap:round;stroke-linejoin:round;stroke-miterlimit:10;}
	.st3{fill:none;stroke:#EB2027;stroke-width:2;stroke-miterlimit:10;}
	.st4{fill:#EB2027;}
	.st5{fill:#40DD8B;}
	.st6{fill:none;stroke:#40DD8B;stroke-width:2;stroke-miterlimit:10;}
	.st7{fill:none;stroke:#40DD8B;stroke-miterlimit:10;}
	.st8{fill:#FFFFFF;stroke:#40DD8B;stroke-miterlimit:10;}
	.st9{fill:#020202;}
	.st10{font-family:'SetupGrotesk-Medium';}
	.st11{font-size:20px;}
	.st12{fill:none;stroke:#EB2027;stroke-miterlimit:10;}
	.st13{fill:none;stroke:#E9262A;stroke-miterlimit:10;}
</style>
<g>
	<g>
		<rect x="561.2" y="134.1" class="st0" width="42.5" height="27.6"/>
	</g>
</g>
<g>
	<path class="st1" d="M604.2,181.2c-1.6,0.3-75.7,134.5-3.9,364.5"/>
	<g>
		<path class="st2" d="M604.2,181.2c-12.3,80-14.2,138.5-14.2,189.3c0,64,11.1,159.8,13.1,173.1"/>
		<path class="st2" d="M605.7,180.7c-10.8,4.3-22.6,11.8-29.9,23.4"/>
		<path class="st2" d="M104.4,180.7c10.8,4.3,22.6,11.8,29.9,23.4"/>
		<path class="st2" d="M600.1,545.8c-10.8-4.3-22.6-11.8-29.9-23.4"/>
		<path class="st2" d="M110.5,542.6c10.8-4.3,22.6-11.8,29.9-23.4"/>
		<path class="st2" d="M582.5,548.8c2.4,0.2,4.7,0.2,7.1,0.4c3,0,6.2,0,9.2-1.1c10.3-3.9,6-17.4,4.7-25.3
			c-2.4-14.6,2.6-30.1,4.9-44.4c1.7-10.9,3.2-21.5,4.5-32.4c3-26.6,4.7-53.3,4.7-80.1c0-10.5-0.2-21-0.8-31.4
			c-1.1-23.6-5-46.8-7.7-70.2c-1.7-14.2-3.2-29-3-43.4c0.2-7.3,0.8-14.8,2.1-22.1c0.9-5.2,4.5-13.1,0.9-18.1
			c-3.2-4.5-11-3.7-15.7-3.4c-57.5,4.5-114.9,9.9-172.4,11.4c-5.2,0.2-96.8,0.6-100.5,0.6c-14.6,0-29.4-0.2-44-0.8
			c-18.7-0.9-37.1-1.7-55.8-3c-29-2.1-56.9-4.7-85.9-6.9c-8.1-0.8-17.6-2.1-25.6-1.1c-1.5,0.2-3.2,0.4-4.5,1.3
			c-3.2,1.9-3.6,6.4-3.2,9.5c0.2,3.6,1.7,6.7,2.4,10.1c6.6,32-0.2,60.6-3.6,90.2c-3,25.6-5.4,51.5-5.4,77.3c0,27,1.7,53.9,4.7,80.7
			c1.5,13.3,3.6,26.4,5.8,39.5c2.1,12.4,6,25.1,4.9,37.8c-0.9,9.4-9.2,23.4,5.2,24.5c8.6,0.8,16.8-2.1,25.3-3
			c49.8-6,99.2-6.5,149.1-6.5c5.6,0,11-0.2,16.7-0.2c13.1-0.2,26.4-0.2,39.5-0.2c15,0,29.8,0,44.7,0.2c28.5,0.2,57.1,0.8,85.5,1.5
			c18.7,0.6,37.4,0.2,56,2.6C549.2,544.5,565.8,547.7,582.5,548.8z"/>
	</g>
</g>
<g id="mDcm">
	<path class="st3" d="M597.3,172.3c-10.3,4.3-21.3,11.6-27.9,22.8"/>
	<polygon class="st4" points="597.5,178 605.3,171.1 595.3,168 	"/>
	<polygon class="st4" points="567.3,198.8 577.3,193.4 567.5,187.8 	"/>
</g>
<g id="mBcm">
	<path class="st3" d="M351.6,203.2"/>
	<path class="st3" d="M335.3,367.7"/>
	<path class="st3" d="M351.6,533.7"/>
	<polygon class="st4" points="357.5,522.4 351.7,532.8 345.6,522.6 	"/>
	<polygon class="st4" points="357.5,205.6 351.2,195.2 345.6,205.6 	"/>
</g>
<g id="mAcm">
	<path class="st3" d="M579.1,361.4"/>
	<path class="st3" d="M335.3,371"/>
	<path class="st3" d="M107.5,361.4"/>
	<polygon class="st5" points="112.7,367.4 102.4,361.4 112.7,355.4 	"/>
	<polygon class="st5" points="574,367.4 584.3,361.4 574,355.4 	"/>
</g>
<line class="st3" x1="351.2" y1="202.4" x2="351.2" y2="523.2"/>
<line class="st6" x1="108.2" y1="361.4" x2="581.3" y2="361.4"/>
<g id="bW1cm">
	<line class="st7" x1="263.6" y1="385.9" x2="263.6" y2="361.4"/>
</g>
<g>
	<g>
		<rect x="243.2" y="382.7" class="st8" width="42.5" height="27.6"/>
	</g>
</g>
<text transform="matrix(1 0 0 1 257.2174 403.5709)" class="st9 st10 st11">B</text>
<g id="bW1cm_00000034072515040008562840000002633339381327418511_">
	<line class="st12" x1="372.8" y1="324.2" x2="351.2" y2="324.2"/>
</g>
<g>
	<g>
		<rect x="373.4" y="310.4" class="st0" width="42.5" height="27.6"/>
	</g>
</g>
<text transform="matrix(1 0 0 1 387.3435 331.2876)" class="st9 st10 st11">A</text>
<text transform="matrix(1 0 0 1 574.4145 155.1185)" class="st9 st10 st11">C</text>
<line class="st13" x1="582.5" y1="161.7" x2="582.5" y2="180.7"/>
</svg>
