<?xml version="1.0" encoding="utf-8"?>
<!-- Generator: Adobe Illustrator 27.3.1, SVG Export Plug-In . SVG Version: 6.00 Build 0)  -->
<svg version="1.1" id="Layer_1" xmlns="http://www.w3.org/2000/svg" xmlns:xlink="http://www.w3.org/1999/xlink" x="0px" y="0px"
	 viewBox="0 0 729 729" style="enable-background:new 0 0 729 729;" xml:space="preserve">
<style type="text/css">
	.st0{fill:none;stroke:#A7A6A6;stroke-width:2.2;stroke-linecap:round;stroke-linejoin:round;stroke-dasharray:5,5;}
	.st1{fill:none;stroke:#231F20;stroke-width:4;stroke-linecap:round;stroke-linejoin:round;}
	.st2{fill:none;stroke:#505050;stroke-width:2.2;stroke-linecap:round;stroke-linejoin:round;}
	.st3{fill:none;stroke:#DE6969;stroke-width:2.2;stroke-miterlimit:10;}
	.st4{fill:none;stroke:#231F20;stroke-width:4;stroke-linecap:round;stroke-linejoin:round;stroke-dasharray:5,5;}
	.st5{fill:none;stroke:#EB2027;stroke-width:2;stroke-miterlimit:10;}
	.st6{fill:#EB2027;stroke:#EB2027;stroke-width:1.1834;stroke-miterlimit:10;}
	.st7{fill:#EB2027;stroke:#EB2027;stroke-width:1.2422;stroke-miterlimit:10;}
	.st8{fill:none;stroke:#EB2027;stroke-miterlimit:10;}
	.st9{fill:#FFFFFF;stroke:#E8282B;stroke-width:0.8268;stroke-miterlimit:10;}
	.st10{fill:#020202;}
	.st11{font-family:'SetupGrotesk-Medium';}
	.st12{font-size:20px;}
	.st13{fill:none;stroke:#63C083;stroke-width:2;stroke-miterlimit:10;}
	.st14{fill:#63C083;stroke:#63C083;stroke-width:2;stroke-miterlimit:10;}
	.st15{fill:#63C083;stroke:#63C083;stroke-width:1.6807;stroke-miterlimit:10;}
	.st16{fill:none;stroke:#63C083;stroke-width:2;stroke-linecap:round;stroke-linejoin:round;}
	.st17{fill:none;stroke:#63C083;stroke-width:2;stroke-miterlimit:10;stroke-dasharray:5,5;}
	.st18{fill:#EB2027;stroke:#EB2027;stroke-width:1.0695;stroke-miterlimit:10;}
	.st19{fill:#EB2027;stroke:#EB2027;stroke-width:1.0753;stroke-miterlimit:10;}
	.st20{fill:none;stroke:#63C083;stroke-miterlimit:10;}
	.st21{fill:#F9F9FA;stroke:#63C083;stroke-width:0.8266;stroke-miterlimit:10;}
	.st22{fill:none;stroke:#63C083;stroke-width:0.8268;stroke-miterlimit:10;}
</style>
<g>
	<path class="st0" d="M503.8,141.9"/>
	<path class="st0" d="M450.4,235.5"/>
	<path class="st0" d="M559,344.1"/>
	<path class="st0" d="M606.9,333"/>
	<g>
		<circle class="st1" cx="203.2" cy="447.7" r="114.1"/>
		<path class="st2" d="M146.3,346"/>
		<path class="st2" d="M480.5,153.1"/>
		<path class="st2" d="M247.5,538.8"/>
		<path class="st2" d="M618.2,326.9"/>
		<path class="st2" d="M247.5,538.8"/>
		<path class="st2" d="M595.8,337.1"/>
	</g>
</g>
<g id="cD1cm">
	<path class="st3" d="M209.2,463.6"/>
</g>
<g id="mD1cm">
	<path class="st3" d="M106.7,448"/>
	<path class="st3" d="M126.8,448"/>
	<path class="st3" d="M288,448"/>
	<path class="st3" d="M312,448"/>
</g>
<path class="st4" d="M462.2,310.3c-32.9-50.2-18.9-117.5,31.3-150.4"/>
<path class="st4" d="M612.5,341.6c-50.2,32.9-117.5,18.9-150.4-31.3"/>
<path class="st1" d="M643.8,191.3c32.9,50.2,18.9,117.5-31.3,150.3"/>
<path class="st1" d="M157.9,342.2L493.5,160c50.2-32.9,117.5-18.9,150.4,31.3"/>
<line class="st1" x1="267.9" y1="541.7" x2="611.6" y2="342.2"/>
<g id="mL1cm">
	<line class="st5" x1="101.7" y1="453.2" x2="303.4" y2="453.4"/>
	<g>
		<polygon class="st6" points="102.1,458.7 92.5,453.2 102,447.7 		"/>
	</g>
	<g>
		<polygon class="st7" points="302.2,459 312,453 302,447.4 		"/>
	</g>
</g>
<line class="st8" x1="241.6" y1="452.7" x2="241.6" y2="415.6"/>
<g>
	<g>
		<rect x="220.3" y="405.5" class="st9" width="42.5" height="27.6"/>
	</g>
</g>
<text transform="matrix(1 0 0 1 235.481 427.0504)" class="st10 st11 st12">A</text>
<line class="st13" x1="201.5" y1="341.3" x2="201.9" y2="555.1"/>
<g>
	<polygon class="st14" points="201.6,339.8 195.1,351.3 208.3,351.3 	"/>
</g>
<g>
	<polygon class="st14" points="208.3,543.4 195.1,543.7 202,555.1 	"/>
</g>
<g id="mBcm_00000123402086481225943600000011255513527930927530_">
	<line class="st5" x1="325.9" y1="439.5" x2="651.7" y2="253.4"/>
	<g>
		<polygon class="st15" points="523.9,272.6 524.5,261.6 514.5,266.7 		"/>
	</g>
</g>
<path class="st4" d="M359,231.7"/>
<path class="st4" d="M366.4,373.4"/>
<path class="st4" d="M366.4,373.4"/>
<path class="st4" d="M488.9,413.4"/>
<path class="st1" d="M492.1,411.5"/>
<path class="st1" d="M554.6,258.6"/>
<path class="st1" d="M548.8,247.6"/>
<path class="st1" d="M362.8,227.1"/>
<path class="st4" d="M367.3,218.4"/>
<path class="st4" d="M313.9,378.9"/>
<path class="st4" d="M474.5,432.3"/>
<path class="st4" d="M527.9,271.8"/>
<path class="st16" d="M521,267.6c-29.6-59.1-98.1-76.6-157.1-47c0,0-20.1,12.2-28.5,25.3"/>
<path class="st16" d="M527.9,281.6c29.6,59.1,2.2,123.3-56.9,152.9"/>
<path class="st17" d="M311.9,380.4c0,0,31.4,77.8,128.3,61.9"/>
<path class="st14" d="M471.5,434.1c0,0-20.5,8.8-32.1,8.1"/>
<path class="st17" d="M311.7,380.4c-30.5-84.1,21-131.7,21-131.7"/>
<path class="st1" d="M368.2,218.4"/>
<path class="st1" d="M342.4,240.7"/>
<g>
	<polygon class="st18" points="332.3,441.6 322.3,441.8 327.2,433.1 	"/>
</g>
<g>
	<polygon class="st19" points="651.7,259.7 646.2,251.3 656.2,250.8 	"/>
</g>
<line class="st20" x1="484.2" y1="225.1" x2="528.6" y2="225.1"/>
<g>
	<g>
		<rect x="522.5" y="211.3" class="st21" width="42.5" height="27.6"/>
	</g>
</g>
<text transform="matrix(1 0 0 1 536.8374 232.4642)" class="st10 st11 st12">D</text>
<line class="st8" x1="424.7" y1="381.6" x2="424.7" y2="329.6"/>
<g>
	<g>
		<rect x="403.5" y="324.2" class="st9" width="42.5" height="27.6"/>
	</g>
</g>
<text transform="matrix(1 0 0 1 416.5814 345.7175)" class="st10 st11 st12">C</text>
<line class="st20" x1="201.5" y1="390.1" x2="183.3" y2="390.1"/>
<g>
	<g>
		<rect x="140.8" y="376.3" class="st22" width="42.5" height="27.6"/>
	</g>
</g>
<text transform="matrix(1 0 0 1 154.9018 397.8813)" class="st10 st11 st12">B</text>
</svg>
