<?xml version="1.0" encoding="utf-8"?>
<!-- Generator: Adobe Illustrator 27.3.1, SVG Export Plug-In . SVG Version: 6.00 Build 0)  -->
<svg version="1.1" id="Layer_1" xmlns="http://www.w3.org/2000/svg" xmlns:xlink="http://www.w3.org/1999/xlink" x="0px" y="0px"
	 viewBox="0 0 729 729" style="enable-background:new 0 0 729 729;" xml:space="preserve">
<style type="text/css">
	.st0{fill:none;stroke:#40DD8B;stroke-width:2;stroke-miterlimit:10;}
	.st1{fill:none;stroke:#EB2027;stroke-width:2;stroke-miterlimit:10;}
	.st2{fill:#EB2027;stroke:#EB2027;stroke-width:0.8285;stroke-miterlimit:10;}
	.st3{fill:#EB2027;stroke:#EB2027;stroke-width:0.8143;stroke-miterlimit:10;}
	.st4{fill:#40DD8B;}
	.st5{fill:none;stroke:#231F20;stroke-width:2;stroke-linecap:round;stroke-linejoin:round;stroke-miterlimit:10;}
	
		.st6{fill:none;stroke:#231F20;stroke-width:4;stroke-linecap:round;stroke-linejoin:round;stroke-miterlimit:10;stroke-dasharray:1.109,2.085;}
	
		.st7{fill:none;stroke:#231F20;stroke-width:2;stroke-linecap:round;stroke-linejoin:round;stroke-miterlimit:10;stroke-dasharray:5;}
	.st8{fill:none;stroke:#231F20;stroke-width:4;stroke-linecap:round;stroke-linejoin:round;stroke-miterlimit:10;}
	.st9{fill:#EB2027;stroke:#EB2027;stroke-width:0.8725;stroke-miterlimit:10;}
	.st10{fill:#EB2027;}
	.st11{fill:#EB2027;stroke:#EB2027;stroke-width:0.8278;stroke-miterlimit:10;}
	.st12{fill:#EB2027;stroke:#EB2027;stroke-width:0.8562;stroke-miterlimit:10;}
	.st13{fill:none;stroke:#EB2027;stroke-linecap:round;stroke-linejoin:round;stroke-miterlimit:10;}
	.st14{fill:#FFFFFF;stroke:#E9262A;stroke-miterlimit:10;}
	.st15{fill:#020202;}
	.st16{font-family:'SetupGrotesk-Medium';}
	.st17{font-size:20px;}
	.st18{fill:none;stroke:#40DD8B;stroke-miterlimit:10;}
</style>
<g id="mFcm">
	<polyline class="st0" points="123,559.5 123,548 123,399.9 123,388.4 	"/>
</g>
<g id="mEcm">
	<polyline class="st1" points="135.6,363.5 137.7,360.5 209.2,258.6 211.2,255.6 	"/>
	<polygon class="st2" points="212.4,263.2 213.5,252 203.5,256.9 	"/>
	<polygon class="st3" points="131.7,360.2 130.6,371.3 140.6,366.5 	"/>
</g>
<g id="mDcm">
	<polyline class="st0" points="553.7,570.1 556.3,567.5 590.5,533.3 593.1,530.7 	"/>
	<polygon class="st4" points="592.8,538.1 595.7,528.1 585.7,530.9 	"/>
	<polygon class="st4" points="551.6,565.1 548.7,575.1 558.7,572.2 	"/>
</g>
<g>
	<path class="st5" d="M538.4,488.4l46.5-46.9 M538.2,477.8l46.5-46.9"/>
	<path class="st6" d="M561.2,467.6"/>
	<line class="st7" x1="561.2" y1="467.6" x2="561.2" y2="540.5"/>
	<line class="st7" x1="567.4" y1="459.2" x2="567.4" y2="531.7"/>
	<polygon class="st8" points="230.2,254.8 537.8,254.8 537.8,564.4 140.5,564.4 140.5,384.9 	"/>
	<polyline class="st8" points="230.2,254.8 276.9,206.7 586.9,205.5 586.9,515.5 537.8,564.4 	"/>
	<line class="st8" x1="537.8" y1="254.8" x2="584.6" y2="207.9"/>
</g>
<g id="mAcm">
	<polyline class="st1" points="580.7,189.3 532.4,189.3 333,189.3 286.3,189.3 	"/>
	<polygon class="st9" points="292.6,184.9 282.6,189.3 292.6,193.9 	"/>
	<polygon class="st10" points="575.7,193.9 585.7,189.3 575.7,184.9 	"/>
</g>
<g id="mBcm">
	<polyline class="st1" points="526.9,580.5 358.4,580.5 207.1,580.5 146,580.5 	"/>
	<polygon class="st11" points="152.6,575.1 142.6,580.5 152.6,586.1 	"/>
	<polygon class="st12" points="521.8,586.3 531.8,580.5 521.8,574.9 	"/>
</g>
<g id="mCcm">
	<polyline class="st0" points="351.4,557.8 351.4,538 351.4,283 351.4,263.2 	"/>
	<polygon class="st4" points="356.3,267.7 351.4,258.7 346.3,267.7 	"/>
	<polygon class="st4" points="346.3,551.6 351.4,560.5 356.3,551.6 	"/>
</g>
<polygon class="st4" points="128,395.3 123.1,386.3 118,395.3 "/>
<polygon class="st4" points="117.8,553 122.9,562 127.8,553 "/>
<g id="cAcm">
	<line class="st13" x1="433.5" y1="166.9" x2="433.5" y2="189.3"/>
</g>
<g>
	<g>
		<rect x="412.3" y="144.8" class="st14" width="42.5" height="27.6"/>
	</g>
</g>
<text transform="matrix(1 0 0 1 426.2318 164.6508)" class="st15 st16 st17">A</text>
<g id="cAcm_00000127757483744865988160000004052711614984001664_">
	<line class="st13" x1="165.3" y1="284.9" x2="165.3" y2="321.1"/>
</g>
<g>
	<g>
		<rect x="144.1" y="257.3" class="st14" width="42.5" height="27.6"/>
	</g>
</g>
<text transform="matrix(1 0 0 1 159.0618 278.1488)" class="st15 st16 st17">F</text>
<g id="cAcm_00000160163805999932993250000018327737176506435722_">
	<line class="st18" x1="123" y1="480.7" x2="105.5" y2="480.7"/>
</g>
<g>
	<g>
		<rect x="63" y="466.9" class="st18" width="42.5" height="27.6"/>
	</g>
</g>
<text transform="matrix(1 0 0 1 77.9387 487.8079)" class="st15 st16 st17">E</text>
<g id="cAcm_00000052099884781725118620000010676543958844006055_">
	<line class="st18" x1="380.2" y1="402.2" x2="351.3" y2="402.2"/>
</g>
<g>
	<g>
		<rect x="380.2" y="387.6" class="st18" width="42.5" height="27.6"/>
	</g>
</g>
<text transform="matrix(1 0 0 1 393.1822 408.5123)" class="st15 st16 st17">C</text>
<g id="cAcm_00000081644282323060314400000016817316114644046749_">
	<line class="st13" x1="344.7" y1="580" x2="344.7" y2="603.6"/>
</g>
<g>
	<g>
		<rect x="323.5" y="602.3" class="st14" width="42.5" height="27.6"/>
	</g>
</g>
<text transform="matrix(1 0 0 1 337.4301 623.1349)" class="st15 st16 st17">B</text>
<g id="cAcm_00000165231238999148775300000014083217323235978658_">
	<line class="st18" x1="575" y1="549.7" x2="575" y2="582.1"/>
</g>
<g>
	<g>
		<rect x="553.8" y="582.1" class="st18" width="42.5" height="27.6"/>
	</g>
</g>
<text transform="matrix(1 0 0 1 567.7402 602.9824)" class="st15 st16 st17">D</text>
</svg>
