<?xml version="1.0" encoding="utf-8"?>
<!-- Generator: Adobe Illustrator 27.3.1, SVG Export Plug-In . SVG Version: 6.00 Build 0)  -->
<svg version="1.1" id="Layer_1" xmlns="http://www.w3.org/2000/svg" xmlns:xlink="http://www.w3.org/1999/xlink" x="0px" y="0px"
	 viewBox="0 0 729 729" style="enable-background:new 0 0 729 729;" xml:space="preserve">
<style type="text/css">
	.st0{fill:none;stroke:#EB2027;stroke-width:2;stroke-miterlimit:10;stroke-dasharray:5;}
	.st1{fill:none;stroke:#231F20;stroke-width:4;stroke-miterlimit:10;}
	.st2{fill:none;stroke:#EB2027;stroke-width:2;stroke-miterlimit:10;}
	.st3{fill:#EB2027;stroke:#EB2027;stroke-width:0.625;stroke-miterlimit:10;}
	.st4{fill:none;stroke:#EB2027;stroke-width:2;stroke-linecap:round;stroke-miterlimit:10;}
	.st5{fill:none;stroke:#EB2027;stroke-miterlimit:10;}
	.st6{fill:#FFFFFF;stroke:#E8282B;stroke-width:0.8268;stroke-miterlimit:10;}
	.st7{fill:#020202;}
	.st8{font-family:'SetupGrotesk-Medium';}
	.st9{font-size:20px;}
	.st10{fill:#63C083;stroke:#63C083;stroke-width:0.5376;stroke-miterlimit:10;}
	.st11{fill:none;stroke:#63C083;stroke-width:2;stroke-miterlimit:10;}
	.st12{fill:none;stroke:#63C083;stroke-miterlimit:10;}
	.st13{fill:#F9F9FA;stroke:#63C083;stroke-width:0.8268;stroke-miterlimit:10;}
	.st14{fill:#63C083;stroke:#63C083;stroke-width:0.5405;stroke-miterlimit:10;}
	.st15{fill:none;stroke:#231F20;stroke-width:4;stroke-linecap:round;stroke-miterlimit:10;}
</style>
<path class="st0" d="M72.2,318.5c50.3-26.7,169-30.6,302.2-30.6"/>
<path class="st0" d="M348.7,288c133.2,0,264.3,3.1,314.6,29.8"/>
<ellipse class="st1" cx="366.8" cy="286.8" rx="298.6" ry="100.9"/>
<path class="st1" d="M665.4,382.2l-0.6-89.2"/>
<line class="st1" x1="68.2" y1="285.8" x2="68.2" y2="381.5"/>
<path class="st2" d="M67.8,324.6"/>
<path class="st2" d="M355.5,433.3c-179.6,0-295.6-45.5-295.6-98.9c0,0-0.8-7.4,5.9-12.6"/>
<path class="st2" d="M375.7,431.8c179.6,0,297.1-42.2,297.1-95.6c0,0,0.9-9.2-6-14.8"/>
<g>
	<polygon class="st3" points="355.2,438.6 365.2,433.3 355.3,428 	"/>
</g>
<path class="st0" d="M691.4,427"/>
<path class="st0" d="M366.1,321.1"/>
<path class="st0" d="M40.9,331"/>
<path class="st4" d="M59.9,333"/>
<path class="st4" d="M691.4,380.4"/>
<path class="st4" d="M668.4,341.2"/>
<g id="mL1cm">
	<line class="st2" x1="88.3" y1="273.7" x2="653.8" y2="274"/>
</g>
<line class="st5" x1="228.2" y1="273.2" x2="228.2" y2="221.2"/>
<g>
	<g>
		<rect x="207.1" y="215.7" class="st6" width="42.5" height="27.6"/>
	</g>
</g>
<text transform="matrix(1 0 0 1 221.1005 236.2457)" class="st7 st8 st9">A</text>
<path class="st5" d="M125.2,696.8"/>
<g>
	<polygon class="st10" points="482,392.9 487,384.1 492,392.7 	"/>
</g>
<g>
	<polygon class="st10" points="482,451.2 487,459.8 492,451.1 	"/>
</g>
<line class="st11" x1="487" y1="390.4" x2="487" y2="451.5"/>
<line class="st12" x1="487" y1="399.9" x2="512.4" y2="399.9"/>
<g>
	<g>
		<rect x="512.1" y="381.4" class="st13" width="42.5" height="27.6"/>
	</g>
</g>
<text transform="matrix(1 0 0 1 524.5725 402.3239)" class="st7 st8 st9">C</text>
<line class="st5" x1="293.3" y1="431" x2="293.3" y2="415.5"/>
<g>
	<g>
		<rect x="272" y="394.3" class="st6" width="42.5" height="27.6"/>
	</g>
</g>
<text transform="matrix(1 0 0 1 286.0589 415.6676)" class="st7 st8 st9">D</text>
<g>
	<polygon class="st14" points="358.5,199 363.5,190.2 368.5,198.9 	"/>
</g>
<g>
	<polygon class="st14" points="358.5,373.8 363.5,382.5 368.5,373.7 	"/>
</g>
<line class="st11" x1="363.5" y1="196.1" x2="363.5" y2="374.4"/>
<line class="st12" x1="363" y1="249.8" x2="405.2" y2="249.8"/>
<g>
	<g>
		<rect x="399" y="236" class="st13" width="42.5" height="27.6"/>
	</g>
</g>
<text transform="matrix(1 0 0 1 413.4736 257.1714)" class="st7 st8 st9">B</text>
<path class="st15" d="M357.4,478c0,0,279.9,0.6,308-96.6"/>
<path class="st1" d="M68.2,379.5c0,0-1.6,91.8,289.9,98.5"/>
<path class="st2" d="M67.4,324.2"/>
<g>
	<polygon class="st3" points="649.5,279.3 659.5,274 649.6,268.7 	"/>
</g>
<g>
	<polygon class="st3" points="88.8,268.4 78.9,273.7 88.9,279 	"/>
</g>
</svg>
