<?xml version="1.0" encoding="utf-8"?>
<!-- Generator: Adobe Illustrator 27.3.1, SVG Export Plug-In . SVG Version: 6.00 Build 0)  -->
<svg version="1.1" id="Layer_1" xmlns="http://www.w3.org/2000/svg" xmlns:xlink="http://www.w3.org/1999/xlink" x="0px" y="0px"
	 viewBox="0 0 729 729" style="enable-background:new 0 0 729 729;" xml:space="preserve">
<style type="text/css">
	.st0{fill:none;stroke:#231F20;stroke-width:2;stroke-linecap:round;stroke-linejoin:round;}
	.st1{fill:none;stroke:#231F20;stroke-width:4;stroke-linecap:round;stroke-linejoin:round;}
	.st2{fill:none;stroke:#231F20;stroke-width:4;stroke-linecap:round;stroke-linejoin:round;stroke-dasharray:2.009;}
	.st3{fill:none;stroke:#231F20;stroke-width:2;stroke-linecap:round;stroke-linejoin:round;stroke-dasharray:5;}
	.st4{fill:none;stroke:#231F20;stroke-width:2;stroke-linecap:round;stroke-linejoin:round;stroke-miterlimit:10;}
	.st5{fill:none;stroke:#EB2027;stroke-width:2;stroke-miterlimit:10;}
	.st6{fill:#EB2027;stroke:#EB2027;stroke-miterlimit:10;}
	.st7{fill:none;stroke:#40DD8B;stroke-width:2;stroke-linecap:round;stroke-linejoin:round;stroke-miterlimit:10;}
	.st8{fill:#40DD8B;}
	.st9{fill:none;stroke:#40DD8B;stroke-width:2;stroke-miterlimit:10;}
	.st10{fill:none;stroke:#40DD8B;stroke-miterlimit:10;}
	.st11{fill:none;stroke:#40DD8B;stroke-linecap:round;stroke-linejoin:round;stroke-miterlimit:10;}
	.st12{fill:none;stroke:#EB2027;stroke-linecap:round;stroke-linejoin:round;stroke-miterlimit:10;}
	.st13{fill:#FFFFFF;stroke:#E9262A;stroke-miterlimit:10;}
	.st14{fill:#020202;}
	.st15{font-family:'SetupGrotesk-Medium';}
	.st16{font-size:20px;}
	.st17{fill:#FFFFFF;stroke:#40DD8B;stroke-miterlimit:10;}
</style>
<g>
	<line class="st0" x1="579.7" y1="455.4" x2="624.8" y2="410"/>
	<line class="st0" x1="579.7" y1="465.4" x2="625.5" y2="419.3"/>
	<path class="st1" d="M110.7,529c0,0-17.9-238.6,18.1-327.2c2.1-5.5,7.4-9,13.2-9l435.1,0.4 M581.6,529.8H110.7 M626.8,485.8
		l-44.7,44 M605,205.6c23.3,44.9,21.8,280.2,21.8,280.2"/>
	<path class="st2" d="M603.5,443.1"/>
	<line class="st3" x1="602.6" y1="442.5" x2="602.6" y2="507.8"/>
	<path class="st2" d="M607.2,438.7"/>
	<line class="st3" x1="608.8" y1="437.8" x2="608.8" y2="501.5"/>
	<path class="st4" d="M588.1,212.1c-3.2,8.2-14.8,146.8-6.7,316.1"/>
</g>
<g id="mAcm">
	<g>
		<line class="st5" x1="590.5" y1="178.5" x2="138.5" y2="178.5"/>
		<g>
			<polygon class="st6" points="588.7,172.8 598.6,178.5 588.7,184.1 			"/>
		</g>
		<g>
			<polygon class="st6" points="140.1,172.8 130.4,178.5 140.1,184.1 			"/>
		</g>
	</g>
</g>
<g id="mBcm">
	<g>
		<line class="st5" x1="575.1" y1="547.9" x2="116.1" y2="547.9"/>
		<g>
			<polygon class="st6" points="573.5,542.3 583.2,547.9 573.5,553.6 			"/>
		</g>
		<g>
			<polygon class="st6" points="117.7,542.3 108,547.9 117.7,553.6 			"/>
		</g>
	</g>
</g>
<g id="mDcm">
	<g>
		<line class="st7" x1="630.8" y1="497.8" x2="594.7" y2="534.1"/>
		<g>
			<polygon class="st8" points="625.8,494.8 635.8,492.2 633,502 			"/>
		</g>
		<g>
			<polygon class="st8" points="592.1,529.4 589.3,539.4 599.3,536.7 			"/>
		</g>
	</g>
</g>
<g id="mC1cm">
	<g>
		<line class="st9" x1="597.8" y1="208.7" x2="598.6" y2="506.2"/>
		<g>
			<polygon class="st8" points="592.8,210.8 597.8,202.3 602.8,210.8 			"/>
		</g>
		<g>
			<polygon class="st8" points="593.6,500.8 598.6,509.7 603.6,500.8 			"/>
		</g>
	</g>
</g>
<g id="cC1cm">
	<line class="st10" x1="639.3" y1="326.4" x2="598.6" y2="326.4"/>
</g>
<g id="cDcm">
	<line class="st11" x1="616.4" y1="512.6" x2="616.4" y2="552.1"/>
</g>
<g id="cBcm">
	<line class="st12" x1="345.2" y1="548.8" x2="345.2" y2="577"/>
</g>
<g id="cAcm">
	<line class="st12" x1="355.6" y1="153.3" x2="355.6" y2="176.9"/>
</g>
<path class="st1" d="M576.3,193.2c-1.4,0.2,22-0.7,28.5,12.1"/>
<path class="st4" d="M597.2,199.2"/>
<path class="st4" d="M588.1,210.7"/>
<path class="st4" d="M588.1,212.1c0,0,3.7-14.8,9.1-13.6"/>
<path class="st4" d="M573.6,209.3"/>
<path class="st4" d="M596.3,197.5"/>
<g>
	<g>
		<rect x="334.4" y="131.1" class="st13" width="42.5" height="27.6"/>
	</g>
</g>
<text transform="matrix(1 0 0 1 348.3625 152.0087)" class="st14 st15 st16">A</text>
<g>
	<g>
		<rect x="323.9" y="570.2" class="st13" width="42.5" height="27.6"/>
	</g>
</g>
<text transform="matrix(1 0 0 1 338.8784 591.0369)" class="st14 st15 st16">B</text>
<g>
	<g>
		<rect x="596.6" y="547.9" class="st17" width="42.5" height="27.6"/>
	</g>
</g>
<text transform="matrix(1 0 0 1 610.5921 568.8053)" class="st14 st15 st16">D</text>
<g>
	<g>
		<rect x="637.5" y="312.6" class="st17" width="42.5" height="27.6"/>
	</g>
</g>
<text transform="matrix(1 0 0 1 649.9717 333.4982)" class="st14 st15 st16">C</text>
</svg>
