<?xml version="1.0" encoding="utf-8"?>
<!-- Generator: Adobe Illustrator 27.4.1, SVG Export Plug-In . SVG Version: 6.00 Build 0)  -->
<svg version="1.1" id="Layer_1" xmlns="http://www.w3.org/2000/svg" xmlns:xlink="http://www.w3.org/1999/xlink" x="0px" y="0px"
	 viewBox="0 0 729 729" style="enable-background:new 0 0 729 729;" xml:space="preserve">
<style type="text/css">
	.st0{fill:none;stroke:#231F20;stroke-width:4;stroke-linecap:round;stroke-linejoin:round;}
	.st1{fill:none;stroke:#231F20;stroke-width:2;stroke-linecap:round;stroke-linejoin:round;}
	.st2{fill:none;stroke:#63C083;stroke-width:2;stroke-miterlimit:10;}
	.st3{fill:#63C083;stroke:#63C083;stroke-miterlimit:10;}
	.st4{fill:none;stroke:#EB2027;stroke-width:2;stroke-miterlimit:10;}
	.st5{fill:#EB2027;stroke:#EB2027;stroke-miterlimit:10;}
	.st6{fill:none;stroke:#EB2027;stroke-miterlimit:10;}
	.st7{fill:none;stroke:#63C083;stroke-miterlimit:10;}
	.st8{fill:none;}
	.st9{fill:none;stroke:#DF6868;stroke-width:2;stroke-linecap:round;stroke-linejoin:round;}
	.st10{fill:none;stroke:#63C083;stroke-width:2;stroke-linecap:round;stroke-linejoin:round;stroke-dasharray:1.0676,3.2028;}
	.st11{fill:#FFFFFF;stroke:#E8282B;stroke-miterlimit:10;}
	.st12{fill:#020202;}
	.st13{font-family:'SetupGrotesk-Medium';}
	.st14{font-size:20px;}
	.st15{fill:#F9F9FA;stroke:#63C083;stroke-miterlimit:10;}
</style>
<g>
	<polyline class="st0" points="304.8,472.1 121.4,366.9 121.4,243.2 	"/>
	<g>
		<polyline class="st1" points="144.6,383.5 144.6,613.9 167.9,600.7 167.9,396.9 		"/>
		<polygon class="st1" points="143.2,382.5 144.6,613.9 121.4,600.7 120,369.2 		"/>
	</g>
	<polyline class="st1" points="335.3,503.1 349.2,495.2 349.2,446.9 	"/>
	<g>
		<path class="st1" d="M331.5,457.1l19.9,244.6l-27.6,15.9l-19.2-242.4l-21.2-12.2L305,706.8c9.3,5.3,18.8,10.8,18.8,10.8"/>
	</g>
	<g>
		<path class="st1" d="M460.9,382.4l19.5,223.4c9.3,5.3,18.8,10.8,18.8,10.8"/>
		<polyline class="st1" points="506.9,356.2 526.8,600.7 499.2,616.8 480.2,371.5 		"/>
	</g>
	<g>
		<line class="st0" x1="142.4" y1="231.1" x2="300.6" y2="321.1"/>
		<line class="st0" x1="121.4" y1="243.2" x2="295.3" y2="342.3"/>
	</g>
	<g>
		<line class="st0" x1="303" y1="138.4" x2="445.7" y2="219.8"/>
		<polyline class="st0" points="378.6,258.9 303,215.8 303,138.4 324,126.2 467.1,207.8 		"/>
	</g>
	<line class="st0" x1="305.2" y1="472.1" x2="507.4" y2="355.6"/>
	<g>
		<path class="st0" d="M295.3,342.3c3.1-13.7,6.4-26.8,10.6-37.8c2.9-8,12.4-11.3,19.7-7.1l0,0c6.6,4,9.5,11.9,6.9,19.2
			c-20.4,52.9-27.3,154.2-27.3,154.2"/>
		<line class="st0" x1="312.3" y1="297.2" x2="514.5" y2="180.4"/>
		<path class="st0" d="M514.5,180.4c4-2.2,9.3-2.4,13.7,0l0,0c6.6,4,9.5,11.9,6.9,19.2c-20.3,52.9-27.4,155.7-27.4,155.7"/>
	</g>
	<line class="st0" x1="121.4" y1="243.2" x2="142.4" y2="231.1"/>
	<line class="st0" x1="303" y1="215.8" x2="209.4" y2="269.1"/>
</g>
<g id="mH2cm">
	<path class="st2" d="M545.6,198.8c-16.8,42-25,118.3-27.6,146.9"/>
	<g>
		<polygon class="st3" points="537.7,197.7 550.3,188.6 551.8,204.1 		"/>
	</g>
	<g>
		<polygon class="st3" points="510.5,342.8 517.1,356.7 526,344.1 		"/>
	</g>
</g>
<g id="mH3cm">
	<line class="st2" x1="518.2" y1="368.9" x2="535.5" y2="589.6"/>
	<g>
		<polygon class="st3" points="510.7,371.7 517.3,357.8 526,370.4 		"/>
	</g>
	<g>
		<polygon class="st3" points="527.7,588 536.3,600.7 543,586.7 		"/>
	</g>
</g>
<g id="mG2cm">
	<line class="st4" x1="129.4" y1="382.4" x2="293.5" y2="477.1"/>
	<g>
		<polygon class="st5" points="127.4,390.2 119.6,376.9 135.1,376.9 		"/>
	</g>
	<g>
		<polygon class="st5" points="287.5,482.6 303,482.6 295.3,469.3 		"/>
	</g>
</g>
<g id="mL2cm">
	<line class="st4" x1="316.1" y1="455.3" x2="495.9" y2="351.2"/>
	<g>
		<polygon class="st5" points="324.4,459 308.9,459.3 316.7,445.8 		"/>
	</g>
	<g>
		<polygon class="st5" points="497.9,359.1 505.6,345.6 490.1,345.6 		"/>
	</g>
</g>
<g id="bG2cm">
	<line class="st6" x1="207.8" y1="469.3" x2="207.8" y2="426.4"/>
</g>
<g id="bH1cm">
	<line class="st7" x1="279.8" y1="397.2" x2="301.8" y2="411.8"/>
</g>
<g id="bH2cm">
	<line class="st7" x1="525.3" y1="281.9" x2="560.2" y2="281.9"/>
</g>
<g id="bH3cm">
	<line class="st7" x1="525.3" y1="468.8" x2="561.3" y2="468.8"/>
</g>
<path class="st0" d="M189.5,209.8c0,0,0.7-105.5,11.5-146.2s-47.3-47.1-54-16.4s-15.9,113.5-15.9,113.5H76.3"/>
<g id="mF1cm">
	<line class="st4" x1="139.3" y1="155" x2="182.2" y2="155"/>
	<g>
		<polygon class="st5" points="141.5,162.7 128.3,155 141.5,147.4 		"/>
	</g>
	<g>
		<polygon class="st5" points="179.8,162.7 193.3,155 179.8,147.2 		"/>
	</g>
</g>
<g id="mF3cm">
	<line class="st4" x1="155.2" y1="49.5" x2="193.5" y2="49.5"/>
	<g>
		<polygon class="st5" points="157.5,57.2 144,49.5 157.5,41.7 		"/>
	</g>
	<g>
		<polygon class="st5" points="191.3,57.2 204.6,49.5 191.3,41.7 		"/>
	</g>
</g>
<g id="mF2cm">
	<path class="st2" d="M206.4,144.1c1.3-32.1,2.4-54.8,10.4-84.1"/>
	<g>
		<polygon class="st3" points="214.1,142.1 205.9,155.2 198.6,141.5 		"/>
	</g>
	<g>
		<polygon class="st3" points="223.4,64.3 219.6,49.5 208.6,60.1 		"/>
	</g>
</g>
<circle class="st8" cx="165.2" cy="111.6" r="104"/>
<g>
	<circle class="st1" cx="314.5" cy="324" r="38.7"/>
	<line class="st1" x1="222.5" y1="198.8" x2="295.5" y2="289.5"/>
	<circle class="st1" cx="165.2" cy="111.6" r="104"/>
</g>
<g>
	<path class="st9" d="M295.5,344.5"/>
	<line class="st10" x1="294.6" y1="343" x2="321.2" y2="358.2"/>
	<path class="st9" d="M319.4,357.1"/>
</g>
<g>
	<path class="st2" d="M309.4,368.2c-6.6,33.7-10.4,69.8-11.9,87"/>
	<g>
		<polygon class="st3" points="301.8,368.9 311.7,357.8 316.4,371.9 		"/>
	</g>
	<g>
		<polygon class="st3" points="290.5,452.5 296.7,466 305.4,453.8 		"/>
	</g>
</g>
<g id="mL1cm">
	<line class="st4" x1="343" y1="300.5" x2="525.3" y2="195"/>
	<g>
		<polygon class="st5" points="350.8,305 335.3,305 343,291.8 		"/>
	</g>
	<g>
		<polygon class="st5" points="525.4,204.1 532.9,190.8 517.7,190.8 		"/>
	</g>
</g>
<g id="bF1cm">
	<line class="st6" x1="159.7" y1="171.2" x2="159.7" y2="155"/>
</g>
<g id="bF2cm">
	<line class="st6" x1="167.9" y1="69.5" x2="172.5" y2="49.5"/>
</g>
<g id="bF3cm">
	<line class="st7" x1="221.6" y1="107.2" x2="209.4" y2="107.2"/>
</g>
<line class="st6" x1="413.4" y1="443" x2="413.4" y2="400"/>
<line class="st6" x1="428.5" y1="293.7" x2="428.5" y2="250.7"/>
<g>
	<g>
		<rect x="186.6" y="455.5" class="st11" width="42.5" height="27.6"/>
	</g>
</g>
<text transform="matrix(1 0 0 1 193.2988 476.5901)" class="st12 st13 st14">G2</text>
<g>
	<g>
		<rect x="392.3" y="429.2" class="st11" width="42.5" height="27.6"/>
	</g>
</g>
<text transform="matrix(1 0 0 1 401.8171 450.2683)" class="st12 st13 st14">L2</text>
<g>
	<g>
		<rect x="407.2" y="281.8" class="st11" width="42.5" height="27.6"/>
	</g>
</g>
<text transform="matrix(1 0 0 1 416.7763 302.8365)" class="st12 st13 st14">L1</text>
<g>
	<g>
		<rect x="138.4" y="171.2" class="st11" width="42.5" height="27.6"/>
	</g>
</g>
<text transform="matrix(1 0 0 1 147.9603 192.2473)" class="st12 st13 st14">F1</text>
<g>
	<g>
		<rect x="146.6" y="69.5" class="st11" width="42.5" height="27.6"/>
	</g>
</g>
<text transform="matrix(1 0 0 1 156.1441 90.5464)" class="st12 st13 st14">F2</text>
<g>
	<g>
		<rect x="216.7" y="93.4" class="st15" width="42.5" height="27.6"/>
	</g>
</g>
<text transform="matrix(1 0 0 1 226.0281 114.5927)" class="st12 st13 st14">F3</text>
<g>
	<g>
		<rect x="240.2" y="384.2" class="st15" width="42.5" height="27.6"/>
	</g>
</g>
<text transform="matrix(1 0 0 1 248.11 404.7983)" class="st12 st13 st14">H1</text>
<g>
	<g>
		<rect x="551.8" y="268.1" class="st15" width="42.5" height="27.6"/>
	</g>
</g>
<text transform="matrix(1 0 0 1 558.9429 288.0016)" class="st12 st13 st14">H2</text>
<g>
	<g>
		<rect x="548" y="452.2" class="st15" width="42.5" height="27.6"/>
	</g>
</g>
<text transform="matrix(1 0 0 1 555.1552 472.0265)" class="st12 st13 st14">H3</text>
</svg>
