<?xml version="1.0" encoding="utf-8"?>
<!-- Generator: Adobe Illustrator 27.4.1, SVG Export Plug-In . SVG Version: 6.00 Build 0)  -->
<svg version="1.1" id="Layer_1" xmlns="http://www.w3.org/2000/svg" xmlns:xlink="http://www.w3.org/1999/xlink" x="0px" y="0px"
	 viewBox="0 0 729 729" style="enable-background:new 0 0 729 729;" xml:space="preserve">
<style type="text/css">
	.st0{fill:none;stroke:#231F20;stroke-width:4;stroke-linecap:round;stroke-linejoin:round;}
	.st1{fill:none;stroke:#231F20;stroke-width:2;stroke-linecap:round;stroke-linejoin:round;}
	.st2{fill:none;stroke:#63C083;stroke-width:2;stroke-miterlimit:10;}
	.st3{fill:#63C083;stroke:#63C083;stroke-miterlimit:10;}
	.st4{fill:none;stroke:#EB2027;stroke-width:2;stroke-miterlimit:10;}
	.st5{fill:#EB2027;stroke:#EB2027;stroke-width:2;stroke-miterlimit:10;}
	.st6{fill:none;stroke:#EB2027;stroke-miterlimit:10;}
	.st7{fill:#EB2129;}
	.st8{fill:none;stroke:#63C083;stroke-width:2;stroke-miterlimit:10;stroke-dasharray:5.0137,3.0082;}
	.st9{fill:none;stroke:#63C083;stroke-miterlimit:10;}
	.st10{fill:none;stroke:#DF6868;stroke-width:2;stroke-miterlimit:10;}
	.st11{fill:#FFFFFF;stroke:#E8282B;stroke-miterlimit:10;}
	.st12{fill:#020202;}
	.st13{font-family:'SetupGrotesk-Medium';}
	.st14{font-size:20px;}
	.st15{fill:#F9F9FA;stroke:#63C083;stroke-miterlimit:10;}
</style>
<g>
	<line class="st0" x1="341.3" y1="481.4" x2="546.5" y2="363"/>
	<line class="st0" x1="266.7" y1="287.5" x2="359.4" y2="233.8"/>
	<g>
		<polyline class="st1" points="341.1,485.2 341.1,718.5 364.7,705 364.7,471.1 		"/>
		<polyline class="st1" points="341.1,484.2 341.1,718.5 317.7,705 317.7,471.6 		"/>
	</g>
	<g>
		<polyline class="st1" points="523,380 523,613.6 546.5,600.2 546.5,366.5 		"/>
		<polyline class="st1" points="523,380 523,613.6 499.6,600.2 499.6,393.5 		"/>
	</g>
	<g>
		<path class="st1" d="M197.4,402.5L179,597.7l-23.4,13.5l20.9-221.1l-21.6-13.1l-18.3,223.4c9.3,5.3,19,11,19,11"/>
	</g>
	<g>
		<path class="st0" d="M317.9,495"/>
	</g>
	<path class="st0" d="M338.5,57.2c2.4-1.1,5.3-1.1,8,0.4l0,0c6.4,3.8,11.3,9.9,13.5,17c6.2,20.5,11.3,43.3,14.6,65.1"/>
	<path class="st0" d="M128.2,186.4c-2.2-7.5,6-13.9,12.8-9.9l0,0c6.4,3.8,11.3,9.9,13.5,17c6.2,20.5,11.3,43.3,14.6,65.1"/>
	<path class="st0" d="M341.1,357.3v124.3L155.6,374.5l0,0c0-36.6-3.3-73.3-9.7-109.5c-4.4-24.7-10.4-53.2-17.4-78.6"/>
	<g>
		<line class="st0" x1="546.5" y1="239.6" x2="375.1" y2="140.4"/>
		<line class="st0" x1="359" y1="234.5" x2="523" y2="329.2"/>
		<path class="st0" d="M351.7,154.1c5.7,43.3,7.3,80.4,7.3,80.4"/>
		<polyline class="st0" points="523,253.1 546.5,239.4 546.5,363 		"/>
		<line class="st0" x1="351.7" y1="154.1" x2="375.1" y2="140.4"/>
		<line class="st0" x1="523" y1="329.2" x2="523" y2="253.1"/>
		<line class="st0" x1="523.3" y1="253.1" x2="351.9" y2="153.9"/>
	</g>
	<g>
		<polyline class="st0" points="192.7,244.9 364.1,343.8 364.1,420 523,329.2 		"/>
		<line class="st0" x1="340.4" y1="357.3" x2="364.1" y2="343.8"/>
		<line class="st0" x1="169.1" y1="258.4" x2="192.7" y2="244.9"/>
		<line class="st0" x1="340.9" y1="357.3" x2="169.5" y2="258.4"/>
	</g>
	<path class="st0" d="M132,176.6L338.5,57.2"/>
</g>
<g id="mC2cm">
	<line class="st2" x1="346.9" y1="366.2" x2="346.9" y2="468.8"/>
	<g>
		<polygon class="st3" points="339.1,370.1 346.9,356.7 354.6,370.1 		"/>
	</g>
	<g>
		<polygon class="st3" points="339.1,461.8 346.9,475.1 354.6,461.8 		"/>
	</g>
</g>
<g id="mA1cm">
	<line class="st4" x1="178.6" y1="241.2" x2="365.6" y2="132.6"/>
	<g>
		<polygon class="st5" points="184.6,246.8 169.1,246.8 176.6,233.5 		"/>
	</g>
	<g>
		<polygon class="st5" points="364.2,142.6 371.9,129.2 356.5,129.2 		"/>
	</g>
</g>
<g id="mA2cm">
	<line class="st4" x1="377.9" y1="423.7" x2="517.7" y2="344"/>
	<g>
		<polygon class="st5" points="382,430.3 366.6,430.3 374.3,417.1 		"/>
	</g>
	<g>
		<polygon class="st5" points="520.4,350.6 528.1,337.4 512.6,337.4 		"/>
	</g>
</g>
<g id="mC1cm">
	<line class="st6" x1="342.2" y1="348.5" x2="353.9" y2="341.6"/>
	<g>
		<polygon class="st7" points="344.9,351.8 336.9,351.8 340.9,345 		"/>
	</g>
	<g>
		<polygon class="st7" points="355.5,345.9 359.4,339.1 351.5,338.9 		"/>
	</g>
</g>
<g id="mDcm">
	<line class="st4" x1="354.6" y1="483.9" x2="540.3" y2="375.6"/>
	<g>
		<polygon class="st5" points="360,490.6 344.5,490.6 352.3,477.1 		"/>
	</g>
	<g>
		<polygon class="st5" points="542.5,384.3 550,371.1 534.8,371.1 		"/>
	</g>
</g>
<g id="mA3cm">
	<path class="st2" d="M325.6,243.1c-0.2-1.8-0.7-3.5-0.9-5.5"/>
	<path class="st8" d="M323.7,231c-9.5-55.2-35.1-187.7-47.7-152.6"/>
	<path class="st2" d="M275.1,81.7c-0.4,1.6-0.9,3.3-1.1,5.3"/>
	<g>
		<polygon class="st3" points="332.4,234.4 327.1,248.7 317.1,236.8 		"/>
	</g>
	<g>
		<polygon class="st3" points="264.5,79.3 270,93.6 279.7,81.7 		"/>
	</g>
</g>
<g id="mB1cm">
	<line class="st4" x1="368.2" y1="229.7" x2="514.2" y2="314.1"/>
	<g>
		<polygon class="st5" points="368.5,237.7 360.8,224.2 376.2,224.2 		"/>
	</g>
	<g>
		<polygon class="st5" points="504.9,317 520.4,317 512.6,303.5 		"/>
	</g>
</g>
<g id="mB2cm">
	<line class="st4" x1="369.6" y1="156.8" x2="515.5" y2="241.2"/>
	<g>
		<polygon class="st5" points="366.9,165.2 359.1,151.8 374.6,151.8 		"/>
	</g>
	<g>
		<polygon class="st5" points="507.8,247.7 523.3,247.7 515.5,234.2 		"/>
	</g>
</g>
<g id="mG1cm">
	<line class="st4" x1="155.4" y1="260.7" x2="331" y2="361.5"/>
	<g>
		<polygon class="st5" points="155.4,269.3 147.7,256.1 163.1,256.1 		"/>
	</g>
	<g>
		<polygon class="st5" points="321.7,365 337.1,365 329.4,351.8 		"/>
	</g>
</g>
<g id="bB2cm">
	<line class="st6" x1="446.8" y1="201.4" x2="446.2" y2="163.9"/>
</g>
<g id="bA3cm">
	<line class="st2" x1="309.5" y1="157.4" x2="318.6" y2="108.4"/>
</g>
<g id="bA1cm">
	<line class="st6" x1="271.2" y1="187.7" x2="257.5" y2="159.9"/>
</g>
<g id="bC2cm">
	<line class="st9" x1="346.9" y1="418" x2="315.3" y2="418"/>
</g>
<g id="bC1cm">
	<path class="st10" d="M353,313.8"/>
	<path class="st10" d="M351.7,350.6"/>
</g>
<g id="bG1cm">
	<line class="st6" x1="237.2" y1="307.5" x2="237.2" y2="337"/>
</g>
<g id="bB1cm">
	<line class="st6" x1="431.8" y1="265.2" x2="431.8" y2="242.8"/>
</g>
<g id="bDcm">
	<line class="st6" x1="457.4" y1="424.3" x2="457.8" y2="475.5"/>
</g>
<g id="cC1cm">
	<line class="st6" x1="348.1" y1="318.3" x2="348.1" y2="345.2"/>
</g>
<g>
	<g>
		<rect x="426.6" y="142.5" class="st11" width="42.5" height="27.6"/>
	</g>
</g>
<text transform="matrix(1 0 0 1 436.0945 163.5712)" class="st12 st13 st14">B2</text>
<g>
	<g>
		<rect x="410.5" y="223.8" class="st11" width="42.5" height="27.6"/>
	</g>
</g>
<text transform="matrix(1 0 0 1 420.0606 244.8417)" class="st12 st13 st14">B1</text>
<g>
	<g>
		<rect x="325.4" y="300.3" class="st11" width="42.5" height="27.6"/>
	</g>
</g>
<text transform="matrix(1 0 0 1 334.9375 321.304)" class="st12 st13 st14">C1</text>
<g>
	<g>
		<rect x="216" y="331.4" class="st11" width="42.5" height="27.6"/>
	</g>
</g>
<text transform="matrix(1 0 0 1 225.5342 352.4609)" class="st12 st13 st14">G1</text>
<g>
	<g>
		<rect x="237.2" y="136.4" class="st11" width="42.5" height="27.6"/>
	</g>
</g>
<text transform="matrix(1 0 0 1 246.7842 157.4153)" class="st12 st13 st14">A1</text>
<g>
	<g>
		<rect x="436.2" y="455" class="st11" width="42.5" height="27.6"/>
	</g>
</g>
<text transform="matrix(1 0 0 1 450.629 475.446)" class="st12 st13 st14">D</text>
<line class="st6" x1="443.8" y1="348.4" x2="444.1" y2="387.1"/>
<g>
	<g>
		<rect x="421.3" y="332.1" class="st11" width="42.5" height="27.6"/>
	</g>
</g>
<text transform="matrix(1 0 0 1 430.8342 353.1599)" class="st12 st13 st14">A2</text>
<g>
	<g>
		<rect x="282.3" y="403.3" class="st15" width="42.5" height="27.6"/>
	</g>
</g>
<text transform="matrix(1 0 0 1 290.9294 424.2811)" class="st12 st13 st14">C2</text>
<g>
	<g>
		<rect x="302.4" y="84.3" class="st15" width="42.5" height="27.6"/>
	</g>
</g>
<text transform="matrix(1 0 0 1 309.5169 104.1647)" class="st12 st13 st14">A3</text>
</svg>
