<?xml version="1.0" encoding="utf-8"?>
<!-- Generator: Adobe Illustrator 27.3.1, SVG Export Plug-In . SVG Version: 6.00 Build 0)  -->
<svg version="1.1" id="Layer_1" xmlns="http://www.w3.org/2000/svg" xmlns:xlink="http://www.w3.org/1999/xlink" x="0px" y="0px"
	 viewBox="0 0 729 729" style="enable-background:new 0 0 729 729;" xml:space="preserve">
<style type="text/css">
	.st0{fill:none;stroke:#40DD8B;stroke-miterlimit:10;}
	.st1{fill:none;stroke:#40DD8B;stroke-width:2;stroke-miterlimit:10;}
	.st2{fill:#40DD8B;}
	.st3{fill:none;stroke:#EB2027;stroke-miterlimit:10;}
	.st4{fill:none;stroke:#EB2027;stroke-width:2;stroke-miterlimit:10;}
	.st5{fill:#EB2027;stroke:#EB2027;stroke-miterlimit:10;}
	.st6{fill:none;stroke:#231F20;stroke-width:4;stroke-linecap:round;stroke-linejoin:round;}
	.st7{fill:none;stroke:#231F20;stroke-width:2;stroke-linecap:round;stroke-linejoin:round;}
	
		.st8{fill:none;stroke:#231F20;stroke-width:2;stroke-linecap:round;stroke-linejoin:round;stroke-miterlimit:10;stroke-dasharray:5;}
	.st9{fill:none;stroke:#DE6969;stroke-linecap:round;stroke-linejoin:round;stroke-miterlimit:10;stroke-dasharray:1.9999;}
	.st10{fill:#FFFFFF;stroke:#E9262A;stroke-miterlimit:10;}
	.st11{fill:#020202;}
	.st12{font-family:'SetupGrotesk-Medium';}
	.st13{font-size:20px;}
</style>
<g id="bTcm">
	<line class="st0" x1="163.5" y1="194.1" x2="163.5" y2="233.3"/>
</g>
<g id="mTcm">
	<polyline class="st1" points="149.6,246.8 152,244.5 182.2,214.2 	"/>
	<polygon class="st2" points="184.7,219.9 188,208.5 176.4,211.8 	"/>
	<polygon class="st2" points="146.6,240.6 143.3,252.1 154.7,248.8 	"/>
</g>
<g id="bD2cm">
	<line class="st0" x1="122.6" y1="302.9" x2="141.1" y2="302.9"/>
</g>
<g id="bD1cm">
	<line class="st0" x1="391" y1="384.9" x2="408.3" y2="384.9"/>
</g>
<g id="bW2cm">
	<line class="st3" x1="392.2" y1="566.7" x2="392.2" y2="544"/>
</g>
<g id="bW1cm">
	<line class="st3" x1="389.5" y1="203.8" x2="389.5" y2="179.4"/>
</g>
<g id="mW1cm">
	<polyline class="st4" points="569.5,203.6 503.7,203.6 274.8,203.6 203.5,203.6 	"/>
	<polygon class="st5" points="210.3,197.7 199.9,203.6 210.3,209.5 	"/>
	<polygon class="st5" points="564.3,209.5 574.9,203.6 564.3,197.7 	"/>
</g>
<g id="mW2cm">
	<polyline class="st4" points="527.2,543.1 413.9,543.1 279.6,543.1 244.2,543.1 	"/>
	<polygon class="st5" points="251,537.4 240.6,543.1 251,549 	"/>
	<polygon class="st5" points="522,549 532.4,543.1 522,537.4 	"/>
</g>
<g id="mD1cm">
	<polyline class="st1" points="391,527 391,509.7 391,281.3 391,263.9 	"/>
	<polygon class="st2" points="396.9,272.1 391,261.7 385.3,272.1 	"/>
	<polygon class="st2" points="385.2,518.7 390.9,529.1 396.8,518.7 	"/>
</g>
<g id="mD2cm">
	<polyline class="st1" points="142,341.7 142,336.5 142,269.3 142,264.3 	"/>
	<polygon class="st2" points="147.9,269.5 142,259.1 136.1,269.5 	"/>
	<polygon class="st2" points="136.1,336.5 142,346.9 147.9,336.5 	"/>
</g>
<g>
	<path class="st6" d="M196.1,214.4L153,257.6 M573,214.1H196.5 M573,488.7V214.6 M529.7,531.7l43.1-42.8 M239,531.9h290.3
		 M152.9,258.3v89.9 M528.2,257.6H153.3 M529.3,531V256.8 M569.7,215.3L529.1,257"/>
	<line class="st7" x1="530.7" y1="455.4" x2="572" y2="413.9"/>
	<line class="st7" x1="530.5" y1="462.1" x2="571.7" y2="420.7"/>
	<line class="st8" x1="550.4" y1="442.5" x2="550.4" y2="508.3"/>
	<line class="st8" x1="555.7" y1="437.6" x2="555.7" y2="502.9"/>
	<path class="st9" d="M550.4,444.9"/>
	<path class="st9" d="M550.4,443.9"/>
	<path class="st9" d="M554.1,439.4"/>
</g>
<g>
	<g>
		<rect x="369.8" y="155.2" class="st10" width="42.5" height="27.6"/>
	</g>
</g>
<text transform="matrix(1 0 0 1 383.7433 175.0895)" class="st11 st12 st13">A</text>
<g>
	<g>
		<rect x="371" y="563" class="st10" width="42.5" height="27.6"/>
	</g>
</g>
<text transform="matrix(1 0 0 1 384.9563 583.8369)" class="st11 st12 st13">B</text>
<g>
	<g>
		<rect x="408.3" y="371.1" class="st0" width="42.5" height="27.6"/>
	</g>
</g>
<text transform="matrix(1 0 0 1 421.2243 391.9125)" class="st11 st12 st13">C</text>
<g>
	<g>
		<rect x="80.1" y="289.2" class="st0" width="42.5" height="27.6"/>
	</g>
</g>
<text transform="matrix(1 0 0 1 94.0559 310.0788)" class="st11 st12 st13">E</text>
<g>
	<g>
		<rect x="142.2" y="166.8" class="st0" width="42.5" height="27.6"/>
	</g>
</g>
<text transform="matrix(1 0 0 1 155.2033 187.6439)" class="st11 st12 st13">D</text>
<path class="st6" d="M152.9,348.2c-0.5-0.9,82-4.5,84,67.2"/>
<path class="st6" d="M236.8,414c1,59.9,0.3,118.2,1.1,117.9"/>
<polygon class="st5" points="170.2,365.4 169.7,351.9 158.4,359.3 "/>
<polygon class="st5" points="233.1,520.3 219.6,520.3 226.5,531.9 "/>
<g id="bD1cm_00000021801473107091658420000008903452686155224754_">
	<line class="st3" x1="203.7" y1="439.7" x2="226.4" y2="439.7"/>
</g>
<g>
	<g>
		<rect x="161.2" y="425.7" class="st10" width="42.5" height="27.6"/>
	</g>
</g>
<text transform="matrix(1 0 0 1 176.4036 446.4299)" class="st11 st12 st13">F</text>
<path class="st4" d="M170,358.6c-0.1,1,45.6,2.9,53.5,42.4"/>
<path class="st4" d="M222.7,397.7c0,0,2.6,9.5,3.4,17.7l0.2,109.7"/>
</svg>
