<?xml version="1.0" encoding="utf-8"?>
<!-- Generator: Adobe Illustrator 27.3.1, SVG Export Plug-In . SVG Version: 6.00 Build 0)  -->
<svg version="1.1" id="Layer_1" xmlns="http://www.w3.org/2000/svg" xmlns:xlink="http://www.w3.org/1999/xlink" x="0px" y="0px"
	 viewBox="0 0 792 792" style="enable-background:new 0 0 792 792;" xml:space="preserve">
<style type="text/css">
	.st0{fill:none;stroke:#A6A8AB;stroke-width:4;stroke-linecap:round;stroke-linejoin:round;}
	.st1{fill:none;stroke:#020202;stroke-width:4;stroke-linecap:round;stroke-linejoin:round;}
	.st2{fill:none;stroke:#40DD8B;stroke-width:2;stroke-miterlimit:10;}
	.st3{fill:#40DD8B;}
	.st4{fill:none;stroke:#40DD8B;stroke-miterlimit:10;}
	.st5{font-family:'SetupGrotesk-Medium';}
	.st6{font-size:20px;}
	.st7{fill:none;stroke:#EA1F27;stroke-width:2;stroke-miterlimit:10;}
	.st8{fill:#EA1F27;}
	.st9{fill:#FFFFFF;stroke:#EA1F27;stroke-miterlimit:10;}
	.st10{fill:none;stroke:#EA1F27;stroke-miterlimit:10;}
</style>
<line class="st0" x1="664.8" y1="417.7" x2="376.9" y2="417.7"/>
<line class="st0" x1="263.6" y1="473.5" x2="664.8" y2="473.5"/>
<line class="st0" x1="263.6" y1="605" x2="664.8" y2="605"/>
<polyline class="st0" points="225.5,674.1 244.8,659.7 251.8,605 "/>
<polyline class="st0" points="151.9,605 158.9,674.1 225.5,674.1 232.9,605 "/>
<g>
	<path class="st1" d="M376.5,117.9c-1.4,0-6,15.4-6.3,16.8c-17.2,47.7-19.6,110.1-37.9,157.5c-11.6,29.8-15.8,66.6-68.4,67H127.5
		c26-6.3,61-31.6,77.9-54.4c18.9-26,32.6-58.2,39.6-89.1c6-25.6,15.4-74,24.5-91.5c2.1-4.2,7.4-6.3,12.6-6.3
		C281.5,117.9,376.5,117.9,376.5,117.9L376.5,117.9z"/>
	<rect x="127.2" y="358.8" class="st1" width="136.4" height="246.2"/>
</g>
<line class="st0" x1="664.8" y1="117.9" x2="378.6" y2="117.9"/>
<polyline class="st1" points="263.6,473.5 292.3,459.5 348.1,431.8 376.9,417.7 "/>
<line class="st1" x1="376.9" y1="414.6" x2="376.9" y2="117.9"/>
<g>
	<line class="st2" x1="255.8" y1="375" x2="135.1" y2="375.3"/>
	<polygon class="st3" points="138.9,370 130.2,375 138.9,380 	"/>
	<polygon class="st3" points="251.5,370 260.2,375.1 251.5,380 	"/>
</g>
<g>
	<rect x="133.7" y="398.5" class="st4" width="42.5" height="27.6"/>
	<text transform="matrix(1 0 0 1 140.34 419.4149)" class="st5 st6">C</text>
	<text transform="matrix(1 0 0 1 156.12 419.4149)" class="st5 st6">2</text>
	<line class="st4" x1="154.9" y1="375" x2="154.9" y2="398.5"/>
</g>
<g>
	<line class="st7" x1="385.3" y1="412.3" x2="385.3" y2="130.5"/>
	<polygon class="st8" points="390.2,130.5 385.1,121.8 380.2,130.5 	"/>
	<polygon class="st8" points="389.7,406.2 384.6,414.9 379.7,406.2 	"/>
</g>
<g>
	<rect x="411.7" y="254" class="st9" width="42.5" height="27.6"/>
	<text transform="matrix(1 0 0 1 420.69 274.215)" class="st5 st6">E3</text>
	<line class="st10" x1="385" y1="267.8" x2="411.7" y2="267.8"/>
</g>
<g>
	<line class="st7" x1="193.3" y1="596" x2="193.3" y2="371.1"/>
	<polygon class="st8" points="198.1,371.1 193.1,362.4 188.1,371.1 	"/>
	<polygon class="st8" points="198.1,592.7 193,601.4 188.1,592.7 	"/>
</g>
<g>
	<rect x="133.7" y="510.1" class="st9" width="42.5" height="27.6"/>
	<text transform="matrix(1 0 0 1 141.03 530.935)" class="st5 st6">C</text>
	<text transform="matrix(1 0 0 1 156.81 530.935)" class="st5 st6">3</text>
	<line class="st10" x1="176.2" y1="523.9" x2="193.1" y2="523.9"/>
</g>
<g>
	<line class="st2" x1="370.2" y1="406.8" x2="271.6" y2="456"/>
	<polygon class="st3" points="272.6,450.4 266.7,458.6 276.6,459.6 	"/>
	<polygon class="st3" points="364.2,403.3 374.2,404.6 368,412.5 	"/>
</g>
<g>
	<rect x="338.2" y="441.4" class="st4" width="42.5" height="27.6"/>
	<text transform="matrix(1 0 0 1 272.3442 329.946)" class="st5 st6">B</text>
	<text transform="matrix(1 0 0 1 285.1442 329.946)" class="st5 st6">2</text>
	<line class="st4" x1="359.4" y1="440.8" x2="359.4" y2="412.2"/>
</g>
<g>
	<line class="st2" x1="370" y1="322.4" x2="271.5" y2="371.6"/>
	<polygon class="st3" points="272.4,366 266.5,374.2 276.4,375.2 	"/>
	<polygon class="st3" points="364,318.9 374,320.2 367.8,328.1 	"/>
</g>
<g>
	<rect x="263.7" y="309.1" class="st4" width="42.5" height="27.6"/>
	<text transform="matrix(1 0 0 1 348.7209 462.5837)" class="st5 st6">B1</text>
	<line class="st4" x1="285" y1="365.4" x2="285" y2="336.8"/>
</g>
<g>
	<line class="st7" x1="263.7" y1="466.6" x2="263.7" y2="368.5"/>
	<polygon class="st8" points="268.6,368.5 263.5,359.8 258.6,368.4 	"/>
	<polygon class="st8" points="268.6,464.6 263.5,473.3 258.6,464.6 	"/>
</g>
<g>
	<rect x="212.7" y="403.9" class="st9" width="42.5" height="27.6"/>
	<text transform="matrix(1 0 0 1 223.51 424.615)" class="st5 st6">E1</text>
	<line class="st10" x1="255.3" y1="417.7" x2="263.7" y2="417.7"/>
</g>
<g>
	<line class="st7" x1="320" y1="440.7" x2="320" y2="342.5"/>
	<polygon class="st8" points="324.9,342.5 319.9,333.8 314.9,342.5 	"/>
	<polygon class="st8" points="324.9,434.7 319.8,443.4 314.9,434.7 	"/>
</g>
<g>
	<rect x="329.7" y="368.5" class="st9" width="42.5" height="27.6"/>
	<text transform="matrix(1 0 0 1 338.94 389.135)" class="st5 st6">E2</text>
	<line class="st10" x1="319.9" y1="382.3" x2="329.7" y2="382.3"/>
</g>
<g>
	<line class="st2" x1="361.7" y1="126.9" x2="276.6" y2="127.2"/>
	<polygon class="st3" points="280.4,121.9 271.7,126.9 280.4,131.9 	"/>
	<polygon class="st3" points="360.1,121.8 368.7,126.9 360,131.8 	"/>
</g>
<g>
	<rect x="296.4" y="150.6" class="st4" width="42.5" height="27.6"/>
	<text transform="matrix(1 0 0 1 305.07 171.465)" class="st5 st6">C1</text>
	<line class="st4" x1="317.7" y1="127.1" x2="317.7" y2="150.6"/>
</g>
</svg>
